<?xml version="1.0" encoding="UTF-8" standalone="no"?>
<!-- Created with Inkscape (http://www.inkscape.org/) -->

<svg
   version="1.1"
   id="svg2"
   width="230.77733"
   height="214.81734"
   viewBox="0 0 230.77733 214.81734"
   sodipodi:docname="Musixmatch-Icon-Brand.ai"
   xmlns:inkscape="http://www.inkscape.org/namespaces/inkscape"
   xmlns:sodipodi="http://sodipodi.sourceforge.net/DTD/sodipodi-0.dtd"
   xmlns="http://www.w3.org/2000/svg"
   xmlns:svg="http://www.w3.org/2000/svg">
  <defs
     id="defs6">
    <clipPath
       clipPathUnits="userSpaceOnUse"
       id="clipPath16">
      <path
         d="M 0,161.113 H 173.083 V 0 H 0 Z"
         id="path14" />
    </clipPath>
  </defs>
  <sodipodi:namedview
     id="namedview4"
     pagecolor="#ffffff"
     bordercolor="#000000"
     borderopacity="0.25"
     inkscape:showpageshadow="2"
     inkscape:pageopacity="0.0"
     inkscape:pagecheckerboard="0"
     inkscape:deskcolor="#d1d1d1" />
  <g
     id="g8"
     inkscape:groupmode="layer"
     inkscape:label="Musixmatch-Icon-Brand"
     transform="matrix(1.3333333,0,0,-1.3333333,0,214.81733)">
    <g
       id="g10">
      <g
         id="g12"
         clip-path="url(#clipPath16)">
        <g
           id="g18"
           transform="translate(146.3013,109.1354)">
          <path
             d="m 0,0 -26.47,-20.43 -22.907,17.75 34.484,25.984 c 2.884,2.169 6.525,2.504 9.743,0.9 C -1.931,22.59 0,19.486 0,15.889 Z M 0,-40.939 -16.171,-28.409 0,-15.933 Z m 0,-32.104 c 0,-3.615 -1.94,-6.727 -5.176,-8.332 -3.245,-1.596 -6.895,-1.243 -9.761,0.952 l -34.475,26.338 2.777,2.151 20.156,15.563 L 0,-56.898 Z m -59.764,26.902 -1.957,1.508 -21.03,16.241 22.987,17.811 22.987,-17.811 -21.612,-16.691 z m -44.827,-34.282 c -2.866,-2.195 -6.516,-2.548 -9.761,-0.952 -3.236,1.605 -5.176,4.717 -5.176,8.332 v 16.145 l 26.479,20.527 19.953,-15.413 2.981,-2.301 z m -14.937,64.49 16.171,-12.476 -16.171,-12.53 z m 0,31.822 c 0,3.597 1.931,6.701 5.149,8.315 1.35,0.67 2.769,1.005 4.18,1.005 1.957,0 3.888,-0.644 5.563,-1.905 L -70.151,-2.68 -93.058,-20.43 -119.528,0 Z M 0.476,35.481 c -7.477,3.73 -16.277,2.927 -22.952,-2.107 L -59.764,5.29 -97.053,33.374 c -6.674,5.034 -15.474,5.837 -22.951,2.107 -7.477,-3.73 -12.124,-11.233 -12.124,-19.592 v -88.932 c 0,-8.394 4.665,-15.915 12.195,-19.636 3.103,-1.534 6.428,-2.284 9.725,-2.284 4.7,0 9.364,1.526 13.279,4.515 l 37.165,28.409 37.165,-28.409 c 3.924,-2.989 8.579,-4.515 13.279,-4.515 3.298,0 6.622,0.75 9.726,2.284 7.53,3.721 12.203,11.242 12.203,19.636 v 88.932 c 0,8.359 -4.647,15.862 -12.133,19.592"
             style="fill:#ff5227;fill-opacity:1;fill-rule:nonzero;stroke:none"
             id="path20" />
        </g>
      </g>
    </g>
  </g>
</svg>
