<svg id="Layer_1" data-name="Layer 1" xmlns="http://www.w3.org/2000/svg" viewBox="0 0 638 223"><defs><style>.cls-1{fill:#fff;fill-rule:evenodd;}</style></defs><title>Sony Logo Vector</title><rect width="638" height="223"/><path class="cls-1" d="M809.3,534.22a9.73,9.73,0,1,0,9.7,9.7,9.73,9.73,0,0,0-9.7-9.7Zm0,18.28a8.56,8.56,0,1,1,8.53-8.58,8.55,8.55,0,0,1-8.53,8.58Z" transform="translate(-181 -388.5)"/><path class="cls-1" d="M814.29,541.37a2.68,2.68,0,0,0-1.22-2.34,5.06,5.06,0,0,0-2.65-.53h-4.73v10.86H807v-5h2.44l3.11,5h1.58l-3.29-5h0c1.94-.05,3.44-.84,3.44-3Zm-5.24,1.94h-2v-3.85h3.11c1.35,0,2.82.21,2.82,1.89,0,2.21-2.37,2-3.89,2Z" transform="translate(-181 -388.5)"/><path class="cls-1" d="M752.3,488.83l19.88-21.23h0c1.16-1.56,1.73-2.65,1.73-3.59,0-1.55-1.34-2.18-5.56-2.18h-5v-13.4h54.3v13.4H810.5c-8.24,0-9.77,1.25-21.27,15.74h0l-31.45,34v20.72h0c0,5.3,2.68,7.17,10.35,7.17H780v12.93H704V539.43h11.88c7.66,0,10.34-1.87,10.34-7.17h0V511.54l-37-41h0c-6.13-7.17-5.28-8.73-22.32-8.73h0v-13.4h68.77v13.4h-4.89c-5,0-7.1.94-7.1,2.81,0,1.56,1.54,2.8,2.5,4.05h0l18.74,20.42h0c2.22,2.32,4.93,2.62,7.47-.28Z" transform="translate(-181 -388.5)"/><path class="cls-1" d="M290.85,448.43h16.58v37.39H292.11c-1.35-7.47-6-10.38-10.3-14.3-7.7-7.08-24.36-13-38.39-13-18.09,0-33.36,5.61-33.36,13.86,0,22.91,103.48,4.68,103.48,48,0,22.59-22.16,35.21-62,35.21-13.78,0-34.64-4.28-46.94-10.81-3.86-2.23-5.49,2.11-6.22,7.54h-17V513.72h15.39c3.39,9.81,8.07,11.84,12.37,15.73,7.46,6.86,25.22,11.85,41.5,11.69,24.56-.24,33-5.61,33-13.4s-8.36-9.66-35.27-13.87h0l-22.84-3.74h0C199.77,506.24,181,500.47,181,479.9c0-21.34,23.75-34.75,61.3-34.75,15.82,0,29.06,2.12,41.76,9.3,3.53,2.29,6.83,2.56,6.79-6Z" transform="translate(-181 -388.5)"/><path class="cls-1" d="M614.62,511l.33-41.57h0c0-5.45-2.84-7.32-11-7.32h-9.52V449.22h60.6v12.93h-7.9c-8.11,0-10.95,1.87-10.95,7.32h0v83.68L612.51,553,535.7,480.23v52.82h0c0,5.3,2.84,7.32,10.94,7.32h10.54v12.78H494.26V540.37h10.42c8.11,0,10.95-2,10.95-7.32h0V469.47h0c0-5.45-2.84-7.32-10.95-7.32H494.26V449.22h54.41l66,61.82Z" transform="translate(-181 -388.5)"/><path class="cls-1" d="M411.64,444.37c-48.3,0-78.53,21.35-78.53,55.63,0,33.66,29.81,54.85,77.05,54.85,50.18,0,79.37-20.88,79.37-56.57,0-32.09-31.5-53.91-77.89-53.91Zm-1.1,96.92c-26.73,0-42.1-15.43-42.1-42.07,0-26,16-41.45,43.43-41.45,26.29,0,41.66,15.74,41.66,42.54,0,26.18-15.59,41-43,41Z" transform="translate(-181 -388.5)"/></svg>