<?xml version="1.0" encoding="utf-8"?>
<!-- Generator: Adobe Illustrator 26.0.3, SVG Export Plug-In . SVG Version: 6.00 Build 0)  -->
<svg version="1.1" id="Layer_1" focusable="false" xmlns="http://www.w3.org/2000/svg" xmlns:xlink="http://www.w3.org/1999/xlink"
	 x="0px" y="0px" viewBox="0 0 500 88" style="enable-background:new 0 0 500 88;" xml:space="preserve">
<g focusable="false" transform="translate(13.000000, 12.000000)">
	<path d="M165.1,76c-18.1,0-34.9-5.4-46.1-15.5c-8.5-7.6-12.6-17.9-12.6-28.6c0-10.5,4.2-20.9,12.6-28.5
		C129.4-6.1,147.8-12,165.1-12c19.2,0,34.5,4.8,46.2,15.5c8.3,7.6,12.4,17.9,12.4,28.5c0,10.2-4.3,21.1-12.4,28.6
		C200.5,70.7,183.3,76,165.1,76V64.4c9.6,0,18.5-3.3,24.8-9.5c6.2-6.2,9.1-13.7,9.1-23c0-8.9-3.1-17.1-9.1-23
		c-6.1-6.1-15.3-9.5-24.8-9.5c-9.5,0-18.7,3.4-24.8,9.5c-5.9,5.9-9,14.2-9,23c0,8.8,3.1,17.1,9,23c6.2,6.1,15.3,9.5,24.8,9.5V76"/>
	<path d="M32.7-12c-9.7,0-20.7,1.8-30,6C-5.9-2.1-13,4.1-13,14.4c0,9.3,5.9,14.7,5.7,14.6c2.5,2.3,6.6,6.3,17.1,8.6
		c4.7,1,14.8,2.6,24.9,3.7c10,1.1,19.8,2.1,23.8,3.1c3.2,0.8,8.5,1.9,8.5,7.9c0,6-5.6,7.8-6.6,8.2c-1,0.4-7.7,3.5-19.9,3.5
		c-9,0-19.7-2.7-23.7-4.1c-4.5-1.6-9.3-3.7-13.7-9.2c-1.1-1.3-2.8-5-2.8-8.7h-11v30.8H1.7c0,0,0-3.4,0-4.2c0-0.5,0.6-2.4,2.6-1.5
		c2.6,1.2,10,4.1,17.9,5.8c6.4,1.3,10.6,2.3,18.5,2.3c13,0,20-2.1,24.9-3.5c4.6-1.3,10.2-3.6,14.8-7.3c2.5-2,7.9-7,7.9-16.2
		c0-8.8-4.7-14.3-6.4-15.9c-2.3-2.3-5-4-7.9-5.4c-2.5-1.2-6.5-2.6-9.7-3.4c-6.3-1.5-20.5-3.5-27.4-4.2c-7.1-0.7-19.5-1.8-24.5-3.3
		c-1.5-0.5-4.6-1.9-4.6-5.5C7.9,8,9.3,5.9,12,4.1c4.4-2.7,13.2-4.5,22.5-4.5c10.9,0,20.2,2.5,26.1,5.1c2,0.9,4.3,2.2,6.2,3.7
		c2.1,1.7,5,5.3,6.1,10.2h9.9V-8.1h-11V-5c0,1-1,2.3-3,1.2C63.8-6.4,49.8-11.9,32.7-12"/>
	<path d="M274.2-7.1L328,41.4l-0.6-32.7c-0.1-4.3-0.8-6.1-5.5-6.1c-6.2,0-10.1,0-10.1,0v-9.8h46v9.8c0,0-3.7,0-9.9,0
		c-4.7,0-5,1.5-5.1,6.1l0.8,62.4H328l-61.9-55.3l0,39.2c0.1,4.3,0.3,6.3,4.6,6.3c6.2,0,11,0,11,0v9.8h-45.1v-9.8c0,0,4.4,0,10.6,0
		c3.9,0,3.8-3.8,3.8-6.5V9.1c0-3-0.4-6.4-6.6-6.4h-8.6v-9.8H274.2"/>
	<path d="M410.4,61.4c0.4,0,2.3-0.1,2.7-0.2c1.1-0.3,1.8-1.1,2.1-1.9c0.1-0.3,0.2-1.8,0.2-2.1c0,0,0-14.9,0-15.4
		c0-0.4,0-0.5-0.7-1.4c-0.7-0.9-28.2-32-29.4-33.4c-1.6-1.7-4.3-4.3-8.5-4.3c-3.3,0-9.5,0-9.5,0v-9.8h53.9v9.8c0,0-5.2,0-6.5,0
		c-1.5,0-2.5,1.4-1.2,3c0,0,18.1,21.7,18.3,21.9c0.2,0.2,0.3,0.3,0.5,0.1c0.2-0.2,18.6-21.8,18.7-22c0.9-1,0.3-3-1.6-3
		c-1.3,0-6.7,0-6.7,0v-9.8H487v9.8c0,0-6.6,0-9.9,0c-3.6,0-5,0.7-7.7,3.7c-1.2,1.4-29,33.1-29.7,33.9c-0.4,0.4-0.4,1.1-0.4,1.4
		c0,0.6,0,14,0,15.4c0,0.3,0.1,1.8,0.2,2.1c0.3,0.8,1.1,1.5,2.1,1.9c0.4,0.1,2.3,0.2,2.7,0.2c1.9,0,10.1,0,10.1,0v9.8h-53.6v-9.8
		L410.4,61.4"/>
</g>
</svg>
