<svg xmlns="http://www.w3.org/2000/svg" width="1777" height="420" viewBox="0 0 1777 420" version="1.1"><path d="M 1141.594 6.847 C 1140.653 8.370, 1145.848 11.393, 1154.994 14.642 C 1186.941 25.991, 1207.886 36.074, 1242 56.527 C 1315.854 100.805, 1412.496 180.020, 1444.435 222.457 C 1452.780 233.544, 1452.622 233.592, 1468.380 215.218 C 1512.020 164.332, 1610.315 91.490, 1718.500 29.865 C 1751.438 11.102, 1756 8.326, 1756 7.043 C 1756 5.389, 1747.231 5.838, 1738.500 7.940 C 1725.904 10.972, 1661.535 29.218, 1639.751 35.930 C 1566.619 58.466, 1509.288 85.945, 1464.737 119.817 C 1458.817 124.318, 1453.776 128, 1453.534 128 C 1453.293 128, 1448.364 124.194, 1442.581 119.542 C 1388.641 76.151, 1299.442 36.899, 1206.150 15.499 C 1174.689 8.282, 1143.307 4.076, 1141.594 6.847 M 201 130 L 201 161 223.250 161.002 C 235.488 161.002, 261.363 161.300, 280.750 161.664 L 316 162.324 316 276.662 L 316 391 351.500 391 L 387 391 387 276.508 L 387 162.016 444.250 161.758 L 501.500 161.500 501.764 130.250 L 502.028 99 351.514 99 L 201 99 201 130" stroke="none" fill="#d31343" fill-rule="evenodd"/><path d="M 21 245 L 21 391 55 391 L 89 391 89 333 L 89 275 145 275 L 201 275 201 333 L 201 391 235 391 L 269 391 269 276 L 269 161 235 161 L 201 161 201 188 L 201 215 145 215 L 89 215 89 157 L 89 99 55 99 L 21 99 21 245 M 501.764 130.250 L 501.500 161.500 472.726 161.765 L 443.952 162.031 441.942 165.265 C 434.453 177.315, 426.908 198.493, 423.959 215.738 C 410.553 294.157, 446.959 362.740, 513.790 384.961 C 551.536 397.511, 595.749 394.899, 628.415 378.188 C 664.342 359.808, 686.716 325.964, 692.510 281.236 L 693.191 275.972 660.346 276.236 L 627.500 276.500 627.199 279 C 627.033 280.375, 625.998 285.060, 624.900 289.412 C 618.894 313.199, 603.147 329.924, 581.500 335.503 C 573.453 337.577, 555.370 337.549, 545.867 335.448 C 516.381 328.929, 496.489 305.109, 490.470 269.114 C 487.942 253.992, 488.815 228.289, 492.314 214.869 C 497.259 195.897, 502.748 185.428, 513.500 174.459 C 525.973 161.733, 539.420 156.136, 559.617 155.264 C 574.668 154.614, 583.749 156.413, 595.295 162.333 C 610.096 169.922, 622.419 185.248, 624.577 198.750 L 625.256 203 657.957 203 L 690.658 203 689.779 196.440 C 684.216 154.914, 654.733 120.900, 611.934 106.631 C 593.663 100.539, 578.114 99.002, 534.764 99.001 L 502.028 99 501.764 130.250 M 1292.971 164.667 L 1292.942 216.500 1289.412 209.884 C 1270.363 174.178, 1217.785 161.489, 1176.734 182.692 C 1166.607 187.922, 1154.560 198.555, 1147.413 208.570 C 1121.070 245.486, 1119.273 311.822, 1143.528 351.944 C 1155.572 371.867, 1173.066 385.059, 1195.500 391.135 C 1206.557 394.129, 1230.204 394.386, 1240.416 391.622 C 1262.839 385.553, 1283.190 371.206, 1291.723 355.451 L 1294.947 349.500 1294.973 368.750 L 1295 388 1307.500 388 L 1320 388 1320 260.220 L 1320 132.439 1307.343 122.970 C 1300.382 117.761, 1294.307 113.350, 1293.843 113.167 C 1293.379 112.983, 1292.987 136.158, 1292.971 164.667 M 803 173.029 C 780.276 175.301, 762.134 183.781, 746.457 199.457 C 725.925 219.989, 715.560 248.452, 715.670 284 C 715.721 300.549, 717.592 313.001, 722.004 326.172 C 728.171 344.579, 736.020 357.082, 749.244 369.562 C 766.491 385.840, 788.281 394, 814.500 394 C 865.394 394, 902.223 361.159, 911.504 307.500 C 913.724 294.668, 913.753 270.887, 911.565 258.741 C 903.754 215.389, 877.827 184.894, 840.916 175.642 C 834.470 174.026, 817.665 171.929, 813 172.157 C 811.625 172.225, 807.125 172.617, 803 173.029 M 1017.193 173.072 C 993.468 176.153, 972.504 190.143, 962.608 209.500 L 960.051 214.500 960.026 196.250 L 960 178 947 178 L 934 178 934 283 L 934 388 946.931 388 L 959.862 388 960.257 321.250 C 960.642 256.237, 960.710 254.279, 962.866 246 C 964.084 241.325, 966.926 233.675, 969.182 229 C 977.045 212.705, 992.961 200.187, 1010.500 196.504 C 1025.378 193.381, 1044.206 195.520, 1054.398 201.493 C 1060.702 205.187, 1067.668 213.067, 1071.083 220.364 C 1077.364 233.785, 1077.325 233.242, 1077.734 314.250 L 1078.106 388 1091.053 388 L 1104 388 1103.996 313.250 C 1103.992 233.868, 1103.707 228.160, 1099.079 214.725 C 1090.181 188.889, 1071.823 176.041, 1039.500 173.027 C 1027.335 171.893, 1026.261 171.895, 1017.193 173.072 M 1655.500 177.482 C 1632.324 182.593, 1614.990 196.167, 1603.357 218.315 L 1599.058 226.500 1599.029 202.250 L 1599 178 1587 178 L 1575 178 1575 283 L 1575 388 1587.951 388 L 1600.902 388 1601.235 325.750 C 1601.558 265.300, 1601.631 263.275, 1603.755 255.704 C 1609.793 234.179, 1623.017 217.806, 1641.366 209.137 C 1650.235 204.947, 1657.913 203.073, 1669.250 202.334 L 1679 201.698 1679 188.849 L 1679 176 1670.250 176.079 C 1665.438 176.123, 1658.800 176.754, 1655.500 177.482 M 1383.838 195.957 C 1372.016 206.494, 1362.356 221.755, 1356.594 239 C 1351.473 254.327, 1349.690 265.874, 1349.722 283.500 C 1349.774 311.694, 1355.866 333.321, 1369.620 354.140 C 1375.520 363.069, 1389.874 376.504, 1399.068 381.701 C 1428.106 398.116, 1468.481 398.115, 1497.960 381.699 C 1508.490 375.835, 1524.875 359.392, 1530.961 348.581 C 1553.072 309.305, 1553.056 255.243, 1530.923 217.986 C 1526.672 210.832, 1516.344 197.925, 1514.348 197.274 C 1513.714 197.068, 1509.256 200.656, 1504.441 205.249 L 1495.686 213.600 1500.827 219.980 C 1506.438 226.944, 1512.735 238.970, 1515.866 248.703 C 1524.160 274.491, 1522.093 306.882, 1510.646 330.500 C 1502.325 347.668, 1492.269 358.152, 1477.500 365.062 C 1467.529 369.726, 1460.032 371.352, 1448.500 371.352 C 1436.968 371.352, 1429.471 369.726, 1419.500 365.062 C 1404.731 358.152, 1394.675 347.668, 1386.354 330.500 C 1367.829 292.279, 1375.075 239.026, 1402.304 213.274 L 1407.713 208.158 1401.607 202.309 C 1398.248 199.092, 1394.126 195.232, 1392.447 193.732 L 1389.395 191.004 1383.838 195.957 M 799 196.555 C 773.005 202.138, 752.828 224.521, 744.789 256.693 C 741.565 269.595, 741.556 296.610, 744.772 309.340 C 753.008 341.942, 771.849 363.432, 797.624 369.622 C 805.933 371.617, 821.294 371.841, 829.500 370.087 C 837.824 368.307, 850.421 362.204, 857.138 356.696 C 886.086 332.958, 895.533 279.641, 878.020 238.839 C 866.020 210.881, 842.613 194.888, 814 195.097 C 809.325 195.131, 802.575 195.787, 799 196.555 M 1207.500 196.022 C 1186.007 200.336, 1169.429 215.759, 1160.417 239.824 C 1155.708 252.401, 1153.957 261.687, 1153.313 277.500 C 1152.382 300.386, 1155.532 317.213, 1163.985 334.500 C 1171.284 349.427, 1180.053 358.969, 1192.025 365.013 C 1209.763 373.967, 1235.034 373.591, 1253.799 364.094 C 1278.540 351.573, 1292.926 321.979, 1292.974 283.500 C 1293.044 228.755, 1264.920 194.553, 1220.292 195.110 C 1215.456 195.170, 1209.700 195.580, 1207.500 196.022" stroke="none" fill="#040404" fill-rule="evenodd"/></svg>