<?xml version="1.0" encoding="UTF-8"?>
<svg version="1.1" xmlns="http://www.w3.org/2000/svg" width="2560" height="1280">
<path d="M0 0 C844.8 0 1689.6 0 2560 0 C2560 422.4 2560 844.8 2560 1280 C1715.2 1280 870.4 1280 0 1280 C0 857.6 0 435.2 0 0 Z " fill="#FEFEFE" transform="translate(0,0)"/>
<path d="M0 0 C4.96519599 2.21824728 9.43822691 5.05814246 14 8 C16.22689499 9.37867607 18.45599312 10.75380123 20.6875 12.125 C22.28078125 13.115 22.28078125 13.115 23.90625 14.125 C27.66888184 16.40538293 31.51395158 18.49582881 35.390625 20.57421875 C38.78605137 22.42950412 42.08790595 24.42153032 45.39453125 26.4296875 C48.2866331 28.17275339 51.203596 29.86903871 54.125 31.5625 C57.51469809 33.53224793 60.87676331 35.52534791 64.1875 37.625 C67.56637315 39.76194647 71.02842295 41.70355097 74.53125 43.62890625 C81.6550677 47.58533032 88.64247365 51.76108386 95.5625 56.0625 C100.35344674 59.03049436 105.21200437 61.77595569 110.1796875 64.43359375 C114.52614332 66.84762254 118.72027416 69.49984365 122.94140625 72.125 C126.14856482 74.09107422 129.40184649 75.92922373 132.703125 77.73046875 C136.47376408 79.81458048 140.18166554 82.00528309 143.8984375 84.18359375 C145.92149923 85.36838431 147.94742018 86.5483101 149.9765625 87.72265625 C155.22185845 90.76049915 160.41469488 93.86185521 165.5625 97.0625 C169.64615068 99.59701068 173.75858223 101.98980825 178 104.25 C184.46912266 107.75215204 189.08146613 111.00305222 192 118 C192.54698874 121.03938298 192.5496369 124.00618391 192.52139282 127.08857727 C192.52904392 127.98180055 192.53669501 128.87502384 192.54457796 129.79531449 C192.56515269 132.77695242 192.55727065 135.75781391 192.54931641 138.73950195 C192.55801423 140.88192454 192.56838173 143.02434091 192.58029175 145.16674805 C192.607058 150.97887328 192.60823055 156.79073829 192.60316515 162.60291314 C192.60102449 167.45867445 192.61079577 172.31438324 192.62037599 177.17013329 C192.64256222 188.62868031 192.64344383 200.0870962 192.63134766 211.5456543 C192.61927052 223.35698553 192.64388457 235.16784012 192.68648779 246.97909003 C192.72174546 257.12795428 192.73371839 267.276667 192.72721231 277.42559022 C192.72358989 283.48344169 192.72882568 289.54095326 192.75664139 295.59874916 C192.7818306 301.29777055 192.77788027 306.99605046 192.75181961 312.69506073 C192.74709568 314.78235565 192.7525304 316.86970302 192.76906586 318.95693779 C192.9200584 339.50383046 192.9200584 339.50383046 186 347 C183.39453125 349.296875 183.39453125 349.296875 180.8125 350.75 C179.84699219 351.30816406 178.88148438 351.86632812 177.88671875 352.44140625 C176.93410156 352.95574219 175.98148438 353.47007812 175 354 C173.80310547 354.66322266 173.80310547 354.66322266 172.58203125 355.33984375 C170.84314811 356.29360319 169.09911882 357.23800807 167.3515625 358.17578125 C154.2489375 365.30739649 141.4001473 372.9047402 128.5625 380.5 C127.97855469 380.84488464 127.39460938 381.18976929 126.79296875 381.54510498 C125.11212855 382.53853893 123.4329906 383.53485122 121.75390625 384.53125 C120.30479858 385.39073242 120.30479858 385.39073242 118.82641602 386.26757812 C116.83767544 387.48655568 114.87723939 388.75232843 112.93945312 390.05078125 C110.40915981 391.72867675 107.88905964 393.22555145 105.21484375 394.65625 C104.35439453 395.12160156 103.49394531 395.58695313 102.60742188 396.06640625 C100.82444113 397.02376387 99.04058252 397.9794883 97.25585938 398.93359375 C92.81591584 401.33842438 88.91742816 403.79544872 85 407 C82.02132498 408.58440161 78.99117206 410.00414373 75.9375 411.4375 C72.95971541 413.02142797 70.62323128 414.89396731 68 417 C66.1511186 417.98801255 64.27392434 418.92445856 62.375 419.8125 C57.1819466 422.33575049 52.39444112 425.20509805 47.5625 428.35546875 C43.80956215 430.76398527 39.91321127 432.86604972 36 435 C27.13231543 439.8982689 18.36526984 444.91075591 9.76953125 450.2734375 C2.97026328 454.5121913 -1.73888605 456.94554919 -10 456 C-12.5625 454.6875 -12.5625 454.6875 -15 453 C-16.051875 452.566875 -17.10375 452.13375 -18.1875 451.6875 C-26.3406463 448.3051904 -33.74719688 442.9860107 -40.9375 437.9375 C-43.98777375 435.88994636 -43.98777375 435.88994636 -47.5625 434.5 C-50.95205606 433.02092099 -53.1358023 431.29135816 -56 429 C-58.31979381 427.96898053 -60.65429915 426.97063483 -63 426 C-65.37434672 424.72720205 -67.68074992 423.37261739 -70 422 C-70 421.34 -70 420.68 -70 420 C-71.485 419.690625 -71.485 419.690625 -73 419.375 C-77.05553277 418.23846965 -79.76621063 416.04809963 -83.01953125 413.44921875 C-84.88890332 412.0812956 -86.54198895 411.21738069 -88.6875 410.375 C-92 409 -92 409 -94.3125 407.125 C-97.5295384 404.58129522 -100.90923458 402.99671732 -104.58984375 401.21875 C-107.56449245 399.71455163 -110.22788812 397.84807459 -113 396 C-115.55862198 394.70658637 -118.13434172 393.46240519 -120.73046875 392.24609375 C-122.93809613 391.03398853 -124.25541199 389.77841659 -126 388 C-127.11375 387.525625 -128.2275 387.05125 -129.375 386.5625 C-133 385 -133 385 -135.28125 383.125 C-138.36015275 380.7185013 -141.6084253 379.08473762 -145.125 377.4375 C-148.90248385 375.66655903 -152.10564754 374.06214101 -155 371 C-156.45064821 370.19622528 -157.93445758 369.45092619 -159.4375 368.75 C-165.4866296 365.82300181 -171.23271471 362.44242488 -177 359 C-177.90105469 358.47664063 -178.80210937 357.95328125 -179.73046875 357.4140625 C-182 356 -182 356 -184 354 C-185.010625 353.608125 -186.02125 353.21625 -187.0625 352.8125 C-192.54605954 350.53152355 -198.68832606 347.04127692 -201.10357952 341.44121552 C-202.21301192 337.18228115 -202.28044519 333.30950812 -202.26069641 328.92883301 C-202.26452196 328.02547478 -202.26834751 327.12211656 -202.27228898 326.19138384 C-202.28259294 323.16984744 -202.27863178 320.14850198 -202.2746582 317.12695312 C-202.27900606 314.95848922 -202.28418946 312.79002685 -202.29014587 310.62156677 C-202.30353781 304.73532599 -202.30411441 298.8491494 -202.30158257 292.96289635 C-202.30051319 288.04966162 -202.3053953 283.1364399 -202.310188 278.22320795 C-202.32128345 266.63398421 -202.32172009 255.04479289 -202.31567383 243.45556641 C-202.30963041 231.49605885 -202.32195436 219.53666884 -202.3432439 207.57718134 C-202.36084882 197.31037727 -202.36686308 187.04361066 -202.36360615 176.77679205 C-202.36179169 170.64425809 -202.36444597 164.51180802 -202.37832069 158.37928772 C-202.39087663 152.61399792 -202.38897603 146.84889172 -202.37590981 141.08360481 C-202.37353976 138.96721905 -202.37629395 136.85082044 -202.38453293 134.73444939 C-202.39496557 131.84647441 -202.38692761 128.95911949 -202.3742218 126.07116699 C-202.38159609 125.23283719 -202.38897037 124.39450738 -202.39656812 123.53077364 C-202.35102914 118.61401842 -201.69842126 115.27092866 -199 111 C-193.31972203 105.78028511 -186.48541119 102.00547957 -179.69140625 98.4296875 C-173.74669336 95.27182841 -168.04881865 91.7437949 -162.5 87.9375 C-158.65743069 85.33751901 -154.69329412 83.29030792 -150.5234375 81.26953125 C-145.10670653 78.5443957 -140.01154364 75.25157142 -134.8671875 72.05078125 C-128.95406118 68.38128797 -123.01699291 64.85584437 -116.88671875 61.5625 C-108.77245962 57.17047882 -100.80650304 52.63884738 -93.19140625 47.421875 C-89.89142951 45.28071362 -86.42186044 43.48345068 -82.953125 41.6328125 C-79.73455553 39.85323309 -76.62112276 37.94515471 -73.5 36 C-68.61955053 32.9619924 -63.67455538 30.14136206 -58.609375 27.42578125 C-55.19970156 25.56271118 -51.88455904 23.56087329 -48.5625 21.546875 C-44.37010731 19.01610137 -40.13422931 16.56062738 -35.89892578 14.10253906 C-34.49064471 13.2848742 -33.08284092 12.46638718 -31.67529297 11.64746094 C-29.11762547 10.15948948 -26.55891983 8.6733166 -24 7.1875 C-22.76165405 6.46687378 -22.76165405 6.46687378 -21.49829102 5.73168945 C-20.71510498 5.27753662 -19.93191895 4.82338379 -19.125 4.35546875 C-18.07699219 3.74674927 -18.07699219 3.74674927 -17.0078125 3.12573242 C-11.15401423 -0.15635219 -6.75330238 -1.20831146 0 0 Z " fill="#7438E1" transform="translate(451,412)"/>
<path d="M0 0 C0.99 0.31839844 1.98 0.63679688 3 0.96484375 C2.57556876 6.61648076 1.93775091 11.60753242 0 16.96484375 C-1.51804054 22.98033242 -2.61124663 29.09509461 -3.75073242 35.19067383 C-8.90195671 62.72363522 -8.90195671 62.72363522 -12.05078125 70.58984375 C-12.99739972 72.9583377 -13.53644347 75.14831073 -14 77.65234375 C-14.49750792 80.30571931 -14.99713177 82.95164203 -15.5703125 85.58984375 C-15.84488281 86.85828125 -15.84488281 86.85828125 -16.125 88.15234375 C-16.37636719 89.28736328 -16.37636719 89.28736328 -16.6328125 90.4453125 C-17.61554678 96.77917713 -17.61554678 96.77917713 -15.28730774 102.51931763 C-14.4852037 103.30587738 -13.68309967 104.09243713 -12.85668945 104.90283203 C-11.95187332 105.80711945 -11.04705719 106.71140686 -10.11482239 107.64309692 C-9.1146647 108.60748607 -8.11414185 109.57149662 -7.11328125 110.53515625 C-6.09240198 111.54296131 -5.07307091 112.55233683 -4.05522156 113.5632019 C-1.37451745 116.21723372 1.32650825 118.84960066 4.03240967 121.47790527 C6.77039366 124.14450398 9.48890856 126.83078271 12.20898438 129.515625 C17.00804942 134.24779319 21.82382724 138.96224777 26.65238953 143.66433716 C27.42710098 144.42350433 28.20181244 145.18267151 29 145.96484375 C29.90180496 146.83478973 30.80360992 147.70473572 31.73274231 148.6010437 C34 150.96484375 34 150.96484375 35.06640625 153.46484375 C34.96985236 157.09981355 33.42316532 158.37813512 30.9375 160.96484375 C30.1125 161.82851563 29.2875 162.6921875 28.4375 163.58203125 C25.72976651 166.22901431 22.9998827 168.65724167 20 170.96484375 C20.33 172.28484375 20.66 173.60484375 21 174.96484375 C22.32 174.30484375 23.64 173.64484375 25 172.96484375 C25 173.95484375 25 174.94484375 25 175.96484375 C27.35953094 178.32437469 28.77895617 178.45625788 32 178.96484375 C31.34 180.28484375 30.68 181.60484375 30 182.96484375 C31.65 182.30484375 33.3 181.64484375 35 180.96484375 C36.65 183.27484375 38.3 185.58484375 40 187.96484375 C43.465 186.97484375 43.465 186.97484375 47 185.96484375 C47 188.58598083 46.68707555 190.47419487 46 192.96484375 C49.67735605 194.1906291 50.55066523 193.43081103 54 191.96484375 C54.99 191.96484375 55.98 191.96484375 57 191.96484375 C57.66 193.28484375 58.32 194.60484375 59 195.96484375 C58.01 196.95484375 57.02 197.94484375 56 198.96484375 C57.093125 198.79984375 58.18625 198.63484375 59.3125 198.46484375 C63 197.96484375 63 197.96484375 66 197.96484375 C65.34 198.95484375 64.68 199.94484375 64 200.96484375 C68.09947304 204.10190892 68.09947304 204.10190892 73 204.96484375 C74.485 203.97484375 74.485 203.97484375 76 202.96484375 C76.391875 203.78984375 76.78375 204.61484375 77.1875 205.46484375 C77.785625 206.28984375 78.38375 207.11484375 79 207.96484375 C81.62694422 208.38265254 81.62694422 208.38265254 84 207.96484375 C84 208.95484375 84 209.94484375 84 210.96484375 C86.94729537 212.12295763 86.94729537 212.12295763 90 211.96484375 C90.33 212.95484375 90.66 213.94484375 91 214.96484375 C92.32 214.96484375 93.64 214.96484375 95 214.96484375 C95 215.95484375 95 216.94484375 95 217.96484375 C96.98 218.29484375 98.96 218.62484375 101 218.96484375 C101.144375 219.60421875 101.28875 220.24359375 101.4375 220.90234375 C101.81007181 222.94029521 101.81007181 222.94029521 103 223.96484375 C103.825 224.39796875 104.65 224.83109375 105.5 225.27734375 C108 226.96484375 108 226.96484375 108.8125 229.15234375 C108.874375 229.75046875 108.93625 230.34859375 109 230.96484375 C109.9075 230.59359375 110.815 230.22234375 111.75 229.83984375 C115 228.96484375 115 228.96484375 117 229.58984375 C117.66 230.04359375 118.32 230.49734375 119 230.96484375 C120.0725 231.66609375 121.145 232.36734375 122.25 233.08984375 C123.1575 233.70859375 124.065 234.32734375 125 234.96484375 C124.01 235.95484375 123.02 236.94484375 122 237.96484375 C124.96175123 237.35206763 126.38058783 236.71111853 129 234.96484375 C131.5 236.21484375 131.5 236.21484375 134 237.96484375 C134 239.28484375 134 240.60484375 134 241.96484375 C135.22954016 243.77783867 135.22954016 243.77783867 137 244.96484375 C140.18490007 245.24219385 140.18490007 245.24219385 143 242.96484375 C144.07525194 245.61713187 145.09456151 248.24852829 146 250.96484375 C145.67 251.62484375 145.34 252.28484375 145 252.96484375 C145.99 253.29484375 146.98 253.62484375 148 253.96484375 C146.10416667 255.04817708 144.20833333 256.13151042 142.3125 257.21484375 C141.68947998 257.57126953 141.06645996 257.92769531 140.42456055 258.29492188 C136.73474371 260.40517396 133.04163789 262.50938873 129.34375 264.60546875 C119.0263376 270.46328053 108.77278332 276.42275296 98.5625 282.46484375 C97.97828278 282.80990967 97.39406555 283.15497559 96.79214478 283.51049805 C95.11158541 284.50375929 93.43271907 285.49988333 91.75390625 286.49609375 C90.30479858 287.35557617 90.30479858 287.35557617 88.82641602 288.23242188 C86.83767544 289.45139943 84.87723939 290.71717218 82.93945312 292.015625 C80.40915981 293.6935205 77.88905964 295.1903952 75.21484375 296.62109375 C74.35439453 297.08644531 73.49394531 297.55179688 72.60742188 298.03125 C70.82444113 298.98860762 69.04058252 299.94433205 67.25585938 300.8984375 C62.81591584 303.30326813 58.91742816 305.76029247 55 308.96484375 C52.02132498 310.54924536 48.99117206 311.96898748 45.9375 313.40234375 C42.95971541 314.98627172 40.62323128 316.85881106 38 318.96484375 C36.1511186 319.9528563 34.27392434 320.88930231 32.375 321.77734375 C27.1819466 324.30059424 22.39444112 327.1699418 17.5625 330.3203125 C13.80956215 332.72882902 9.91321127 334.83089347 6 336.96484375 C-2.86768457 341.86311265 -11.63473016 346.87559966 -20.23046875 352.23828125 C-27.02973672 356.47703505 -31.73888605 358.91039294 -40 357.96484375 C-42.5625 356.65234375 -42.5625 356.65234375 -45 354.96484375 C-46.051875 354.53171875 -47.10375 354.09859375 -48.1875 353.65234375 C-56.3406463 350.27003415 -63.74719688 344.95085445 -70.9375 339.90234375 C-73.98777375 337.85479011 -73.98777375 337.85479011 -77.5625 336.46484375 C-80.95205606 334.98576474 -83.1358023 333.25620191 -86 330.96484375 C-88.31979381 329.93382428 -90.65429915 328.93547858 -93 327.96484375 C-95.37434672 326.6920458 -97.68074992 325.33746114 -100 323.96484375 C-100 323.30484375 -100 322.64484375 -100 321.96484375 C-101.485 321.65546875 -101.485 321.65546875 -103 321.33984375 C-107.05553277 320.2033134 -109.76621063 318.01294338 -113.01953125 315.4140625 C-114.88890332 314.04613935 -116.54198895 313.18222444 -118.6875 312.33984375 C-122 310.96484375 -122 310.96484375 -124.3125 309.08984375 C-127.5295384 306.54613897 -130.90923458 304.96156107 -134.58984375 303.18359375 C-137.56449245 301.67939538 -140.22788812 299.81291834 -143 297.96484375 C-145.55862198 296.67143012 -148.13434172 295.42724894 -150.73046875 294.2109375 C-152.93809613 292.99883228 -154.25541199 291.74326034 -156 289.96484375 C-157.11375 289.49046875 -158.2275 289.01609375 -159.375 288.52734375 C-163 286.96484375 -163 286.96484375 -165.28125 285.08984375 C-168.36015275 282.68334505 -171.6084253 281.04958137 -175.125 279.40234375 C-178.90248385 277.63140278 -182.10564754 276.02698476 -185 272.96484375 C-186.45064821 272.16106903 -187.93445758 271.41576994 -189.4375 270.71484375 C-195.4866296 267.78784556 -201.23271471 264.40726863 -207 260.96484375 C-207.90105469 260.44148438 -208.80210937 259.918125 -209.73046875 259.37890625 C-212 257.96484375 -212 257.96484375 -214 255.96484375 C-215.010625 255.57296875 -216.02125 255.18109375 -217.0625 254.77734375 C-222.55323223 252.49338371 -228.70402117 249.00124523 -231.10171509 243.3835907 C-232.18858975 239.24709748 -232.29536992 235.50915567 -232.29052734 231.25317383 C-232.30060318 229.97161659 -232.30060318 229.97161659 -232.31088257 228.66416931 C-232.32980486 225.854178 -232.33378288 223.04442595 -232.3359375 220.234375 C-232.34236603 218.27715457 -232.34909443 216.31993509 -232.35610962 214.36271667 C-232.36806544 210.26823699 -232.37179184 206.17384161 -232.37060547 202.0793457 C-232.37040159 196.82657251 -232.39778202 191.57433618 -232.43214989 186.32169056 C-232.45434824 182.28372192 -232.4584453 178.24588437 -232.45738602 174.20786095 C-232.45974963 172.2705162 -232.4686157 170.33316826 -232.48405075 168.39588356 C-232.50358175 165.69297725 -232.49792558 162.99125422 -232.48583984 160.28833008 C-232.49707886 159.48567719 -232.50831787 158.68302429 -232.51989746 157.85604858 C-232.45793406 152.4204892 -232.45793406 152.4204892 -229.96963501 149.94462585 C-229.31965546 149.62129776 -228.6696759 149.29796967 -228 148.96484375 C-227.5875 149.58359375 -227.175 150.20234375 -226.75 150.83984375 C-224.90396399 153.0814589 -223.5812529 153.75488145 -221 154.96484375 C-220.484375 155.50109375 -219.96875 156.03734375 -219.4375 156.58984375 C-217.97021721 158.31045507 -217.97021721 158.31045507 -215 157.96484375 C-213.66666667 159.29817708 -212.33333333 160.63151042 -211 161.96484375 C-210.01 161.96484375 -209.02 161.96484375 -208 161.96484375 C-205 162.96484375 -205 162.96484375 -203.5625 164.46484375 C-202.09567268 166.12474672 -202.09567268 166.12474672 -199.9375 166.46484375 C-198 166.96484375 -198 166.96484375 -196 169.96484375 C-195.34 169.96484375 -194.68 169.96484375 -194 169.96484375 C-192.375 171.46484375 -192.375 171.46484375 -191 172.96484375 C-190.34 172.63484375 -189.68 172.30484375 -189 171.96484375 C-188.34 172.95484375 -187.68 173.94484375 -187 174.96484375 C-184.43717258 175.69449741 -184.43717258 175.69449741 -182 175.96484375 C-182 176.62484375 -182 177.28484375 -182 177.96484375 C-181.34 177.96484375 -180.68 177.96484375 -180 177.96484375 C-179.360625 178.62484375 -178.72125 179.28484375 -178.0625 179.96484375 C-176.11987668 182.31291667 -176.11987668 182.31291667 -173 181.96484375 C-172.67 182.62484375 -172.34 183.28484375 -172 183.96484375 C-171.34 183.96484375 -170.68 183.96484375 -170 183.96484375 C-169.34 184.95484375 -168.68 185.94484375 -168 186.96484375 C-166.3603279 188.33123717 -164.69672386 189.66997554 -163 190.96484375 C-161.68 190.30484375 -160.36 189.64484375 -159 188.96484375 C-158.38125 189.76921875 -157.7625 190.57359375 -157.125 191.40234375 C-155.04101605 193.91538321 -153.95794687 194.51780188 -151.125 195.83984375 C-149 196.96484375 -149 196.96484375 -147 198.58984375 C-144.85514888 200.34252963 -144.85514888 200.34252963 -141 199.96484375 C-140.34 201.94484375 -139.68 203.92484375 -139 205.96484375 C-138.01 205.96484375 -137.02 205.96484375 -136 205.96484375 C-134.515 206.95484375 -134.515 206.95484375 -133 207.96484375 C-132.01 207.96484375 -131.02 207.96484375 -130 207.96484375 C-128.3125 209.27734375 -128.3125 209.27734375 -127 210.96484375 C-127 211.95484375 -127 212.94484375 -127 213.96484375 C-126.34 213.51109375 -125.68 213.05734375 -125 212.58984375 C-122 211.96484375 -122 211.96484375 -120.0625 213.0625 C-118.00101648 214.65156021 -116.00139099 216.30108579 -114 217.96484375 C-110.13152662 220.42659954 -106.35386786 222.51355446 -102 223.96484375 C-101.34 224.62484375 -100.68 225.28484375 -100 225.96484375 C-99.34 225.96484375 -98.68 225.96484375 -98 225.96484375 C-97.525625 226.62484375 -97.05125 227.28484375 -96.5625 227.96484375 C-96.046875 228.62484375 -95.53125 229.28484375 -95 229.96484375 C-94.01 229.96484375 -93.02 229.96484375 -92 229.96484375 C-90.66666667 231.29817708 -89.33333333 232.63151042 -88 233.96484375 C-87.01 233.96484375 -86.02 233.96484375 -85 233.96484375 C-83.7934375 234.95484375 -83.7934375 234.95484375 -82.5625 235.96484375 C-80.01622296 238.37502432 -80.01622296 238.37502432 -76 237.96484375 C-75.34 238.95484375 -74.68 239.94484375 -74 240.96484375 C-73.01 240.30484375 -72.02 239.64484375 -71 238.96484375 C-72.32 238.30484375 -73.64 237.64484375 -75 236.96484375 C-74.67 235.64484375 -74.34 234.32484375 -74 232.96484375 C-73.01 233.62484375 -72.02 234.28484375 -71 234.96484375 C-70.67 234.30484375 -70.34 233.64484375 -70 232.96484375 C-69.34 232.96484375 -68.68 232.96484375 -68 232.96484375 C-67.90074219 231.77890625 -67.80148437 230.59296875 -67.69921875 229.37109375 C-66.94558798 222.62655868 -65.34172362 216.06722689 -63.8125 209.46484375 C-63.49958236 208.09877255 -63.18692284 206.7326422 -62.87451172 205.36645508 C-60.83026446 196.45272783 -58.7434041 187.54872194 -56.625 178.65234375 C-56.37468018 177.59789062 -56.12436035 176.5434375 -55.86645508 175.45703125 C-55.63466553 174.49410156 -55.40287598 173.53117188 -55.1640625 172.5390625 C-54.96248535 171.69947998 -54.7609082 170.85989746 -54.55322266 169.99487305 C-54 167.96484375 -54 167.96484375 -53 165.96484375 C-52.24616662 163.18039798 -52.24616662 163.18039798 -53 159.96484375 C-55.40916261 157.31008689 -58.19679648 155.18753311 -61 152.96484375 C-62.68615782 151.3178989 -64.35570171 149.65358254 -66 147.96484375 C-68.79267443 145.16226622 -71.59754904 142.37238422 -74.41015625 139.58984375 C-75.6276435 138.38155004 -76.84509074 137.17321603 -78.0625 135.96484375 C-78.67416016 135.3615625 -79.28582031 134.75828125 -79.91601562 134.13671875 C-83.18223247 130.88815713 -86.13426239 127.57816508 -89 123.96484375 C-90.1976143 122.84672847 -91.42687366 121.76140146 -92.6875 120.71484375 C-95.85293059 117.98458535 -98.96598591 115.21618466 -102 112.33984375 C-102.763125 111.62570312 -103.52625 110.9115625 -104.3125 110.17578125 C-106 107.96484375 -106 107.96484375 -106.52758789 105.77709961 C-105.67564781 101.23591599 -102.50223131 98.87494749 -99.24609375 95.7578125 C-98.55242203 95.07358719 -97.85875031 94.38936188 -97.14405823 93.68440247 C-94.92002211 91.4949686 -92.67961703 89.32324427 -90.4375 87.15234375 C-88.2238133 84.98889675 -86.01370541 82.82189188 -83.80592346 80.65242004 C-82.43211015 79.30464309 -81.05437195 77.96085038 -79.67198181 76.62187195 C-75.74257859 72.79199658 -72.04506032 68.83705327 -68.47055054 64.67329407 C-66.77444557 62.70280003 -65.01510926 60.81385358 -63.1875 58.96484375 C-62.62417969 58.38734375 -62.06085938 57.80984375 -61.48046875 57.21484375 C-60 55.96484375 -60 55.96484375 -58 55.96484375 C-57.60518433 55.07430298 -57.60518433 55.07430298 -57.20239258 54.16577148 C-55.94408979 51.86250251 -54.69531066 50.50812985 -52.76171875 48.75 C-52.11259521 48.1526001 -51.46347168 47.5552002 -50.79467773 46.93969727 C-50.09930908 46.30862061 -49.40394043 45.67754395 -48.6875 45.02734375 C-47.2328303 43.68526611 -45.77972896 42.34148673 -44.328125 40.99609375 C-43.60044922 40.32191406 -42.87277344 39.64773438 -42.12304688 38.953125 C-39.00521187 36.03320225 -35.95919099 33.04632592 -32.9375 30.02734375 C-32.43887451 29.53306885 -31.94024902 29.03879395 -31.42651367 28.52954102 C-28.07973131 25.17046047 -24.95832088 21.65191825 -21.84985352 18.07250977 C-18.65316219 14.4302983 -15.35657 10.89716328 -12 7.40234375 C-11.32710937 6.66693359 -10.65421875 5.93152344 -9.9609375 5.17382812 C-4.35362844 -0.61209213 -4.35362844 -0.61209213 0 0 Z M25 178.96484375 C26 180.96484375 26 180.96484375 26 180.96484375 Z M65 203.96484375 C66 205.96484375 66 205.96484375 66 205.96484375 Z M76 209.96484375 C76.33 210.62484375 76.66 211.28484375 77 211.96484375 C77.33 211.30484375 77.66 210.64484375 78 209.96484375 C77.34 209.96484375 76.68 209.96484375 76 209.96484375 Z M96 219.96484375 C96.33 220.95484375 96.66 221.94484375 97 222.96484375 C97 221.97484375 97 220.98484375 97 219.96484375 C96.67 219.96484375 96.34 219.96484375 96 219.96484375 Z " fill="#5F68CE" transform="translate(481,510.03515625)"/>
<path d="M0 0 C0.99 0.495 0.99 0.495 2 1 C-1.75 4 -1.75 4 -4 4 C-3.505 7.96 -3.505 7.96 -3 12 C-3.99 12.66 -4.98 13.32 -6 14 C-5.01 13.67 -4.02 13.34 -3 13 C-2.01 15.475 -2.01 15.475 -1 18 C-0.01 18 0.98 18 2 18 C5.39093457 19.13031152 5.53808707 19.53808707 8 22 C10.08333333 21.83333333 10.08333333 21.83333333 12 21 C12.33 20.34 12.66 19.68 13 19 C14.65 19.33 16.3 19.66 18 20 C18 20.66 18 21.32 18 22 C18.969375 22.28875 19.93875 22.5775 20.9375 22.875 C24 24 24 24 25 26 C25.99 24.515 25.99 24.515 27 23 C28.31669304 23.65834652 29.6293548 24.32482829 30.9375 25 C33.1118245 26.10912994 33.1118245 26.10912994 36 27 C35.01 28.485 35.01 28.485 34 30 C35.32 30 36.64 30 38 30 C39.67225729 30.30404678 41.34080104 30.63128912 43 31 C42.34 31.99 41.68 32.98 41 34 C41.556875 34.061875 42.11375 34.12375 42.6875 34.1875 C45.9251338 35.32504701 47.59171152 37.59171152 50 40 C52.58498512 41.26847685 52.58498512 41.26847685 55 42 C55.66 42.33 56.32 42.66 57 43 C57.33 42.34 57.66 41.68 58 41 C59.27502723 41.63751362 60.54632463 42.2825817 61.8125 42.9375 C64.16732053 44.08126997 66.56081908 45.05142964 69 46 C69 46.99 69 47.98 69 49 C70.05270463 50.15811388 70.05270463 50.15811388 72 51 C73.678298 52.31866272 75.34614767 53.65080468 77 55 C77.33 54.34 77.66 53.68 78 53 C79.31669304 53.65834652 80.6293548 54.32482829 81.9375 55 C84.1118245 56.10912994 84.1118245 56.10912994 87 57 C87 57.66 87 58.32 87 59 C87.66 59.66 88.32 60.32 89 61 C89.474375 61.53625 89.94875 62.0725 90.4375 62.625 C92.02846455 64.33031395 92.02846455 64.33031395 95 64 C96.6875 65.5 96.6875 65.5 98 67 C98.33 66.34 98.66 65.68 99 65 C100.65 65.66 102.3 66.32 104 67 C104 67.66 104 68.32 104 69 C104.99 69.66 105.98 70.32 107 71 C103.69237458 78.90558824 95.31218065 84.9101122 88.88671875 90.33203125 C86.48527227 92.45504915 84.25432889 94.72172528 82 97 C81.19820312 97.79019531 80.39640625 98.58039063 79.5703125 99.39453125 C78.35988281 100.59142578 78.35988281 100.59142578 77.125 101.8125 C76.32320312 102.60269531 75.52140625 103.39289063 74.6953125 104.20703125 C72.70831512 106.26602129 70.86434868 108.32246833 69.01953125 110.5 C65.73416463 114.29262651 62.22055209 117.79516692 58.62890625 121.29296875 C57.77235443 122.13061516 57.77235443 122.13061516 56.89849854 122.98518372 C54.51398032 125.31547443 52.12822586 127.64400954 49.72387695 129.95385742 C47.95158138 131.65971267 46.19550454 133.38093347 44.44140625 135.10546875 C43.89464737 135.62328415 43.34788849 136.14109955 42.78456116 136.67460632 C40.47324518 138.96918735 39.09268143 140.45479782 38.53857422 143.71435547 C39.22697229 147.12429343 41.05947013 148.57622145 43.5625 150.9375 C44.46871094 151.80246094 45.37492188 152.66742187 46.30859375 153.55859375 C48.54599623 155.58816784 50.80757661 157.56326217 53.125 159.5 C54.07375 160.325 55.0225 161.15 56 162 C56 162.66 56 163.32 56 164 C56.99 164.33 57.98 164.66 59 165 C60.54296875 166.56640625 60.54296875 166.56640625 62.1875 168.5625 C67.70954043 175.05901815 73.73241134 180.85020684 80.1875 186.41015625 C82.57115643 188.50099282 84.78864325 190.72887685 87 193 C87.928125 193.804375 88.85625 194.60875 89.8125 195.4375 C92 198 92 198 92.4375 201 C92 204 92 204 91.05151367 206.3515625 C89.98983453 209.02560368 89.33802982 211.56354016 88.73828125 214.375 C88.50971436 215.42921143 88.28114746 216.48342285 88.0456543 217.56958008 C87.68274292 219.26763794 87.68274292 219.26763794 87.3125 221 C84.80063507 232.55489553 82.0986114 244.04768549 79.27270508 255.52929688 C78.99064209 256.68107422 78.7085791 257.83285156 78.41796875 259.01953125 C78.16813232 260.03120361 77.9182959 261.04287598 77.66088867 262.08520508 C76.98992668 265.04442755 76.46948976 268.00278849 76 271 C75.34 271 74.68 271 74 271 C73.67 271.99 73.34 272.98 73 274 C72.01 274.33 71.02 274.66 70 275 C70.99 275.66 71.98 276.32 73 277 C72.67 277.66 72.34 278.32 72 279 C69 279 69 279 66 277 C65.195625 276.87625 64.39125 276.7525 63.5625 276.625 C60.37052316 275.84646906 59.24592455 274.32078871 57 272 C56.01 272 55.02 272 54 272 C53 270.66666667 52 269.33333333 51 268 C50.01 268 49.02 268 48 268 C46.65210653 267.01971384 45.31787285 266.02028865 44 265 C43.34 265 42.68 265 42 265 C41.67 264.01 41.34 263.02 41 262 C40.01 262 39.02 262 38 262 C34.16868426 260.39781342 31.14505255 257.88546352 27.90234375 255.33984375 C25.9370042 253.81914723 25.9370042 253.81914723 23 253 C22.67 252.34 22.34 251.68 22 251 C20.68 251 19.36 251 18 251 C17.67 251.66 17.34 252.32 17 253 C16.71125 252.21625 16.4225 251.4325 16.125 250.625 C15.15087746 247.90328368 15.15087746 247.90328368 13 246 C12.01 246 11.02 246 10 246 C8.515 245.01 8.515 245.01 7 244 C6.01 244 5.02 244 4 244 C3.34 242.02 2.68 240.04 2 238 C1.443125 238.268125 0.88625 238.53625 0.3125 238.8125 C-0.450625 238.874375 -1.21375 238.93625 -2 239 C-3.70779973 237.37550757 -5.37550757 235.70779973 -7 234 C-7.99 234 -8.98 234 -10 234 C-12.75383923 232.62308038 -13.51483101 230.63279958 -15 228 C-16.98 228.99 -16.98 228.99 -19 230 C-20.175625 229.0409375 -20.175625 229.0409375 -21.375 228.0625 C-23.79539281 226.01857687 -23.79539281 226.01857687 -26 225 C-26 224.01 -26 223.02 -26 222 C-26.99 222.33 -27.98 222.66 -29 223 C-29.33 222.01 -29.66 221.02 -30 220 C-30.99 220 -31.98 220 -33 220 C-33.99 219.67 -34.98 219.34 -36 219 C-36 218.01 -36 217.02 -36 216 C-36.99 216.33 -37.98 216.66 -39 217 C-39.66666667 215.66666667 -40.33333333 214.33333333 -41 213 C-41.99 213.33 -42.98 213.66 -44 214 C-44.66 213.01 -45.32 212.02 -46 211 C-46.99 211 -47.98 211 -49 211 C-49.33 210.01 -49.66 209.02 -50 208 C-50.99 208.33 -51.98 208.66 -53 209 C-53.33 207.68 -53.66 206.36 -54 205 C-54.99 205.33 -55.98 205.66 -57 206 C-57.721875 205.175 -58.44375 204.35 -59.1875 203.5 C-62.4371697 200.61140471 -62.92952056 200.89823801 -67 201 C-69.5625 199.125 -69.5625 199.125 -72 197 C-72.70125 196.649375 -73.4025 196.29875 -74.125 195.9375 C-76 195 -76 195 -77.5625 193.375 C-79.02978279 191.65438868 -79.02978279 191.65438868 -82 192 C-83.6875 190.5 -83.6875 190.5 -85 189 C-85.99 189.33 -86.98 189.66 -88 190 C-88.07010862 172.76259951 -88.12299723 155.52524357 -88.15543652 138.28773308 C-88.17089958 130.28389594 -88.19197834 122.28014743 -88.22631836 114.27636719 C-88.25623793 107.29954885 -88.27557908 100.32279472 -88.28226548 93.34591401 C-88.28617343 89.65234118 -88.29534582 85.958952 -88.31719017 82.26543808 C-88.3413892 78.14025506 -88.34196835 74.0153905 -88.34057617 69.89013672 C-88.351362 68.66806015 -88.36214783 67.44598358 -88.3732605 66.18687439 C-88.33519574 55.78153094 -88.33519574 55.78153094 -85 51 C-79.31972203 45.78028511 -72.48541119 42.00547957 -65.69140625 38.4296875 C-59.74669336 35.27182841 -54.04881865 31.7437949 -48.5 27.9375 C-44.65743069 25.33751901 -40.69329412 23.29030792 -36.5234375 21.26953125 C-31.10670653 18.5443957 -26.01154364 15.25157142 -20.8671875 12.05078125 C-4.85187389 2.11220011 -4.85187389 2.11220011 0 0 Z M57 45 C57.66 45.66 58.32 46.32 59 47 C59 46.34 59 45.68 59 45 C58.34 45 57.68 45 57 45 Z M85 60 C85.66 60.66 86.32 61.32 87 62 C87 61.34 87 60.68 87 60 C86.34 60 85.68 60 85 60 Z M87 63 C87.66 63.66 88.32 64.32 89 65 C89 64.34 89 63.68 89 63 C88.34 63 87.68 63 87 63 Z M102 70 C102.33 70.66 102.66 71.32 103 72 C103.33 71.34 103.66 70.68 104 70 C103.34 70 102.68 70 102 70 Z " fill="#6755D6" transform="translate(337,472)"/>
<path d="M0 0 C0.86753906 0.29003906 1.73507812 0.58007812 2.62890625 0.87890625 C8.69798559 3.09342527 13.76543015 6.25337537 19 10 C19.99 10.66 20.98 11.32 22 12 C22 7.71 22 3.42 22 -1 C34.87 -1 47.74 -1 61 -1 C61.09048746 20.77580723 61.16409064 42.55146092 61.20724869 64.32740879 C61.22782528 74.43961406 61.25585156 84.55169373 61.30175781 94.66381836 C61.34177631 103.48324754 61.3674684 112.3025857 61.37635398 121.12210315 C61.38154343 125.78682954 61.39363693 130.45129567 61.42292023 135.11593819 C61.45032729 139.51790143 61.45839464 143.91950036 61.45243073 148.32154083 C61.45351977 149.9262052 61.46132172 151.53088338 61.4768219 153.13547325 C61.6627849 173.40239694 55.91134406 193.57229154 41.75 208.75 C37.34395426 212.88811052 32.18698554 215.94338352 27 219 C25.89398437 219.67160156 24.78796875 220.34320312 23.6484375 221.03515625 C6.16951308 230.88893538 -20.87622848 231.15362945 -40.10864258 226.45532227 C-43.48789372 225.46966056 -46.72208221 224.28838897 -50 223 C-51.09441406 222.61585938 -52.18882813 222.23171875 -53.31640625 221.8359375 C-60.90449119 218.98677151 -67.52458796 214.84560604 -74 210 C-74.84510132 209.427052 -74.84510132 209.427052 -75.70727539 208.8425293 C-81.70999691 204.38010398 -84.00604952 198.45227274 -86.8125 191.6875 C-87.28880859 190.59759766 -87.76511719 189.50769531 -88.25585938 188.38476562 C-90.93188907 182.12564133 -92.48738835 176.80675243 -94 170 C-80.47 170 -66.94 170 -53 170 C-51.35 172.97 -49.7 175.94 -48 179 C-40.53668044 187.37348048 -31.91573856 190.75673025 -20.828125 191.39453125 C-11.50530132 191.67940684 -3.33644881 191.60521567 5 187 C6.65975032 186.31629603 8.32504345 185.64555617 10 185 C10 184.34 10 183.68 10 183 C11.375 181.375 11.375 181.375 13 180 C13.66 180 14.32 180 15 180 C15.268125 179.154375 15.53625 178.30875 15.8125 177.4375 C17 174 17 174 18.5 170.96875 C20.57603818 166.17207935 20.80295372 161.2238872 21.1875 156.0625 C21.26935547 155.09248047 21.35121094 154.12246094 21.43554688 153.12304688 C21.6343289 150.74935563 21.82219276 148.37533877 22 146 C21.16597656 146.53109375 20.33195312 147.0621875 19.47265625 147.609375 C6.2206413 155.96721356 -5.01159509 160.41414157 -20.9375 160.25 C-21.90824463 160.24178223 -22.87898926 160.23356445 -23.87915039 160.22509766 C-41.49875704 159.94939758 -55.88998273 154.50745967 -70 144 C-70.96292969 143.33097656 -70.96292969 143.33097656 -71.9453125 142.6484375 C-83.23666896 134.08801376 -93.72344307 116.55958778 -97 103 C-97.27714844 101.86304688 -97.55429688 100.72609375 -97.83984375 99.5546875 C-103.30971074 75.14827759 -99.14324052 52.3297845 -86 31 C-81.53207207 24.62998302 -76.5744465 18.30739598 -70 14 C-69.34 14 -68.68 14 -68 14 C-68 13.34 -68 12.68 -68 12 C-46.77280007 -0.44040736 -24.56365984 -8.6065154 0 0 Z " fill="#030303" transform="translate(2033,593)"/>
<path d="M0 0 C0.928125 0.70125 1.85625 1.4025 2.8125 2.125 C2.8125 -1.835 2.8125 -5.795 2.8125 -9.875 C15.6825 -9.875 28.5525 -9.875 41.8125 -9.875 C41.90306166 11.45784385 41.97663341 32.7905302 42.01974869 54.12351799 C42.04030677 64.03049515 42.068297 73.93734371 42.11425781 83.84423828 C42.15433369 92.48680532 42.17998179 101.12927915 42.18885398 109.77193654 C42.19403387 114.34118713 42.20606472 118.91017125 42.23542023 123.47933578 C42.26291872 127.79512875 42.27087687 132.11054986 42.26493073 136.42642212 C42.2660158 137.99596312 42.27376209 139.56551882 42.2893219 141.13498306 C42.49068788 162.52658345 37.70283478 182.01557349 22.8125 198.125 C22.24402344 198.74761719 21.67554688 199.37023437 21.08984375 200.01171875 C14.84470203 206.1196046 6.66635064 209.53697167 -1.1875 213.125 C-2.10535278 213.55002808 -2.10535278 213.55002808 -3.04174805 213.98364258 C-13.51520509 218.68288536 -24.97393427 218.3403884 -36.25 218.4375 C-37.42071045 218.45514404 -38.5914209 218.47278809 -39.79760742 218.4909668 C-61.30342234 218.47440649 -83.3944718 210.04585595 -98.7265625 194.8046875 C-101.86791314 191.38410569 -103.68946846 188.48560665 -105.1875 184.125 C-105.59226562 183.01640625 -105.99703125 181.9078125 -106.4140625 180.765625 C-107.29618585 178.32044098 -108.16369669 175.8699299 -109.015625 173.4140625 C-109.92520317 170.86117978 -110.8871667 168.40463043 -112 165.9375 C-113.1875 163.125 -113.1875 163.125 -113.1875 160.125 C-99.6575 160.125 -86.1275 160.125 -72.1875 160.125 C-71.1975 162.105 -70.2075 164.085 -69.1875 166.125 C-63.09572297 174.47249047 -56.33046442 179.07624361 -46.1875 181.125 C-42.74616305 181.44938687 -39.33025131 181.50616514 -35.875 181.5 C-34.94163818 181.49838867 -34.00827637 181.49677734 -33.04663086 181.49511719 C-26.40504781 181.37650711 -20.95320353 180.63508311 -15.1875 177.125 C-14.094375 176.485625 -13.00125 175.84625 -11.875 175.1875 C-6.19476574 170.82825045 -2.9994993 166.60856171 -0.1875 160.125 C0.16699219 159.41988281 0.52148438 158.71476563 0.88671875 157.98828125 C2.23972341 153.80367191 2.28095801 149.68589192 2.4375 145.3125 C2.47617188 144.42884766 2.51484375 143.54519531 2.5546875 142.63476562 C2.64850784 140.46517028 2.73157326 138.29511453 2.8125 136.125 C1.23662109 137.28322266 1.23662109 137.28322266 -0.37109375 138.46484375 C-5.03610203 141.78996514 -9.8677083 144.01896421 -15.1875 146.125 C-16.66089844 146.72054687 -16.66089844 146.72054687 -18.1640625 147.328125 C-37.34383546 153.95471322 -58.11064078 151.03453908 -76.08764648 142.47094727 C-87.66698521 136.59184218 -96.81219947 127.76806983 -104.1875 117.125 C-104.77015625 116.34253906 -105.3528125 115.56007813 -105.953125 114.75390625 C-115.55190546 101.04434372 -118.36610477 85.33141544 -118.375 68.9375 C-118.38724609 67.76896484 -118.39949219 66.60042969 -118.41210938 65.39648438 C-118.43019527 54.58714734 -117.17067188 45.10154524 -112.625 35.25 C-112.10099609 34.09890747 -112.10099609 34.09890747 -111.56640625 32.92456055 C-106.62148039 22.40892145 -100.52020447 13.24163758 -91.1875 6.125 C-90.12402344 5.25294922 -90.12402344 5.25294922 -89.0390625 4.36328125 C-62.74645386 -16.90144258 -28.07181067 -19.81869834 0 0 Z " fill="#020202" transform="translate(1119.1875,602.875)"/>
<path d="M0 0 C12.87 0 25.74 0 39 0 C39 27.39 39 54.78 39 83 C40.32 82.01 41.64 81.02 43 80 C43.66 80 44.32 80 45 80 C45 79.34 45 78.68 45 78 C60.54051459 66.81303382 77.19527812 64.74555318 95.77734375 67.66015625 C112.66626491 70.88577463 125.10069832 80.20162983 135 94 C142.67951106 105.60299958 144.16341305 121.0829246 144.11352539 134.61694336 C144.11367142 135.6615976 144.11381744 136.70625183 144.1139679 137.78256226 C144.11327401 141.21834424 144.10550616 144.65407129 144.09765625 148.08984375 C144.09579021 150.47880524 144.09436718 152.86776712 144.09336853 155.25672913 C144.089558 161.53175928 144.07974023 167.80676613 144.06866455 174.08178711 C144.05841893 180.49006841 144.05386416 186.89835349 144.04882812 193.30664062 C144.03811663 205.87110561 144.0205317 218.43554722 144 231 C131.13 231 118.26 231 105 231 C104.98541748 228.02307129 104.97083496 225.04614258 104.95581055 221.97900391 C104.9053721 212.12022551 104.83876064 202.26160353 104.76428509 192.4029789 C104.71964353 186.42833441 104.68037359 180.45375714 104.65356445 174.47900391 C104.62746968 168.70818673 104.58702334 162.93762908 104.53681374 157.16697311 C104.52018679 154.97031264 104.50864663 152.77360733 104.50238609 150.57689285 C104.49269967 147.48930188 104.4645858 144.40236865 104.43237305 141.31494141 C104.43380814 140.41582031 104.43524323 139.51669922 104.4367218 138.59033203 C104.2624227 126.70229306 100.47475065 118.59917681 92.25 110.1875 C83.24680874 104.12765973 72.17373036 103.62664176 61.6875 105.625 C52.95417467 108.88149419 47.32331553 114.99304165 42.87786865 123.02827454 C38.50482709 133.05942507 39.39480013 144.00767918 39.390625 154.73046875 C39.3756268 156.93436387 39.35889624 159.13824781 39.34051514 161.34211731 C39.29701377 167.1107335 39.2768807 172.8791981 39.26177979 178.64794922 C39.24214651 184.54729105 39.20018358 190.44647066 39.16015625 196.34570312 C39.08504046 207.89711264 39.03670287 219.44840451 39 231 C26.13 231 13.26 231 0 231 C0 154.77 0 78.54 0 0 Z " fill="#030303" transform="translate(1195,523)"/>
<path d="M0 0 C2.59889083 2.59889083 2.25037197 4.40228003 2.2861352 7.94345379 C2.28440223 8.78292459 2.28266927 9.62239538 2.28088379 10.48730469 C2.28682603 11.37625585 2.29276828 12.265207 2.29889059 13.18109608 C2.31631808 16.17805989 2.31928557 19.17486444 2.32226562 22.171875 C2.33151854 24.31355636 2.34156739 26.4552344 2.35235596 28.59690857 C2.37864904 34.42991888 2.39150363 40.2628831 2.40037727 46.09594345 C2.406234 49.74004489 2.4144429 53.38413367 2.42338562 57.02822876 C2.45075291 68.42884292 2.47007535 79.82942823 2.4777894 91.23007298 C2.48674301 104.39101193 2.52179584 117.55153463 2.57979059 130.71234703 C2.62304919 140.88231952 2.64319943 151.05217504 2.64587164 161.22223854 C2.64796677 167.29696254 2.65975971 173.37129572 2.69551086 179.44592285 C2.72851398 185.1653539 2.73276382 190.88410138 2.71523285 196.60359383 C2.71369404 198.69896337 2.72235229 200.79436994 2.74214935 202.88964653 C2.92835427 223.83170203 2.92835427 223.83170203 -4 231 C-7.5808063 233.91660601 -10.28410514 235 -15 235 C-16.125 230.25 -16.125 230.25 -15 228 C-16.9254644 226.8509288 -16.9254644 226.8509288 -19 227 C-20.34882408 227.63474075 -21.6846659 228.29848848 -23 229 C-23.33 228.01 -23.66 227.02 -24 226 C-24.495 225.525625 -24.99 225.05125 -25.5 224.5625 C-27.24185971 222.74806281 -27.57855013 221.44440923 -28 219 C-29.79199472 218.21717352 -29.79199472 218.21717352 -32 218 C-34.24755753 219.3516367 -34.24755753 219.3516367 -36 221 C-36.66 220.67 -37.32 220.34 -38 220 C-37 218 -37 218 -36 217 C-37.07429598 216.15504811 -38.15989202 215.32445142 -39.25 214.5 C-39.85328125 214.0359375 -40.4565625 213.571875 -41.078125 213.09375 C-43.21085595 211.67025581 -43.21085595 211.67025581 -47 212 C-47.66 212.99 -48.32 213.98 -49 215 C-49 214.34 -49 213.68 -49 213 C-49.66 213 -50.32 213 -51 213 C-51 212.34 -51 211.68 -51 211 C-51.66 210.67 -52.32 210.34 -53 210 C-53.66 209.34 -54.32 208.68 -55 208 C-57.57061311 207.35232207 -57.57061311 207.35232207 -60 207 C-59.67 205.35 -59.34 203.7 -59 202 C-61.64 201.34 -64.28 200.68 -67 200 C-66.67 199.01 -66.34 198.02 -66 197 C-67.65 197.33 -69.3 197.66 -71 198 C-71.33 196.68 -71.66 195.36 -72 194 C-73.32 194.33 -74.64 194.66 -76 195 C-76 194.01 -76 193.02 -76 192 C-76.5775 191.9175 -77.155 191.835 -77.75 191.75 C-80.60798931 190.7973369 -81.92954588 189.13946926 -84 187 C-86.32357511 186.81509993 -86.32357511 186.81509993 -89 189 C-91.94865641 186.89381685 -94.4837822 184.60608273 -97 182 C-96.34 181.34 -95.68 180.68 -95 180 C-99.95 180.99 -99.95 180.99 -105 182 C-103 178 -103 178 -102 177 C-102.66 176.34 -103.32 175.68 -104 175 C-106.19959601 175 -107.90200436 175.34437636 -110 176 C-110.66 176.66 -111.32 177.32 -112 178 C-112.66 177.34 -113.32 176.68 -114 176 C-114 173.37886292 -113.68707555 171.49064888 -113 169 C-116.465 169.99 -116.465 169.99 -120 171 C-121.5 169.625 -121.5 169.625 -123 168 C-123 167.34 -123 166.68 -123 166 C-124.9254644 164.8509288 -124.9254644 164.8509288 -127 165 C-127.99 165.33 -128.98 165.66 -130 166 C-130.33 164.68 -130.66 163.36 -131 162 C-130.34 161.67 -129.68 161.34 -129 161 C-129.78375 161.061875 -130.5675 161.12375 -131.375 161.1875 C-132.24125 161.125625 -133.1075 161.06375 -134 161 C-136 158 -136 158 -136 156 C-136.99 156.66 -137.98 157.32 -139 158 C-139.99 157.01 -139.99 157.01 -141 156 C-140.80034845 153.35057003 -140.2249941 152.23036389 -138.36328125 150.32421875 C-137.68652344 149.78410156 -137.00976562 149.24398437 -136.3125 148.6875 C-130.57494617 143.87738312 -130.57494617 143.87738312 -126 138 C-125.58481482 135.32587842 -125.58481482 135.32587842 -127 133 C-130.1695159 129.70629237 -133.48282252 126.56938096 -136.80615234 123.43188477 C-141.38585357 119.0921996 -145.93191281 114.71994348 -150.4554348 110.32174778 C-153.18357336 107.67192457 -155.92397231 105.03792456 -158.69677734 102.43481445 C-161.39448478 99.90108006 -164.05292797 97.3315053 -166.68919754 94.73396111 C-167.69287088 93.75778145 -168.70956183 92.7947865 -169.73954391 91.84640694 C-174.14934432 87.77283289 -177.694337 84.48634115 -178.4475708 78.35934448 C-178.13519727 72.80089583 -177.17474059 68.11579684 -175 63 C-174.64375905 61.25837758 -174.33223032 59.5071004 -174.0625 57.75 C-173.33073207 53.46229728 -172.25582201 49.56700911 -170.796875 45.48046875 C-169.17070837 40.41862655 -168.13122897 35.1908166 -167 30 C-159.875 37.125 -159.875 37.125 -157 41 C-155.92288165 42.2168044 -155.92288165 42.2168044 -153.625 42.875 C-151.07784155 43.96663933 -149.78589244 44.93212454 -148 47 C-147.01 46.01 -146.02 45.02 -145 44 C-144.01 44.33 -143.02 44.66 -142 45 C-142.66 45.99 -143.32 46.98 -144 48 C-141.18490007 50.2773501 -141.18490007 50.2773501 -138 50 C-136.31183067 51.64488294 -134.64646685 53.31337542 -133 55 C-131.08333333 56.16666667 -131.08333333 56.16666667 -129 57 C-119.20833333 61.79166667 -119.20833333 61.79166667 -116 65 C-115.34 65 -114.68 65 -114 65 C-113.505 64.01 -113.505 64.01 -113 63 C-109.62496331 64.1858237 -107.35277269 65.27573689 -105 68 C-105.66 68.66 -106.32 69.32 -107 70 C-105.68 70 -104.36 70 -103 70 C-101.32774271 70.30404678 -99.65919896 70.63128912 -98 71 C-98.66 71.99 -99.32 72.98 -100 74 C-99.401875 74.103125 -98.80375 74.20625 -98.1875 74.3125 C-95.69317133 75.09643187 -94.81478403 76.18521597 -93 78 C-92.01 78 -91.02 78 -90 78 C-88.3125 79.5 -88.3125 79.5 -87 81 C-86.67 80.34 -86.34 79.68 -86 79 C-85.34 79.33 -84.68 79.66 -84 80 C-83.375 82.0625 -83.375 82.0625 -83 84 C-82.01 84 -81.02 84 -80 84 C-78.31237149 85.6454378 -76.6459651 87.31288577 -75 89 C-73.515 89.495 -73.515 89.495 -72 90 C-72 90.66 -72 91.32 -72 92 C-67.60746227 93.56272189 -67.60746227 93.56272189 -63 94 C-62.34 95.32 -61.68 96.64 -61 98 C-60.01 96.515 -60.01 96.515 -59 95 C-57.35 95.66 -55.7 96.32 -54 97 C-54.66 97.99 -55.32 98.98 -56 100 C-55.0409375 100.185625 -55.0409375 100.185625 -54.0625 100.375 C-53.381875 100.58125 -52.70125 100.7875 -52 101 C-51.67 101.66 -51.34 102.32 -51 103 C-50.236875 102.814375 -49.47375 102.62875 -48.6875 102.4375 C-46 102 -46 102 -43 103 C-43.66 103.99 -44.32 104.98 -45 106 C-43.68 106 -42.36 106 -41 106 C-36.49156663 106.47457193 -33.54349815 108.19816425 -30 111 C-30 111.99 -30 112.98 -30 114 C-30.33 114.33 -30.66 114.66 -31 115 C-30.01 115 -29.02 115 -28 115 C-26 116 -26 116 -24.125 117.9375 C-22.13216036 119.87172671 -20.52696647 120.91701437 -18 122 C-17.01 121.34 -16.02 120.68 -15 120 C-15 121.66666667 -15 123.33333333 -15 125 C-14.443125 125.103125 -13.88625 125.20625 -13.3125 125.3125 C-10.54500362 126.13526919 -8.44366026 127.47271234 -6 129 C-4.67391178 129.68096422 -3.34313399 130.35330586 -2 131 C0.21909158 127.67136263 0.24810087 126.65549204 0.24050903 122.77986145 C0.24325836 121.69872574 0.24600769 120.61759003 0.24884033 119.50369263 C0.24164978 118.31758392 0.23445923 117.13147522 0.22705078 115.90942383 C0.22734283 114.66052872 0.22763489 113.41163361 0.22793579 112.12489319 C0.22678024 108.69946595 0.21674185 105.27427905 0.20278788 101.84889436 C0.19029513 98.26944323 0.18911117 94.68998898 0.18673706 91.11051941 C0.180518 84.33197224 0.16410144 77.5534895 0.14403808 70.77497071 C0.12169231 63.05800746 0.11068898 55.34104114 0.10064721 47.6240536 C0.07973557 31.74933174 0.04455134 15.87467417 0 0 Z M-165 37 C-164.34 37.66 -163.68 38.32 -163 39 C-163 38.34 -163 37.68 -163 37 C-163.66 37 -164.32 37 -165 37 Z M-162 39 C-161.34 39.66 -160.68 40.32 -160 41 C-160 40.34 -160 39.68 -160 39 C-160.66 39 -161.32 39 -162 39 Z M-84 192 C-83.01 192.495 -83.01 192.495 -82 193 C-82.99 193.495 -82.99 193.495 -84 194 C-84 193.34 -84 192.68 -84 192 Z M-64 202 C-63.01 202.495 -63.01 202.495 -62 203 C-62.33 203.66 -62.66 204.32 -63 205 C-63.33 204.01 -63.66 203.02 -64 202 Z " fill="#6D49DB" transform="translate(641,528)"/>
<path d="M0 0 C0.99 0.31839844 1.98 0.63679688 3 0.96484375 C2.57556876 6.61648076 1.93775091 11.60753242 0 16.96484375 C-1.51804054 22.98033242 -2.61124663 29.09509461 -3.75073242 35.19067383 C-8.90195671 62.72363522 -8.90195671 62.72363522 -12.05078125 70.58984375 C-12.99739972 72.9583377 -13.53644347 75.14831073 -14 77.65234375 C-14.49750792 80.30571931 -14.99713177 82.95164203 -15.5703125 85.58984375 C-15.84488281 86.85828125 -15.84488281 86.85828125 -16.125 88.15234375 C-16.29257812 88.90902344 -16.46015625 89.66570312 -16.6328125 90.4453125 C-17.61554678 96.77917713 -17.61554678 96.77917713 -15.28730774 102.51931763 C-14.08415169 103.69915726 -14.08415169 103.69915726 -12.85668945 104.90283203 C-11.95187332 105.80711945 -11.04705719 106.71140686 -10.11482239 107.64309692 C-9.1146647 108.60748607 -8.11414185 109.57149662 -7.11328125 110.53515625 C-6.09240198 111.54296131 -5.07307091 112.55233683 -4.05522156 113.5632019 C-1.37451745 116.21723372 1.32650825 118.84960066 4.03240967 121.47790527 C6.77039366 124.14450398 9.48890856 126.83078271 12.20898438 129.515625 C17.00804942 134.24779319 21.82382724 138.96224777 26.65238953 143.66433716 C27.42710098 144.42350433 28.20181244 145.18267151 29 145.96484375 C29.90180496 146.83478973 30.80360992 147.70473572 31.73274231 148.6010437 C34 150.96484375 34 150.96484375 35.06640625 153.46484375 C34.96985236 157.09981355 33.42316532 158.37813512 30.9375 160.96484375 C30.10992187 161.83238281 29.28234375 162.69992187 28.4296875 163.59375 C25.72838935 166.2299043 22.93792169 168.60017507 20 170.96484375 C19.34 171.95484375 18.68 172.94484375 18 173.96484375 C17.34 173.96484375 16.68 173.96484375 16 173.96484375 C15.773125 174.52171875 15.54625 175.07859375 15.3125 175.65234375 C13.65020462 178.5811499 11.38793582 180.63105663 9 182.96484375 C7.56148225 184.39570543 6.12428192 185.82789211 4.68798828 187.26098633 C3.8700882 188.07565872 3.05218811 188.89033112 2.20950317 189.72969055 C-1.020564 192.9481232 -4.24875502 196.16843348 -7.47633171 199.38936329 C-9.91697605 201.82479532 -12.35854726 204.25928293 -14.80224609 206.69165039 C-17.6392218 209.51556494 -20.47203458 212.34362426 -23.3046875 215.171875 C-24.17157196 216.03359818 -25.03845642 216.89532135 -25.93161011 217.78315735 C-30.27872603 222.1298749 -34.4854179 226.53181748 -38.47390747 231.21122742 C-42.96057591 236.36680934 -47.97192146 240.90531393 -53.203125 245.2890625 C-55.09165581 246.94446233 -55.09165581 246.94446233 -56.609375 249.171875 C-57.06828125 249.76355469 -57.5271875 250.35523438 -58 250.96484375 C-58.66 250.96484375 -59.32 250.96484375 -60 250.96484375 C-60.33 251.95484375 -60.66 252.94484375 -61 253.96484375 C-61.66 253.96484375 -62.32 253.96484375 -63 253.96484375 C-63.268125 254.58359375 -63.53625 255.20234375 -63.8125 255.83984375 C-65 257.96484375 -65 257.96484375 -68 259.96484375 C-72.54054054 259.42430321 -72.54054054 259.42430321 -74 257.96484375 C-73.6619832 253.48612112 -72.87900433 249.30766155 -71.75 244.96484375 C-70.49849196 240.14355803 -69.44137956 235.31096443 -68.45922852 230.42993164 C-65.70779306 216.76013802 -62.4585626 203.23177538 -59.12255859 189.69555664 C-58.93280457 188.92553818 -58.74305054 188.15551971 -58.54754639 187.36216736 C-58.17988163 185.87089414 -57.81177132 184.37973069 -57.44317627 182.88868713 C-56.51006429 179.09957304 -55.61668811 175.30654815 -54.79296875 171.4921875 C-54 167.96484375 -54 167.96484375 -53 165.96484375 C-52.24616662 163.18039798 -52.24616662 163.18039798 -53 159.96484375 C-55.40916261 157.31008689 -58.19679648 155.18753311 -61 152.96484375 C-62.68615782 151.3178989 -64.35570171 149.65358254 -66 147.96484375 C-68.79267443 145.16226622 -71.59754904 142.37238422 -74.41015625 139.58984375 C-75.6276435 138.38155004 -76.84509074 137.17321603 -78.0625 135.96484375 C-78.67416016 135.3615625 -79.28582031 134.75828125 -79.91601562 134.13671875 C-83.18223247 130.88815713 -86.13426239 127.57816508 -89 123.96484375 C-90.1976143 122.84672847 -91.42687366 121.76140146 -92.6875 120.71484375 C-95.85293059 117.98458535 -98.96598591 115.21618466 -102 112.33984375 C-102.763125 111.62570312 -103.52625 110.9115625 -104.3125 110.17578125 C-106 107.96484375 -106 107.96484375 -106.52758789 105.77709961 C-105.67564781 101.23591599 -102.50223131 98.87494749 -99.24609375 95.7578125 C-98.55242203 95.07358719 -97.85875031 94.38936188 -97.14405823 93.68440247 C-94.92002211 91.4949686 -92.67961703 89.32324427 -90.4375 87.15234375 C-88.2238133 84.98889675 -86.01370541 82.82189188 -83.80592346 80.65242004 C-82.43211015 79.30464309 -81.05437195 77.96085038 -79.67198181 76.62187195 C-75.74257859 72.79199658 -72.04506032 68.83705327 -68.47055054 64.67329407 C-66.77444557 62.70280003 -65.01510926 60.81385358 -63.1875 58.96484375 C-62.62417969 58.38734375 -62.06085938 57.80984375 -61.48046875 57.21484375 C-60 55.96484375 -60 55.96484375 -58 55.96484375 C-57.73678955 55.3711499 -57.4735791 54.77745605 -57.20239258 54.16577148 C-55.94408979 51.86250251 -54.69531066 50.50812985 -52.76171875 48.75 C-52.11259521 48.1526001 -51.46347168 47.5552002 -50.79467773 46.93969727 C-50.09930908 46.30862061 -49.40394043 45.67754395 -48.6875 45.02734375 C-47.2328303 43.68526611 -45.77972896 42.34148673 -44.328125 40.99609375 C-43.60044922 40.32191406 -42.87277344 39.64773438 -42.12304688 38.953125 C-39.00521187 36.03320225 -35.95919099 33.04632592 -32.9375 30.02734375 C-32.43887451 29.53306885 -31.94024902 29.03879395 -31.42651367 28.52954102 C-28.07973131 25.17046047 -24.95832088 21.65191825 -21.84985352 18.07250977 C-18.65316219 14.4302983 -15.35657 10.89716328 -12 7.40234375 C-11.32710938 6.66693359 -10.65421875 5.93152344 -9.9609375 5.17382812 C-4.35362844 -0.61209213 -4.35362844 -0.61209213 0 0 Z " fill="#FDFDFE" transform="translate(481,510.03515625)"/>
<path d="M0 0 C1.32 0.66 2.64 1.32 4 2 C4.99 1.34 5.98 0.68 7 0 C7 0.99 7 1.98 7 3 C9.35953094 5.35953094 10.77895617 5.49141413 14 6 C13.34 7.32 12.68 8.64 12 10 C13.65 9.34 15.3 8.68 17 8 C18.65 10.31 20.3 12.62 22 15 C24.31 14.34 26.62 13.68 29 13 C29 15.62113708 28.68707555 17.50935112 28 20 C31.67735605 21.22578535 32.55066523 20.46596728 36 19 C36.99 19 37.98 19 39 19 C39.99 20.98 39.99 20.98 41 23 C40.01 23.99 39.02 24.98 38 26 C39.6396875 25.7525 39.6396875 25.7525 41.3125 25.5 C45 25 45 25 48 25 C47.01 26.485 47.01 26.485 46 28 C50.09947304 31.13706517 50.09947304 31.13706517 55 32 C55.99 31.34 56.98 30.68 58 30 C58.5878125 31.2375 58.5878125 31.2375 59.1875 32.5 C59.785625 33.325 60.38375 34.15 61 35 C63.62694422 35.41780879 63.62694422 35.41780879 66 35 C66 35.99 66 36.98 66 38 C68.94729537 39.15811388 68.94729537 39.15811388 72 39 C72.33 39.99 72.66 40.98 73 42 C74.32 42 75.64 42 77 42 C77 42.99 77 43.98 77 45 C79.97 45.495 79.97 45.495 83 46 C83.2165625 46.9590625 83.2165625 46.9590625 83.4375 47.9375 C83.81007181 49.97545146 83.81007181 49.97545146 85 51 C85.825 51.433125 86.65 51.86625 87.5 52.3125 C90 54 90 54 90.8125 56.1875 C90.874375 56.785625 90.93625 57.38375 91 58 C91.9075 57.62875 92.815 57.2575 93.75 56.875 C97 56 97 56 99 56.625 C99.99 57.305625 99.99 57.305625 101 58 C102.0725 58.70125 103.145 59.4025 104.25 60.125 C105.1575 60.74375 106.065 61.3625 107 62 C106.01 62.99 105.02 63.98 104 65 C106.96175123 64.38722388 108.38058783 63.74627478 111 62 C113.5 63.25 113.5 63.25 116 65 C116 66.32 116 67.64 116 69 C117.22954016 70.81299492 117.22954016 70.81299492 119 72 C122.18490007 72.2773501 122.18490007 72.2773501 125 70 C126.07525194 72.65228812 127.09456151 75.28368454 128 78 C127.67 78.66 127.34 79.32 127 80 C127.99 80.33 128.98 80.66 130 81 C128.10416667 82.08333333 126.20833333 83.16666667 124.3125 84.25 C123.68947998 84.60642578 123.06645996 84.96285156 122.42456055 85.33007812 C118.73474371 87.44033021 115.04163789 89.54454498 111.34375 91.640625 C101.0263376 97.49843678 90.77278332 103.45790921 80.5625 109.5 C79.97828278 109.84506592 79.39406555 110.19013184 78.79214478 110.5456543 C77.11158541 111.53891554 75.43271907 112.53503958 73.75390625 113.53125 C72.78783447 114.10423828 71.8217627 114.67722656 70.82641602 115.26757812 C68.83767544 116.48655568 66.87723939 117.75232843 64.93945312 119.05078125 C62.40915981 120.72867675 59.88905964 122.22555145 57.21484375 123.65625 C56.35439453 124.12160156 55.49394531 124.58695313 54.60742188 125.06640625 C52.82444113 126.02376387 51.04058252 126.9794883 49.25585938 127.93359375 C44.812997 130.34000533 40.94078954 132.82099877 37 136 C34.67843403 136.40729228 32.3431213 136.74438677 30 137 C29.319375 137.4125 28.63875 137.825 27.9375 138.25 C26 139 26 139 23.1875 137.875 C22.135625 137.25625 21.08375 136.6375 20 136 C19.05640625 135.49146484 19.05640625 135.49146484 18.09375 134.97265625 C13.14178973 132.28357947 13.14178973 132.28357947 12 130 C11.34 129.835 10.68 129.67 10 129.5 C9.34 129.335 8.68 129.17 8 129 C7.67 128.34 7.34 127.68 7 127 C6.360625 126.9175 5.72125 126.835 5.0625 126.75 C4.381875 126.5025 3.70125 126.255 3 126 C1.8125 123 1.8125 123 1 120 C0.67 119.67 0.34 119.34 0 119 C-0.495 120.485 -0.495 120.485 -1 122 C-6.16933817 121.35383273 -8.33403022 119.1390993 -11.9375 115.59375 C-14.31964476 113.75300177 -16.0594357 113.4464223 -19 113 C-20.875 111.75 -20.875 111.75 -23 110 C-24.17852905 109.09239717 -25.36680446 108.19736484 -26.5625 107.3125 C-27.14128906 106.87550781 -27.72007812 106.43851563 -28.31640625 105.98828125 C-30.10582734 104.74688354 -30.10582734 104.74688354 -33 105 C-33.33 104.34 -33.66 103.68 -34 103 C-37.76010972 98.67666182 -37.76010972 98.67666182 -43 97 C-43.99 97 -44.98 97 -46 97 C-47.33333333 95.66666667 -48.66666667 94.33333333 -50 93 C-50.99 93 -51.98 93 -53 93 C-55.5548568 91.65870018 -57.61912163 90.39552754 -59.625 88.3125 C-61.04486722 86.65476213 -61.04486722 86.65476213 -64 87 C-64.66 85.68 -65.32 84.36 -66 83 C-66.99 83 -67.98 83 -69 83 C-70.33333333 81.66666667 -71.66666667 80.33333333 -73 79 C-73.99 79 -74.98 79 -76 79 C-75.42667654 75.35818477 -74.06870972 73.71572695 -71.4375 71.1875 C-70.47650391 70.24970703 -70.47650391 70.24970703 -69.49609375 69.29296875 C-67.4047454 67.37180837 -65.27851679 65.51803896 -63.125 63.66796875 C-59.33622935 60.3641397 -55.94272888 56.83869362 -52.5625 53.125 C-43.89495719 43.75361174 -34.84914437 34.76309079 -25.8125 25.75 C-25.07218536 25.01154846 -24.33187073 24.27309692 -23.56912231 23.51226807 C-20.16236661 20.11526978 -16.7538235 16.72007991 -13.34301758 13.32714844 C-10.55742504 10.55600221 -7.77701173 7.77974891 -5 5 C-3.33333333 3.33333333 -1.66666667 1.66666667 0 0 Z M7 6 C8 8 8 8 8 8 Z M47 31 C48 33 48 33 48 33 Z M58 37 C58.33 37.66 58.66 38.32 59 39 C59.33 38.34 59.66 37.68 60 37 C59.34 37 58.68 37 58 37 Z M78 47 C78.33 47.99 78.66 48.98 79 50 C79 49.01 79 48.02 79 47 C78.67 47 78.34 47 78 47 Z " fill="#6755D6" transform="translate(499,683)"/>
<path d="M0 0 C13.53 0 27.06 0 41 0 C41 63.36 41 126.72 41 192 C74.66 192 108.32 192 143 192 C143 204.87 143 217.74 143 231 C95.81 231 48.62 231 0 231 C0 154.77 0 78.54 0 0 Z " fill="#050505" transform="translate(759,523)"/>
<path d="M0 0 C0.99 0.495 0.99 0.495 2 1 C-1.75 4 -1.75 4 -4 4 C-3.505 7.96 -3.505 7.96 -3 12 C-3.99 12.66 -4.98 13.32 -6 14 C-5.01 13.67 -4.02 13.34 -3 13 C-2.01 15.475 -2.01 15.475 -1 18 C-0.01 18 0.98 18 2 18 C5.39093457 19.13031152 5.53808707 19.53808707 8 22 C10.08333333 21.83333333 10.08333333 21.83333333 12 21 C12.33 20.34 12.66 19.68 13 19 C14.65 19.33 16.3 19.66 18 20 C18 20.66 18 21.32 18 22 C18.969375 22.28875 19.93875 22.5775 20.9375 22.875 C24 24 24 24 25 26 C25.99 24.515 25.99 24.515 27 23 C28.31669304 23.65834652 29.6293548 24.32482829 30.9375 25 C33.1118245 26.10912994 33.1118245 26.10912994 36 27 C35.01 28.485 35.01 28.485 34 30 C35.32 30 36.64 30 38 30 C39.67225729 30.30404678 41.34080104 30.63128912 43 31 C42.34 31.99 41.68 32.98 41 34 C41.556875 34.061875 42.11375 34.12375 42.6875 34.1875 C45.9251338 35.32504701 47.59171152 37.59171152 50 40 C52.58498512 41.26847685 52.58498512 41.26847685 55 42 C55.66 42.33 56.32 42.66 57 43 C57.33 42.34 57.66 41.68 58 41 C59.27502723 41.63751362 60.54632463 42.2825817 61.8125 42.9375 C64.16732053 44.08126997 66.56081908 45.05142964 69 46 C69 46.99 69 47.98 69 49 C70.05270463 50.15811388 70.05270463 50.15811388 72 51 C73.678298 52.31866272 75.34614767 53.65080468 77 55 C77.33 54.34 77.66 53.68 78 53 C79.31669304 53.65834652 80.6293548 54.32482829 81.9375 55 C84.1118245 56.10912994 84.1118245 56.10912994 87 57 C87 57.66 87 58.32 87 59 C87.66 59.66 88.32 60.32 89 61 C89.474375 61.53625 89.94875 62.0725 90.4375 62.625 C92.02846455 64.33031395 92.02846455 64.33031395 95 64 C96.6875 65.5 96.6875 65.5 98 67 C98.33 66.34 98.66 65.68 99 65 C100.65 65.66 102.3 66.32 104 67 C104 67.66 104 68.32 104 69 C104.99 69.66 105.98 70.32 107 71 C103.69237458 78.90558824 95.31218065 84.9101122 88.88671875 90.33203125 C86.48527227 92.45504915 84.25432889 94.72172528 82 97 C81.19820312 97.79019531 80.39640625 98.58039063 79.5703125 99.39453125 C78.35988281 100.59142578 78.35988281 100.59142578 77.125 101.8125 C76.32320312 102.60269531 75.52140625 103.39289063 74.6953125 104.20703125 C72.67376581 106.30182239 70.76618278 108.40582909 68.87109375 110.609375 C64.5657096 115.56675401 60.01472984 120.27810651 55.40209961 124.94799805 C54.4185403 125.94828065 53.44040052 126.95391875 52.4675293 127.96459961 C51.04116055 129.44576455 49.59899 130.90975978 48.15234375 132.37109375 C47.30663818 133.23661865 46.46093262 134.10214355 45.58959961 134.99389648 C41.52853766 138.13990818 38.01034861 138 33 138 C32.34 137.34 31.68 136.68 31 136 C31 134 31 134 33 132 C32.01 132.33 31.02 132.66 30 133 C27 133 27 133 25.0625 131.4375 C23.10441765 129.72587784 23.10441765 129.72587784 20.75 130.3125 C20.1725 130.539375 19.595 130.76625 19 131 C18.67 130.34 18.34 129.68 18 129 C18.99 127.68 19.98 126.36 21 125 C19.35 125.66 17.7 126.32 16 127 C15.67 126.01 15.34 125.02 15 124 C14.38125 123.690625 13.7625 123.38125 13.125 123.0625 C11 122 11 122 9.6875 119.9375 C7.21864972 117.10289412 4.63474509 117.51013966 1 117 C-1.25 114.9375 -1.25 114.9375 -3 113 C-3.99 113 -4.98 113 -6 113 C-8 111 -8 111 -9 109 C-10.175625 109.309375 -10.175625 109.309375 -11.375 109.625 C-12.24125 109.74875 -13.1075 109.8725 -14 110 C-14.66 109.34 -15.32 108.68 -16 108 C-15.625 105.875 -15.625 105.875 -15 104 C-16.485 104.495 -16.485 104.495 -18 105 C-19.32 105 -20.64 105 -22 105 C-24 103 -24 103 -25 100 C-26.98 100.495 -26.98 100.495 -29 101 C-29 100.01 -29 99.02 -29 98 C-29.99 97.67 -30.98 97.34 -32 97 C-32.99 96.01 -32.99 96.01 -34 95 C-34 94.01 -34 93.02 -34 92 C-35.98 93.32 -37.96 94.64 -40 96 C-40.99 95.34 -41.98 94.68 -43 94 C-43 93.34 -43 92.68 -43 92 C-43.33 91.34 -43.66 90.68 -44 90 C-43.34 89.34 -42.68 88.68 -42 88 C-44.97 88.99 -44.97 88.99 -48 90 C-48.226875 89.401875 -48.45375 88.80375 -48.6875 88.1875 C-50.34703745 85.42160425 -52.20498395 84.53725883 -55 83 C-55.99 82.01 -55.99 82.01 -57 81 C-59.32357511 80.81509993 -59.32357511 80.81509993 -62 83 C-62.66 82.34 -63.32 81.68 -64 81 C-63.979375 80.175 -63.95875 79.35 -63.9375 78.5 C-63.958125 77.675 -63.97875 76.85 -64 76 C-65.485 75.01 -65.485 75.01 -67 74 C-68.32 75.32 -69.64 76.64 -71 78 C-71.66 76.68 -72.32 75.36 -73 74 C-72.01 73.01 -72.01 73.01 -71 72 C-72.98 72.99 -74.96 73.98 -77 75 C-77.66 74.34 -78.32 73.68 -79 73 C-79.66 72.67 -80.32 72.34 -81 72 C-80.34 70.68 -79.68 69.36 -79 68 C-82.04200046 68 -84.99532806 68.55486342 -88 69 C-88.08188486 67.12574652 -88.13958757 65.25042946 -88.1875 63.375 C-88.22230469 62.33085938 -88.25710937 61.28671875 -88.29296875 60.2109375 C-87.8465344 55.31801708 -86.30637189 52.20044985 -82.6875 48.875 C-77.17848505 45.0315012 -71.63652125 41.5586954 -65.69140625 38.4296875 C-59.74669336 35.27182841 -54.04881865 31.7437949 -48.5 27.9375 C-44.65743069 25.33751901 -40.69329412 23.29030792 -36.5234375 21.26953125 C-31.10670653 18.5443957 -26.01154364 15.25157142 -20.8671875 12.05078125 C-4.85187389 2.11220011 -4.85187389 2.11220011 0 0 Z M57 45 C57.66 45.66 58.32 46.32 59 47 C59 46.34 59 45.68 59 45 C58.34 45 57.68 45 57 45 Z M85 60 C85.66 60.66 86.32 61.32 87 62 C87 61.34 87 60.68 87 60 C86.34 60 85.68 60 85 60 Z M87 63 C87.66 63.66 88.32 64.32 89 65 C89 64.34 89 63.68 89 63 C88.34 63 87.68 63 87 63 Z M102 70 C102.33 70.66 102.66 71.32 103 72 C103.33 71.34 103.66 70.68 104 70 C103.34 70 102.68 70 102 70 Z M-36 96 C-35.01 96.495 -35.01 96.495 -34 97 C-34.99 97.495 -34.99 97.495 -36 98 C-36 97.34 -36 96.68 -36 96 Z M-19 105 C-18.67 105.66 -18.34 106.32 -18 107 C-18.66 106.67 -19.32 106.34 -20 106 C-19.67 105.67 -19.34 105.34 -19 105 Z M0 117 C0.33 117.66 0.66 118.32 1 119 C0.34 118.67 -0.32 118.34 -1 118 C-0.67 117.67 -0.34 117.34 0 117 Z M12 124 C12 127 12 127 12 127 Z " fill="#6C49DA" transform="translate(337,472)"/>
<path d="M0 0 C6.99276005 -0.04598819 13.98499226 -0.08579171 20.9777832 -0.10986328 C23.35507997 -0.11990158 25.73236445 -0.13353504 28.10961914 -0.15087891 C31.53274576 -0.17522241 34.95570866 -0.18650505 38.37890625 -0.1953125 C39.43646622 -0.20563507 40.49402618 -0.21595764 41.58363342 -0.22659302 C47.1498436 -0.22743343 51.74027963 0.16363211 57 2 C57.90621094 2.21398437 58.81242187 2.42796875 59.74609375 2.6484375 C75.41803882 6.87918029 88.41442315 19.39149468 96.796875 32.89453125 C105.32036353 48.65454592 105.55646837 63.96318149 105.390625 81.43359375 C105.38314948 83.76627616 105.37746276 86.09896491 105.37347412 88.43165588 C105.35832107 94.5226119 105.31912978 100.61317642 105.2746582 106.70397949 C105.23348093 112.93866686 105.21541546 119.17341849 105.1953125 125.40820312 C105.15262422 137.60566699 105.08236041 149.80273944 105 162 C92.13 162 79.26 162 66 162 C65.970271 157.93570679 65.970271 157.93570679 65.93994141 153.78930664 C65.87290328 144.81663222 65.79526584 135.84407176 65.71247292 126.87152958 C65.66262045 121.43382866 65.61628964 115.99614612 65.578125 110.55834961 C65.54113238 105.30628765 65.49473498 100.05438381 65.44193649 94.80245781 C65.42346663 92.80313338 65.40833161 90.80377514 65.39665604 88.80439949 C65.37966626 85.99451787 65.35060153 83.18499256 65.31884766 80.37524414 C65.31668747 79.55668442 65.31452728 78.73812469 65.31230164 77.89476013 C65.15047267 66.61578479 62.12589928 57.93936558 54.55859375 49.3671875 C39.51465615 35.73763719 19.04509611 39.52903045 0 39 C0 79.92 0 120.84 0 163 C-12.87 163 -25.74 163 -39 163 C-39 122.08 -39 81.16 -39 39 C-26.46 38.67 -13.92 38.34 -1 38 C-0.67 25.46 -0.34 12.92 0 0 Z " fill="#030303" transform="translate(1540,593)"/>
<path d="M0 0 C0 17.82 0 35.64 0 54 C13.86 54 27.72 54 42 54 C42 65.55 42 77.1 42 89 C28.14 89 14.28 89 0 89 C0.09085721 102.33707566 0.09085721 102.33707566 0.20898438 115.67382812 C0.26323746 121.11626555 0.31435026 126.55860155 0.34643555 132.0012207 C0.37251502 136.39100752 0.41295006 140.78045228 0.46318626 145.17002678 C0.47982364 146.84164094 0.49135737 148.51331422 0.49761391 150.18499947 C0.50728932 152.53328116 0.53538814 154.88069392 0.56762695 157.22875977 C0.56619186 157.91424896 0.56475677 158.59973816 0.5632782 159.30599976 C0.65946717 164.2856913 1.88592896 167.59170946 4 172 C4.33 172.99 4.66 173.98 5 175 C6.83284443 176.12516085 6.83284443 176.12516085 9 177 C9.88316895 177.51119385 9.88316895 177.51119385 10.78417969 178.03271484 C13.50377857 179.21991744 15.67800379 179.31951076 18.640625 179.4140625 C19.60516602 179.44967285 20.56970703 179.4852832 21.56347656 179.52197266 C23.38830566 179.57297119 23.38830566 179.57297119 25.25 179.625 C29.1275 179.74875 33.005 179.8725 37 180 C37 191.55 37 203.1 37 215 C20.57477531 217.34646067 4.18277441 217.29941077 -11 210 C-11.66773438 209.70222656 -12.33546875 209.40445313 -13.0234375 209.09765625 C-17.56244397 206.99688932 -20.63367299 204.78711789 -24 201 C-24.6290625 200.36191406 -25.258125 199.72382812 -25.90625 199.06640625 C-39.02044893 185.34053759 -39.30222349 169.77163386 -39.1953125 151.8671875 C-39.19157639 150.02060093 -39.18873224 148.17401237 -39.18673706 146.3274231 C-39.1791477 141.49746097 -39.1595402 136.66762158 -39.1373291 131.83770752 C-39.11676882 126.89703023 -39.10771369 121.95633286 -39.09765625 117.015625 C-39.07628933 107.34368775 -39.04114613 97.67187335 -39 88 C-49.23 88 -59.46 88 -70 88 C-70 76.78 -70 65.56 -70 54 C-58.78 54 -47.56 54 -36 54 C-36 40.47 -36 26.94 -36 13 C-19.79541522 6.51816609 -19.79541522 6.51816609 -11.6015625 3.87890625 C-9.29799503 3.100674 -7.0970536 2.23300725 -4.875 1.25 C-2 0 -2 0 0 0 Z " fill="#030303" transform="translate(1426,539)"/>
<path d="M0 0 C2.31 0.33 4.62 0.66 7 1 C7.68707555 3.49064888 8 5.37886292 8 8 C8.66 8 9.32 8 10 8 C10.66 7.34 11.32 6.68 12 6 C16.875 10.625 16.875 10.625 18 14 C18.99 14 19.98 14 21 14 C22.8590123 15.57301041 23.90809958 16.81619917 25 19 C25.78375 18.67 26.5675 18.34 27.375 18 C30 17 30 17 32 17 C32.495 19.475 32.495 19.475 33 22 C33.66 21.67 34.32 21.34 35 21 C35.99 22.65 36.98 24.3 38 26 C38.5775 25.79375 39.155 25.5875 39.75 25.375 C42.57183574 24.90469404 43.66883683 25.39230126 46 27 C46.495 28.485 46.495 28.485 47 30 C47.515625 30.515625 48.03125 31.03125 48.5625 31.5625 C49.036875 32.036875 49.51125 32.51125 50 33 C50 33.66 50 34.32 50 35 C50.66 34.34 51.32 33.68 52 33 C52.66 33 53.32 33 54 33 C54 32.01 54 31.02 54 30 C54.55429687 30.32613281 55.10859375 30.65226563 55.6796875 30.98828125 C58.34928201 32.15229636 60.22597383 32.23509595 63.125 32.1875 C63.99382812 32.18105469 64.86265625 32.17460938 65.7578125 32.16796875 C68.0364545 32.1397507 68.0364545 32.1397507 70 31 C70.495 32.485 70.495 32.485 71 34 C71.66 33.67 72.32 33.34 73 33 C75.56687367 36.8503105 74.83288724 38.58569763 74 43 C73.01 41.68 72.02 40.36 71 39 C70.21625 39.185625 69.4325 39.37125 68.625 39.5625 C66 40 66 40 64 39 C65.26941497 42.91402949 66.51167694 44.79072873 70 47 C69.67 46.01 69.34 45.02 69 44 C74.05720042 45.26430011 75.88604915 46.91965061 79 51 C79.99 51 80.98 51 82 51 C82.33 49.35 82.66 47.7 83 46 C84.4606285 48.64738916 85 49.89448334 85 53 C84.67 53.33 84.34 53.66 84 54 C84.5775 53.773125 85.155 53.54625 85.75 53.3125 C88 53 88 53 90.25 54.4375 C90.8275 54.953125 91.405 55.46875 92 56 C92.99 55.01 92.99 55.01 94 54 C92.515 53.505 92.515 53.505 91 53 C91 52.34 91 51.68 91 51 C89.515 51.495 89.515 51.495 88 52 C87 51 87 51 86.9375 48.4375 C86.958125 47.633125 86.97875 46.82875 87 46 C89.375 45.875 89.375 45.875 92 46 C92.66 46.66 93.32 47.32 94 48 C94.66 48 95.32 48 96 48 C97.28317892 51.84953676 97.06643637 54.94738135 97 59 C97.99 59 98.98 59 100 59 C100 59.66 100 60.32 100 61 C102.89186786 62.33304698 102.89186786 62.33304698 105.1875 61.0625 C105.785625 60.711875 106.38375 60.36125 107 60 C107.226875 60.639375 107.45375 61.27875 107.6875 61.9375 C108.80962029 64.15727832 108.80962029 64.15727832 111 64.75 C115.33616899 65.11134742 119.65179334 65.07598808 124 65 C124.33 65.99 124.66 66.98 125 68 C124.34 68.66 123.68 69.32 123 70 C123 69.34 123 68.68 123 68 C122.01 68 121.02 68 120 68 C120.598125 69.134375 121.19625 70.26875 121.8125 71.4375 C122.14894531 72.07558594 122.48539062 72.71367188 122.83203125 73.37109375 C123.99019799 75.32267987 123.99019799 75.32267987 127 76 C127.33 76.33 127.66 76.66 128 77 C128.61875 76.835 129.2375 76.67 129.875 76.5 C132 76 132 76 135 77 C135.33 77.99 135.66 78.98 136 80 C135.67 80.66 135.34 81.32 135 82 C135.66 82 136.32 82 137 82 C137.99 83.485 137.99 83.485 139 85 C140.98 84.34 142.96 83.68 145 83 C145.78375 83.99 146.5675 84.98 147.375 86 C148.24125 86.99 149.1075 87.98 150 89 C150.66 89 151.32 89 152 89 C152.66 90.65 153.32 92.3 154 94 C154.99 93.67 155.98 93.34 157 93 C157.33 93.99 157.66 94.98 158 96 C161.0745356 95.2236068 161.0745356 95.2236068 163 93 C163.66 93 164.32 93 165 93 C165.1953125 95.05078125 165.390625 97.1015625 165.5859375 99.15234375 C165.72257813 99.76207031 165.85921875 100.37179687 166 101 C166.66 101.33 167.32 101.66 168 102 C168.33 100.35 168.66 98.7 169 97 C173.64740296 105.12930245 168.45706972 117.35937637 166.4375 126.0625 C166.10435818 127.51486863 165.77167217 128.96734189 165.43945312 130.41992188 C164.63155359 133.94783638 163.81749479 137.47429496 163 141 C162.34 141 161.68 141 161 141 C160.67 141.99 160.34 142.98 160 144 C159.01 144.33 158.02 144.66 157 145 C157.99 145.66 158.98 146.32 160 147 C159.67 147.66 159.34 148.32 159 149 C156 149 156 149 153 147 C151.7934375 146.814375 151.7934375 146.814375 150.5625 146.625 C147.37052316 145.84646906 146.24592455 144.32078871 144 142 C143.01 142 142.02 142 141 142 C140 140.66666667 139 139.33333333 138 138 C137.01 138 136.02 138 135 138 C133.65210653 137.01971384 132.31787285 136.02028865 131 135 C130.34 135 129.68 135 129 135 C128.67 134.01 128.34 133.02 128 132 C127.01 132 126.02 132 125 132 C121.16868426 130.39781342 118.14505255 127.88546352 114.90234375 125.33984375 C112.9370042 123.81914723 112.9370042 123.81914723 110 123 C109.67 122.34 109.34 121.68 109 121 C107.68 121 106.36 121 105 121 C104.67 121.66 104.34 122.32 104 123 C103.71125 122.21625 103.4225 121.4325 103.125 120.625 C102.15087746 117.90328368 102.15087746 117.90328368 100 116 C99.01 116 98.02 116 97 116 C95.515 115.01 95.515 115.01 94 114 C93.01 114 92.02 114 91 114 C90.34 112.02 89.68 110.04 89 108 C88.443125 108.268125 87.88625 108.53625 87.3125 108.8125 C86.549375 108.874375 85.78625 108.93625 85 109 C83.29220027 107.37550757 81.62449243 105.70779973 80 104 C79.01 104 78.02 104 77 104 C74.24616077 102.62308038 73.48516899 100.63279958 72 98 C70.02 98.99 70.02 98.99 68 100 C66.824375 99.0409375 66.824375 99.0409375 65.625 98.0625 C63.20460719 96.01857687 63.20460719 96.01857687 61 95 C61 94.01 61 93.02 61 92 C60.01 92.33 59.02 92.66 58 93 C57.67 92.01 57.34 91.02 57 90 C56.01 90 55.02 90 54 90 C53.01 89.67 52.02 89.34 51 89 C51 88.01 51 87.02 51 86 C50.01 86.33 49.02 86.66 48 87 C47.33333333 85.66666667 46.66666667 84.33333333 46 83 C45.01 83.33 44.02 83.66 43 84 C42.34 83.01 41.68 82.02 41 81 C40.01 81 39.02 81 38 81 C37.67 80.01 37.34 79.02 37 78 C36.01 78.33 35.02 78.66 34 79 C33.67 77.68 33.34 76.36 33 75 C32.01 75.33 31.02 75.66 30 76 C28.9171875 74.7625 28.9171875 74.7625 27.8125 73.5 C24.5628303 70.61140471 24.07047944 70.89823801 20 71 C17.4375 69.125 17.4375 69.125 15 67 C14.29875 66.649375 13.5975 66.29875 12.875 65.9375 C11 65 11 65 9.4375 63.375 C7.97021721 61.65438868 7.97021721 61.65438868 5 62 C3.3125 60.5 3.3125 60.5 2 59 C0.515 59.495 0.515 59.495 -1 60 C-1.02316561 52.61994209 -1.04093664 45.23989201 -1.05181217 37.85980511 C-1.05703175 34.43297225 -1.06411265 31.00616425 -1.07543945 27.5793457 C-1.08837846 23.64013974 -1.09323586 19.70094387 -1.09765625 15.76171875 C-1.10281754 14.53039719 -1.10797882 13.29907562 -1.11329651 12.03044128 C-1.11337204 10.88948502 -1.11344757 9.74852875 -1.11352539 8.57299805 C-1.11685631 7.06409248 -1.11685631 7.06409248 -1.12025452 5.52470398 C-1 3 -1 3 0 0 Z M122 75 C123 77 123 77 123 77 Z M150 91 C150.99 92.485 150.99 92.485 152 94 C152 93.01 152 92.02 152 91 C151.34 91 150.68 91 150 91 Z " fill="#625DD2" transform="translate(250,602)"/>
<path d="M0 0 C6.83203876 -0.04602421 13.66353496 -0.08581686 20.49560547 -0.10986328 C22.81756416 -0.11989264 25.13951032 -0.1335194 27.46142578 -0.15087891 C30.80764877 -0.17526201 34.15370408 -0.18651404 37.5 -0.1953125 C38.5305249 -0.20563507 39.5610498 -0.21595764 40.62280273 -0.22659302 C52.49433899 -0.22842218 63.57396781 3.36430692 74 9 C74 9.66 74 10.32 74 11 C74.99 11.2784375 74.99 11.2784375 76 11.5625 C89.00443003 17.79378939 97.27458892 31.89968859 102 45 C102.26288818 45.71836029 102.52577637 46.43672058 102.79663086 47.17684937 C106.156209 58.22811397 105.37376563 69.71133085 105.29296875 81.140625 C105.28736527 83.47759731 105.28309873 85.81457318 105.28010559 88.15155029 C105.26871611 94.26712984 105.23930016 100.38249163 105.20599365 106.49798584 C105.17516503 112.75253352 105.16157303 119.0071168 105.14648438 125.26171875 C105.11442438 137.50792299 105.06170511 149.75390922 105 162 C92.13 162 79.26 162 66 162 C65.95101563 155.61914062 65.90203125 149.23828125 65.8515625 142.6640625 C65.81615354 138.6080576 65.78018058 134.55207326 65.7421875 130.49609375 C65.6820116 124.06627431 65.62386047 117.63648345 65.578125 111.20654297 C65.54109769 106.01931433 65.49469145 100.83224473 65.44193649 95.64515305 C65.42348488 93.67177511 65.40834332 91.69836321 65.39665604 89.72493362 C65.37963453 86.94878296 65.35056311 84.17298925 65.31884766 81.39697266 C65.31668747 80.59135895 65.31452728 79.78574524 65.31230164 78.95571899 C65.15015933 67.75714861 62.816774 58.40457432 55.14453125 49.95703125 C47.14764714 42.47092617 38.46497097 39.91719039 27.734375 39.68359375 C27.03070801 39.66494263 26.32704102 39.6462915 25.60205078 39.6270752 C22.98482274 39.55900923 20.36739729 39.49871295 17.75 39.4375 C8.96375 39.2209375 8.96375 39.2209375 0 39 C0 26.13 0 13.26 0 0 Z " fill="#020202" transform="translate(1802,593)"/>
<path d="M0 0 C12.87 0 25.74 0 39 0 C39 53.46 39 106.92 39 162 C26.13 162 13.26 162 0 162 C0 108.54 0 55.08 0 0 Z " fill="#040404" transform="translate(1683,592)"/>
<path d="M0 0 C12.87 0 25.74 0 39 0 C39 53.46 39 106.92 39 162 C26.13 162 13.26 162 0 162 C0 108.54 0 55.08 0 0 Z " fill="#040404" transform="translate(932,592)"/>
<path d="M0 0 C1.24546405 2.49092811 0.7767578 3.41080733 0 6 C0.66 6.33 1.32 6.66 2 7 C1.34 7 0.68 7 0 7 C0.515625 7.886875 1.03125 8.77375 1.5625 9.6875 C3.0868937 13.20023331 3.14947895 14.44706507 2 18 C3.65 17.34 5.3 16.68 7 16 C7.495 17.485 7.495 17.485 8 19 C11.0745356 18.2236068 11.0745356 18.2236068 13 16 C13.66 18.31 14.32 20.62 15 23 C16.32 22.01 17.64 21.02 19 20 C22.07755207 23.07755207 23 24.68376826 23 29 C24.98 28.34 26.96 27.68 29 27 C33 31 33 31 33 35 C34.32 34.67 35.64 34.34 37 34 C37.4125 34.969375 37.825 35.93875 38.25 36.9375 C39.63634226 40.10531248 39.63634226 40.10531248 42.0625 40.8125 C43.0215625 40.9053125 43.0215625 40.9053125 44 41 C44.66 41.33 45.32 41.66 46 42 C45.67 41.01 45.34 40.02 45 39 C45.66 39 46.32 39 47 39 C47.495 40.98 47.495 40.98 48 43 C48.66 42.67 49.32 42.34 50 42 C50.66 42.66 51.32 43.32 52 44 C52.99 44 53.98 44 55 44 C55.33 44.99 55.66 45.98 56 47 C56.99 47 57.98 47 59 47 C59.495 49.475 59.495 49.475 60 52 C60.99 51.67 61.98 51.34 63 51 C63 51.99 63 52.98 63 54 C65.16874252 53.49396008 66.99967627 53.00016187 69 52 C69.103125 52.639375 69.20625 53.27875 69.3125 53.9375 C69.539375 54.618125 69.76625 55.29875 70 56 C71.485 56.495 71.485 56.495 73 57 C73.33 57.33 73.66 57.66 74 58 C76.33075929 57.04134491 76.33075929 57.04134491 78 54 C78.99 57.3 79.98 60.6 81 64 C82.32 63.34 83.64 62.68 85 62 C87.125 62.9375 87.125 62.9375 89 64 C89.66 63.67 90.32 63.34 91 63 C91.66 63.66 92.32 64.32 93 65 C93.66 65.474375 94.32 65.94875 95 66.4375 C97 68 97 68 99 71 C99.99 69.515 99.99 69.515 101 68 C101.66 68 102.32 68 103 68 C103 69.32 103 70.64 103 72 C102.34 72 101.68 72 101 72 C101.66 72.66 102.32 73.32 103 74 C103.99 73.01 104.98 72.02 106 71 C106.33 72.65 106.66 74.3 107 76 C108.32 75.67 109.64 75.34 111 75 C111.33 75.66 111.66 76.32 112 77 C100.76953125 83.73828125 100.76953125 83.73828125 98.78173828 84.93017578 C97.3879612 85.76705317 95.99630215 86.60745824 94.60546875 87.44921875 C89.74899343 90.33980451 84.84362752 93.14694093 79.94921875 95.97265625 C79.13066406 96.44574219 78.31210937 96.91882813 77.46875 97.40625 C76.68814209 97.85693848 75.90753418 98.30762695 75.10327148 98.77197266 C73.41082897 99.7601312 71.73563947 100.77780901 70.06640625 101.8046875 C67.69742883 103.17502226 65.69280377 103.5857225 63 104 C62.34 104.2475 61.68 104.495 61 104.75 C57.94418265 105.13197717 56.51735644 103.69775202 54 102 C52.75331157 101.30651302 51.50317888 100.61918831 50.25 99.9375 C47 98 47 98 46 96 C45.34 95.835 44.68 95.67 44 95.5 C43.34 95.335 42.68 95.17 42 95 C41.67 94.34 41.34 93.68 41 93 C40.360625 92.9175 39.72125 92.835 39.0625 92.75 C38.381875 92.5025 37.70125 92.255 37 92 C35.8125 89 35.8125 89 35 86 C34.67 85.67 34.34 85.34 34 85 C33.505 86.485 33.505 86.485 33 88 C27.83066183 87.35383273 25.66596978 85.1390993 22.0625 81.59375 C19.68035524 79.75300177 17.9405643 79.4464223 15 79 C13.125 77.75 13.125 77.75 11 76 C9.82147095 75.09239717 8.63319554 74.19736484 7.4375 73.3125 C6.85871094 72.87550781 6.27992188 72.43851563 5.68359375 71.98828125 C3.89417266 70.74688354 3.89417266 70.74688354 1 71 C0.67 70.34 0.34 69.68 0 69 C-3.76010972 64.67666182 -3.76010972 64.67666182 -9 63 C-9.99 63 -10.98 63 -12 63 C-13.33333333 61.66666667 -14.66666667 60.33333333 -16 59 C-16.99 59 -17.98 59 -19 59 C-21.5548568 57.65870018 -23.61912163 56.39552754 -25.625 54.3125 C-27.04486722 52.65476213 -27.04486722 52.65476213 -30 53 C-30.66 51.68 -31.32 50.36 -32 49 C-32.99 49 -33.98 49 -35 49 C-36.33333333 47.66666667 -37.66666667 46.33333333 -39 45 C-39.99 45 -40.98 45 -42 45 C-41.42667654 41.35818477 -40.06870972 39.71572695 -37.4375 37.1875 C-36.79683594 36.56230469 -36.15617187 35.93710937 -35.49609375 35.29296875 C-33.43642526 33.40091022 -31.34251882 31.58009039 -29.21875 29.76171875 C-24.87231617 25.97471187 -20.96653464 21.86024852 -17.0625 17.625 C-15.66904108 16.12790744 -14.27451679 14.63180575 -12.87890625 13.13671875 C-12.2152002 12.42563965 -11.55149414 11.71456055 -10.86767578 10.98193359 C-7.33392911 7.23200477 -3.68918901 3.59695928 0 0 Z M35 36 C35.66 36.66 36.32 37.32 37 38 C37 37.34 37 36.68 37 36 C36.34 36 35.68 36 35 36 Z M79 54 C80 58 80 58 80 58 Z " fill="#625DD2" transform="translate(465,717)"/>
<path d="M0 0 C7.5651294 7.049703 12.92755036 16.25890741 13.36328125 26.671875 C13.38705904 28.66656745 13.3997764 30.66141749 13.40234375 32.65625 C13.42683594 33.64238281 13.45132812 34.62851562 13.4765625 35.64453125 C13.52009677 46.65870062 9.433126 54.68026315 3.02734375 63.40625 C2.28484375 64.458125 1.54234375 65.51 0.77734375 66.59375 C-7.62423822 75.18627701 -18.17387617 78.64641849 -29.97265625 78.84375 C-42.49618775 78.75048656 -50.74699031 73.39221484 -59.66015625 65.09375 C-63.32541741 61.2865539 -65.79328324 57.20406384 -67.97265625 52.40625 C-68.29363281 51.70371094 -68.61460938 51.00117187 -68.9453125 50.27734375 C-71.08464392 44.555876 -71.27926251 38.8846124 -71.34765625 32.84375 C-71.36856323 31.65676514 -71.36856323 31.65676514 -71.38989258 30.44580078 C-71.30203537 19.43512507 -66.81960412 9.20891045 -59.28515625 1.21875 C-42.16251053 -14.93651461 -18.04785166 -14.5812346 0 0 Z " fill="#FCFCFC" transform="translate(1110.97265625,637.59375)"/>
<path d="M0 0 C11.19803707 6.03658139 20.28770561 14.02386407 24.44921875 26.3203125 C25.23792561 29.08132646 25.57733162 31.53321891 25.58203125 34.40234375 C25.58332031 35.16998047 25.58460938 35.93761719 25.5859375 36.72851562 C25.58207031 37.52193359 25.57820313 38.31535156 25.57421875 39.1328125 C25.57808594 39.91462891 25.58195312 40.69644531 25.5859375 41.50195312 C25.5632836 55.06031032 20.96641047 66.4702149 11.44921875 76.3203125 C2.38562224 84.14160138 -8.42068999 87.04778277 -20.234375 86.6328125 C-31.12538096 85.6065693 -41.16898743 80.77635439 -48.30078125 72.3203125 C-49.43425973 70.68733503 -50.51353682 69.01604623 -51.55078125 67.3203125 C-52.53111328 65.73283203 -52.53111328 65.73283203 -53.53125 64.11328125 C-60.38835897 51.96890501 -60.54547261 38.47228011 -56.98828125 25.1328125 C-52.57985424 13.05217566 -43.14984531 4.67026124 -31.75 -0.734375 C-22.48088972 -4.71861068 -9.18775711 -4.02404063 0 0 Z " fill="#FCFCFC" transform="translate(2031.55078125,629.6796875)"/>
<path d="M0 0 C14.52 0 29.04 0 44 0 C51.99061973 25.86793845 51.99061973 25.86793845 54.5625 34.75 C56.41574885 41.13883157 58.40736076 47.47778483 60.4375 53.8125 C62.80485275 61.21874686 65.15899842 68.62836513 67.4375 76.0625 C67.696521 76.88919189 67.95554199 77.71588379 68.22241211 78.56762695 C68.45710205 79.34066162 68.69179199 80.11369629 68.93359375 80.91015625 C69.14040771 81.58183838 69.34722168 82.25352051 69.56030273 82.94555664 C70 85 70 85 70 90 C61.09 90 52.18 90 43 90 C42.34 85.71 41.68 81.42 41 77 C28.46 77.33 15.92 77.66 3 78 C2.34 81.63 1.68 85.26 1 89 C-7.58 89 -16.16 89 -25 89 C-24.35024783 84.45173483 -23.74584356 80.68498323 -22.4765625 76.3828125 C-22.1775 75.36316406 -21.8784375 74.34351563 -21.5703125 73.29296875 C-21.25835938 72.24753906 -20.94640625 71.20210937 -20.625 70.125 C-20.32078125 69.08730469 -20.0165625 68.04960938 -19.703125 66.98046875 C-18.32922025 62.32445821 -16.91756181 57.69159969 -15.359375 53.09375 C-14.27169812 49.8813763 -13.37686538 46.68516056 -12.625 43.375 C-11.53097423 38.86285226 -10.20049859 34.51414606 -8.6875 30.125 C-5.29862596 20.21667622 -2.70172325 10.11575449 0 0 Z " fill="#050505" transform="translate(2159,523)"/>
<path d="M0 0 C12.87 0 25.74 0 39 0 C39 40.92 39 81.84 39 124 C26.13 124 13.26 124 0 124 C0 83.08 0 42.16 0 0 Z " fill="#030303" transform="translate(1763,632)"/>
<path d="M0 0 C23.1 0 46.2 0 70 0 C70 8.25 70 16.5 70 25 C63.07 25 56.14 25 49 25 C49 38.53 49 52.06 49 66 C55.6 66 62.2 66 69 66 C69 73.59 69 81.18 69 89 C46.23 89 23.46 89 0 89 C0 81.41 0 73.82 0 66 C8.25 66 16.5 66 25 66 C25 52.47 25 38.94 25 25 C16.75 25 8.5 25 0 25 C0 16.75 0 8.5 0 0 Z " fill="#040404" transform="translate(2242,523)"/>
<path d="M0 0 C12.87 0 25.74 0 39 0 C39 13.2 39 26.4 39 40 C26.13 40 13.26 40 0 40 C0 26.8 0 13.6 0 0 Z " fill="#070707" transform="translate(1683,523)"/>
<path d="M0 0 C12.87 0 25.74 0 39 0 C39 13.2 39 26.4 39 40 C26.13 40 13.26 40 0 40 C0 26.8 0 13.6 0 0 Z " fill="#080808" transform="translate(932,523)"/>
<path d="M0 0 C1.37478516 0.01740234 1.37478516 0.01740234 2.77734375 0.03515625 C3.69644531 0.04417969 4.61554687 0.05320312 5.5625 0.0625 C6.27277344 0.07410156 6.98304688 0.08570313 7.71484375 0.09765625 C9.99357063 5.09257333 11.61584082 9.95392815 12.90234375 15.28515625 C13.07958984 15.98318359 13.25683594 16.68121094 13.43945312 17.40039062 C14.26920272 20.767444 14.71484375 23.6056915 14.71484375 27.09765625 C6.79484375 27.09765625 -1.12515625 27.09765625 -9.28515625 27.09765625 C-7.28515625 16.09765625 -7.28515625 16.09765625 -5.28515625 11.09765625 C-4.89101547 9.35622377 -4.53579805 7.60546063 -4.22265625 5.84765625 C-3.20044158 0.13677101 -3.20044158 0.13677101 0 0 Z " fill="#ECECED" transform="translate(2178.28515625,547.90234375)"/>
<path d="M0 0 C0.66 0 1.32 0 2 0 C0.61802924 3.13275363 -0.9675675 5.17701325 -3.44140625 7.53125 C-4.10720703 8.17707031 -4.77300781 8.82289063 -5.45898438 9.48828125 C-6.8633697 10.83137956 -8.26962782 12.1725223 -9.67773438 13.51171875 C-10.34224609 14.15753906 -11.00675781 14.80335938 -11.69140625 15.46875 C-12.60708374 16.34176758 -12.60708374 16.34176758 -13.54125977 17.23242188 C-15.14772078 19.17899556 -15.45246968 20.57846487 -16 23 C-18 24.125 -18 24.125 -20 25 C-20.33 25.66 -20.66 26.32 -21 27 C-21 26.34 -21 25.68 -21 25 C-23.64 27.31 -26.28 29.62 -29 32 C-29 29 -29 29 -27.53125 27.203125 C-26.52578125 26.23632812 -26.52578125 26.23632812 -25.5 25.25 C-24.39205078 24.17878906 -24.39205078 24.17878906 -23.26171875 23.0859375 C-21.3170559 21.29241425 -19.33739941 19.5760882 -17.3125 17.875 C-12.59449737 13.85386802 -8.51532735 9.23802347 -4.3918457 4.62255859 C-2.96592919 3.04644469 -1.4870128 1.51860656 0 0 Z " fill="#6C6AD4" transform="translate(453,729)"/>
<path d="M0 0 C0.99 0.33 1.98 0.66 3 1 C2.505 1.391875 2.01 1.78375 1.5 2.1875 C-0.17747519 3.91147699 -0.17747519 3.91147699 -0.40625 6.28125 C0.17873132 10.196125 2.15085214 11.64142389 5 14.3125 C6.3921875 15.63701172 6.3921875 15.63701172 7.8125 16.98828125 C8.534375 17.65214844 9.25625 18.31601562 10 19 C9.01 19.33 8.02 19.66 7 20 C6.67 19.01 6.34 18.02 6 17 C5.34 17 4.68 17 4 17 C4 16.34 4 15.68 4 15 C1.36 14.67 -1.28 14.34 -4 14 C-4.625 11.1875 -4.625 11.1875 -5 8 C-4.34 7.01 -3.68 6.02 -3 5 C-3 4.01 -3 3.02 -3 2 C-2.01 1.34 -1.02 0.68 0 0 Z " fill="#6E59D9" transform="translate(376,609)"/>
<path d="M0 0 C2.125 0.9375 2.125 0.9375 4 2 C2.625 3.5 2.625 3.5 1 5 C0.34 5 -0.32 5 -1 5 C-1.33 5.66 -1.66 6.32 -2 7 C-2 6.34 -2 5.68 -2 5 C-4.64 7.31 -7.28 9.62 -10 12 C-10 9 -10 9 -8.3203125 6.9921875 C-7.59585937 6.29351563 -6.87140625 5.59484375 -6.125 4.875 C-5.40570313 4.17117188 -4.68640625 3.46734375 -3.9453125 2.7421875 C-2 1 -2 1 0 0 Z " fill="#817FDB" transform="translate(434,749)"/>
<path d="M0 0 C1.24546405 2.49092811 0.7767578 3.41080733 0 6 C0.66 6.33 1.32 6.66 2 7 C0.68 7.99 -0.64 8.98 -2 10 C-2 9.34 -2 8.68 -2 8 C-3.65 8 -5.3 8 -7 8 C-6.02133662 6.85373678 -5.04205413 5.70800212 -4.0625 4.5625 C-3.51722656 3.92441406 -2.97195313 3.28632812 -2.41015625 2.62890625 C-1.63204305 1.73008851 -0.84063472 0.84063472 0 0 Z " fill="#7467D8" transform="translate(465,717)"/>
<path d="M0 0 C0.99 0.33 1.98 0.66 3 1 C1.4169423 5.2742558 -1.50568404 7.26531794 -5 10 C-5.66 9.01 -6.32 8.02 -7 7 C-6.01 6.34 -5.02 5.68 -4 5 C-2.63360658 3.3603279 -1.29486821 1.69672386 0 0 Z " fill="#7C58DF" transform="translate(441,542)"/>
<path d="M0 0 C0.66 0.33 1.32 0.66 2 1 C-2.29 5.29 -6.58 9.58 -11 14 C-11.66 13.67 -12.32 13.34 -13 13 C-9.17410588 8.04050763 -5.1404346 3.61734287 0 0 Z " fill="#292929" transform="translate(1963,607)"/>
<path d="M0 0 C0.66 0.66 1.32 1.32 2 2 C1.64700993 5.44165321 0.95418308 7.06872538 -1 10 C-3.125 10.6875 -3.125 10.6875 -5 11 C-4.54917531 9.53932801 -4.08906463 8.08151968 -3.625 6.625 C-3.36976563 5.81289063 -3.11453125 5.00078125 -2.8515625 4.1640625 C-2 2 -2 2 0 0 Z " fill="#6C6BD4" transform="translate(537,809)"/>
<path d="M0 0 C1.98 0.99 1.98 0.99 4 2 C4.66 1.34 5.32 0.68 6 0 C5.67 3.63 5.34 7.26 5 11 C4.67 11 4.34 11 4 11 C4 9.35 4 7.7 4 6 C2.68 5.34 1.36 4.68 0 4 C0 2.68 0 1.36 0 0 Z " fill="#6F6FD5" transform="translate(406,743)"/>
<path d="M0 0 C0.99 0.99 1.98 1.98 3 3 C2.34 3.66 1.68 4.32 1 5 C0.01 5 -0.98 5 -2 5 C-2.33 6.32 -2.66 7.64 -3 9 C-3.33 8.34 -3.66 7.68 -4 7 C-4.66 6.67 -5.32 6.34 -6 6 C-2.25 1.125 -2.25 1.125 0 0 Z " fill="#745CDB" transform="translate(499,683)"/>
<path d="M0 0 C0.66 0.33 1.32 0.66 2 1 C-1.75 4 -1.75 4 -4 4 C-4.33 5.98 -4.66 7.96 -5 10 C-5.33 9.34 -5.66 8.68 -6 8 C-6.66 8 -7.32 8 -8 8 C-7.9375 6.25 -7.9375 6.25 -7 4 C-4.74876994 2.27481113 -2.59865097 1.23093993 0 0 Z " fill="#7E55E0" transform="translate(337,472)"/>
<path d="M0 0 C0.66 0.33 1.32 0.66 2 1 C0.88200014 2.33920838 -0.24461897 3.67122556 -1.375 5 C-2.00148437 5.7425 -2.62796875 6.485 -3.2734375 7.25 C-4.12808594 8.11625 -4.12808594 8.11625 -5 9 C-5.66 9 -6.32 9 -7 9 C-5.64978174 4.58110387 -3.73884332 2.65654657 0 0 Z " fill="#826ADF" transform="translate(257,519)"/>
<path d="M0 0 C-1.75 2 -1.75 2 -4 4 C-5.32 4 -6.64 4 -8 4 C-5.97675095 -0.48005146 -4.79569304 -1.43870791 0 0 Z " fill="#6F5CD8" transform="translate(618,769)"/>
<path d="M0 0 C2.475 0.99 2.475 0.99 5 2 C2.61426621 3.89213369 0.92824652 5.02391783 -2 6 C-2 3 -2 3 0 0 Z " fill="#725BDA" transform="translate(631,757)"/>
<path d="M0 0 C0.99 0.33 1.98 0.66 3 1 C2.319375 1.61875 2.319375 1.61875 1.625 2.25 C-0.05950374 4.06408095 -0.99265971 5.75285627 -2 8 C-2.66 6.35 -3.32 4.7 -4 3 C-2.1875 1.4375 -2.1875 1.4375 0 0 Z " fill="#735FDA" transform="translate(376,609)"/>
<path d="M0 0 C0.66 0.33 1.32 0.66 2 1 C-0.475 4.465 -0.475 4.465 -3 8 C-3.99 7.67 -4.98 7.34 -6 7 C-4.02 4.69 -2.04 2.38 0 0 Z " fill="#7D70DC" transform="translate(491,690)"/>
<path d="M0 0 C1.98 1.65 3.96 3.3 6 5 C5.01 5.66 4.02 6.32 3 7 C1.68 5.35 0.36 3.7 -1 2 C-0.67 1.34 -0.34 0.68 0 0 Z " fill="#8574DE" transform="translate(387,629)"/>
</svg>
