<svg xmlns="http://www.w3.org/2000/svg" width="356" height="321" viewBox="0 0 356 321" version="1.1"><path d="M -0 160.503 L -0 321.006 154.250 320.753 L 308.500 320.500 308.500 309.500 L 308.500 298.500 301.250 298.206 L 294 297.912 294 304.956 L 294 312 300.500 312 C 305.611 312, 307 312.321, 307 313.500 C 307 314.686, 305.578 315, 300.200 315 C 296.244 315, 292.898 314.498, 292.200 313.800 C 291.488 313.088, 291 309.660, 291 305.371 C 291 295.838, 291.853 295, 301.548 295 C 311.592 295, 312.247 295.985, 311.816 310.445 L 311.500 321.040 334 320.770 L 356.500 320.500 356.753 160.250 L 357.006 -0 178.503 -0 L 0 0 -0 160.503 M 0.488 161 C 0.488 249.275, 0.606 285.388, 0.750 241.250 C 0.894 197.113, 0.894 124.888, 0.750 80.750 C 0.606 36.613, 0.488 72.725, 0.488 161 M 160.826 4.712 C 156.653 7.301, 155.998 10.037, 156.022 24.797 C 156.054 44.408, 156.695 45, 177.918 45 L 191.968 45 195.234 42.085 L 198.500 39.169 198.787 25.335 C 199.047 12.859, 198.875 11.178, 197.037 8.225 C 195.916 6.424, 193.845 4.511, 192.434 3.975 C 191.024 3.439, 183.937 3.012, 176.685 3.027 C 166.179 3.048, 162.957 3.390, 160.826 4.712 M 113.073 38.635 C 111.263 40.935, 111 42.657, 111 52.180 C 111 62.431, 111.148 63.239, 113.455 65.545 C 115.766 67.856, 116.558 68, 127 68 C 137.442 68, 138.234 67.856, 140.545 65.545 C 142.864 63.227, 143 62.459, 143 51.720 C 143 41.127, 142.842 40.200, 140.686 38.174 C 138.584 36.200, 137.305 36, 126.758 36 C 115.404 36, 115.099 36.059, 113.073 38.635 M 213.861 37.910 C 211.681 39.673, 211.474 40.669, 211.162 50.898 L 210.824 61.977 213.835 64.989 C 216.802 67.955, 217.002 68, 227.367 68 C 237.046 68, 238.113 67.807, 240.694 65.587 C 243.325 63.325, 243.522 62.605, 243.851 54.056 C 244.499 37.204, 243.416 36, 227.611 36 C 217.892 36, 215.875 36.280, 213.861 37.910 M 161.500 55.161 C 156.564 57.875, 156.046 59.677, 156.022 74.203 C 155.988 95.193, 156.761 96, 176.885 96 C 184.027 96, 191.024 95.561, 192.434 95.025 C 193.845 94.489, 195.916 92.576, 197.037 90.775 C 198.875 87.822, 199.047 86.141, 198.787 73.665 L 198.500 59.831 195.234 56.915 L 191.968 54 177.734 54.030 C 169.322 54.048, 162.682 54.511, 161.500 55.161 M 81 63.709 C 76.789 65.258, 76 67.119, 76 75.500 C 76 82.406, 76.312 83.972, 77.990 85.491 C 80.235 87.523, 88.068 88.585, 93.412 87.583 C 99.127 86.510, 100.002 84.926, 99.985 75.679 C 99.968 66.503, 99.619 65.566, 95.665 64.063 C 92.770 62.962, 83.631 62.742, 81 63.709 M 259.028 64.061 C 255.407 65.583, 255.032 66.668, 255.015 75.679 C 254.998 84.926, 255.873 86.510, 261.588 87.583 C 266.932 88.585, 274.765 87.523, 277.010 85.491 C 278.688 83.972, 279 82.406, 279 75.500 C 279 65.011, 277.817 63.676, 268.177 63.290 C 264.504 63.142, 260.388 63.490, 259.028 64.061 M 113.455 78.455 C 111.144 80.766, 111 81.558, 111 92 C 111 102.442, 111.144 103.234, 113.455 105.545 C 115.766 107.856, 116.558 108, 127 108 C 137.442 108, 138.234 107.856, 140.545 105.545 C 142.856 103.234, 143 102.442, 143 92 C 143 81.558, 142.856 80.766, 140.545 78.455 C 138.234 76.144, 137.442 76, 127 76 C 116.558 76, 115.766 76.144, 113.455 78.455 M 215.229 76.669 C 212.399 77.808, 211 82.885, 211 92.016 C 211 106.666, 212.307 107.924, 227.576 107.968 C 238.207 107.999, 238.749 107.896, 241.076 105.421 C 243.196 103.165, 243.544 101.720, 243.851 93.890 C 244.261 83.418, 243.753 80.780, 240.799 78.028 C 238.872 76.232, 237.355 76.009, 227.561 76.079 C 221.478 76.122, 215.928 76.388, 215.229 76.669 M 77.655 97.829 C 76.399 99.216, 76 101.629, 76 107.829 C 76 118.924, 77.061 120, 88 120 C 98.975 120, 100 118.946, 100 107.655 C 100 96.653, 99.318 96, 87.826 96 C 80.846 96, 79.012 96.330, 77.655 97.829 M 256.655 97.829 C 255.399 99.216, 255 101.629, 255 107.829 C 255 118.924, 256.061 120, 267 120 C 277.975 120, 279 118.946, 279 107.655 C 279 96.653, 278.318 96, 266.826 96 C 259.846 96, 258.012 96.330, 256.655 97.829 M 162.388 104.980 C 161.227 105.449, 159.314 107.057, 158.138 108.552 C 156.178 111.043, 156 112.473, 156 125.712 L 156 140.154 158.923 143.077 L 161.846 146 176.907 146 L 191.968 146 195.234 143.085 L 198.500 140.169 198.826 126.681 C 199.335 105.582, 197.793 103.962, 177.300 104.063 C 170.260 104.098, 163.550 104.511, 162.388 104.980 M 46.571 114.571 C 45.501 115.642, 45 118.009, 45 122 C 45 129.579, 46.363 131, 53.637 131 C 62.121 131, 63 130.171, 63 122.165 C 63 118.237, 62.497 114.897, 61.800 114.200 C 59.972 112.372, 48.491 112.652, 46.571 114.571 M 293.200 114.200 C 292.503 114.897, 292 118.237, 292 122.165 C 292 130.171, 292.879 131, 301.363 131 C 308.637 131, 310 129.579, 310 122 C 310 114.239, 308.710 113, 300.629 113 C 297.117 113, 293.876 113.524, 293.200 114.200 M 113.455 118.455 C 111.144 120.766, 111 121.558, 111 132 C 111 142.442, 111.144 143.234, 113.455 145.545 C 115.773 147.864, 116.541 148, 127.280 148 C 137.873 148, 138.800 147.842, 140.826 145.686 C 142.792 143.593, 143 142.295, 143 132.140 C 143 121.549, 142.860 120.769, 140.545 118.455 C 138.234 116.144, 137.442 116, 127 116 C 116.558 116, 115.766 116.144, 113.455 118.455 M 213.923 118.923 C 211.097 121.749, 211 122.166, 211 131.473 C 211 141.471, 212.336 146.148, 215.545 147.379 C 216.435 147.720, 222.077 148, 228.082 148 C 243.352 148, 244.495 146.691, 243.851 129.944 C 243.522 121.395, 243.325 120.675, 240.694 118.413 C 238.113 116.193, 237.046 116, 227.367 116 C 217.072 116, 216.783 116.063, 213.923 118.923 M 78 130 C 76.320 131.680, 76 133.333, 76 140.345 C 76 151.347, 76.682 152, 88.174 152 C 99.308 152, 100 151.308, 100 140.171 C 100 129.076, 98.939 128, 88 128 C 81.333 128, 79.667 128.333, 78 130 M 257 130 C 255.320 131.680, 255 133.333, 255 140.345 C 255 151.347, 255.682 152, 267.174 152 C 278.308 152, 279 151.308, 279 140.171 C 279 129.076, 277.939 128, 267 128 C 260.333 128, 258.667 128.333, 257 130 M 46.200 141.200 C 45.529 141.871, 45 145.089, 45 148.500 C 45 151.911, 45.529 155.129, 46.200 155.800 C 46.891 156.491, 50.200 157, 54 157 C 57.800 157, 61.109 156.491, 61.800 155.800 C 62.471 155.129, 63 151.911, 63 148.500 C 63 145.089, 62.471 141.871, 61.800 141.200 C 61.109 140.509, 57.800 140, 54 140 C 50.200 140, 46.891 140.509, 46.200 141.200 M 293.200 141.200 C 291.634 142.766, 291.634 154.234, 293.200 155.800 C 293.891 156.491, 297.200 157, 301 157 C 304.800 157, 308.109 156.491, 308.800 155.800 C 309.471 155.129, 310 151.911, 310 148.500 C 310 145.089, 309.471 141.871, 308.800 141.200 C 308.109 140.509, 304.800 140, 301 140 C 297.200 140, 293.891 140.509, 293.200 141.200 M 20.200 149.200 C 18.644 150.756, 18.644 159.244, 20.200 160.800 C 21.624 162.224, 28.863 162.372, 31 161.021 C 32.012 160.382, 32.500 158.421, 32.500 155 C 32.500 151.579, 32.012 149.618, 31 148.979 C 28.863 147.628, 21.624 147.776, 20.200 149.200 M 324 148.979 C 322.988 149.618, 322.500 151.579, 322.500 155 C 322.500 158.421, 322.988 160.382, 324 161.021 C 326.137 162.372, 333.376 162.224, 334.800 160.800 C 336.356 159.244, 336.356 150.756, 334.800 149.200 C 333.376 147.776, 326.137 147.628, 324 148.979 M 79 217 L 79 269 87.500 269 L 96 269 96 217 L 96 165 87.500 165 L 79 165 79 217 M 7.315 197.616 C 5.407 198.557, 3.703 200.412, 3.065 202.242 C 1.740 206.043, 1.657 229.968, 2.957 233.387 C 4.787 238.201, 8.264 239, 27.379 239 C 47.172 239, 48 239.284, 48 246.071 C 48 248.667, 47.321 250.679, 46 252 C 44.127 253.873, 42.667 254, 23 254 L 2 254 2 261.500 L 2 269 28.351 269 C 45.057 269, 55.865 268.594, 57.881 267.892 C 63.123 266.064, 64 262.996, 64 246.484 C 64 231.655, 63.463 228.902, 60.278 227.393 C 59.300 226.930, 49.820 226.315, 39.212 226.026 C 17.829 225.443, 18.043 225.517, 18.015 218.684 C 17.984 210.810, 17.403 211, 41.535 211 L 63 211 63 203.500 L 63 196 36.750 196.023 C 14.944 196.042, 9.961 196.311, 7.315 197.616 M 110.056 226.750 C 110.118 260.054, 110.485 262.818, 115.323 266.406 C 118.027 268.412, 119.304 268.500, 145.551 268.500 L 172.955 268.500 175.591 265.864 C 177.121 264.333, 178.580 261.398, 179.070 258.864 C 179.534 256.464, 179.932 241.338, 179.956 225.250 L 180 196 171 196 L 162 196 162 223.300 C 162 243.200, 161.675 250.925, 160.800 251.800 C 159.125 253.475, 130.875 253.475, 129.200 251.800 C 128.325 250.925, 128 243.200, 128 223.300 L 128 196 119 196 L 110 196 110.056 226.750 M 198.763 197.565 C 193.202 200.582, 193 201.965, 193 236.950 L 193 269 201.500 269 L 210 269 210 242.191 C 210 222.303, 210.323 214.951, 211.250 213.710 C 212.286 212.324, 214.723 211.992, 225.500 211.769 L 238.500 211.500 238.792 203.750 L 239.084 196 220.292 196.040 C 205.625 196.071, 200.899 196.406, 198.763 197.565 M 257.096 197.265 C 255.774 197.944, 253.749 199.770, 252.596 201.321 C 250.585 204.028, 250.488 205.457, 250.199 236.571 L 249.897 269 258.949 269 L 268 269 268 241.700 C 268 221.800, 268.325 214.075, 269.200 213.200 C 269.992 212.408, 274.244 212, 281.700 212 L 293 212 293 240.500 L 293 269 301.500 269 L 310 269 310 240.500 L 310 212 321.465 212 C 331.776 212, 333.034 212.195, 333.965 213.934 C 334.604 215.128, 335 226.034, 335 242.434 L 335 269 343.500 269 L 352 269 352 237.468 C 352 201.852, 351.707 200.029, 345.568 197.464 C 340.833 195.486, 260.909 195.306, 257.096 197.265 M 76 302.083 C 76 313.702, 76.287 317.072, 77.250 316.756 C 77.938 316.530, 78.725 314.277, 79 311.750 L 79.500 307.156 86.355 312.173 C 90.887 315.489, 93.547 316.853, 94.202 316.198 C 94.858 315.542, 93.149 313.817, 89.159 311.108 C 85.840 308.854, 82.874 306.605, 82.568 306.111 C 82.263 305.616, 84.706 303.477, 87.998 301.356 C 91.289 299.235, 93.986 296.938, 93.991 296.250 C 94.006 294.081, 92.134 294.865, 86.231 299.499 C 83.079 301.974, 80.162 303.999, 79.750 303.999 C 79.338 304, 79 300.175, 79 295.500 C 79 288.611, 78.716 287, 77.500 287 C 76.233 287, 76 289.343, 76 302.083 M 98.223 301.503 C 98.392 310.320, 98.892 316.005, 99.500 316.005 C 100.108 316.005, 100.608 310.320, 100.777 301.503 C 101.016 288.937, 100.846 287, 99.500 287 C 98.154 287, 97.984 288.937, 98.223 301.503 M 168.779 300.250 L 168.500 313.500 161.750 313.796 L 155 314.091 155 306.046 L 155 298 161.500 298 C 166.611 298, 168 297.679, 168 296.500 C 168 295.310, 166.559 295, 161.035 295 C 152.543 295, 152 295.683, 152 306.363 C 152 316.062, 152.875 317, 161.916 317 C 171.720 317, 172 316.533, 172 300.171 C 172 289.246, 171.749 287, 170.529 287 C 169.322 287, 169.008 289.382, 168.779 300.250 M 3.667 295.667 C 3.300 296.033, 3 300.276, 3 305.095 C 3 316.944, 3.069 317, 17.500 317 C 32.128 317, 32.172 316.961, 31.786 304.723 C 31.592 298.576, 31.098 295.529, 30.250 295.248 C 29.308 294.935, 29 297.196, 29 304.417 L 29 314 24 314 L 19 314 19 304.417 C 19 297.196, 18.692 294.935, 17.750 295.248 C 16.900 295.529, 16.408 298.599, 16.212 304.831 L 15.925 314 10.962 314 L 6 314 6 304.500 C 6 295.792, 5.486 293.847, 3.667 295.667 M 37.200 296.200 C 35.579 297.821, 35.579 314.179, 37.200 315.800 C 38.677 317.277, 50.386 317.399, 53.066 315.965 C 54.756 315.060, 55 313.805, 55 306 C 55 298.195, 54.756 296.940, 53.066 296.035 C 50.386 294.601, 38.677 294.723, 37.200 296.200 M 60.535 296.608 C 59.247 297.896, 58.985 300.015, 59.214 307.277 C 59.408 313.424, 59.902 316.471, 60.750 316.752 C 61.692 317.065, 62 314.804, 62 307.583 L 62 298 67 298 C 70.778 298, 72 297.633, 72 296.500 C 72 294.339, 62.717 294.426, 60.535 296.608 M 106.750 296.080 C 105.290 296.930, 105 298.579, 105 306.015 C 105 313.805, 105.244 315.060, 106.934 315.965 C 109.614 317.399, 121.323 317.277, 122.800 315.800 C 123.551 315.049, 124 311.319, 124 305.835 C 124 298.193, 123.752 296.938, 122.066 296.035 C 119.594 294.712, 109.045 294.743, 106.750 296.080 M 128.667 295.667 C 126.880 297.454, 128.688 298, 136.393 298 C 145.900 298, 146 298.083, 146 306 C 146 313.732, 145.729 314, 137.893 314 L 131 314 131 310.046 L 131 306.091 137.670 305.796 C 141.893 305.608, 144.492 305.041, 144.754 304.250 C 145.061 303.320, 143.125 303, 137.190 303 C 128.221 303, 128 303.181, 128 310.547 C 128 313.857, 128.474 315.183, 129.934 315.965 C 132.629 317.407, 145.317 317.283, 146.800 315.800 C 147.551 315.049, 148 311.319, 148 305.835 C 148 298.193, 147.752 296.938, 146.066 296.035 C 143.943 294.899, 129.735 294.598, 128.667 295.667 M 189.200 296.200 C 187.478 297.922, 187.525 317.324, 189.250 316.752 C 190.100 316.471, 190.592 313.401, 190.788 307.169 L 191.075 298 195.500 298 L 199.925 298 200.212 307.169 C 200.408 313.401, 200.900 316.471, 201.750 316.752 C 202.692 317.065, 203 314.804, 203 307.583 L 203 298 207.962 298 L 212.925 298 213.212 307.169 C 213.408 313.401, 213.900 316.471, 214.750 316.752 C 216.475 317.324, 216.522 297.922, 214.800 296.200 C 214.005 295.405, 209.689 295, 202 295 C 194.311 295, 189.995 295.405, 189.200 296.200 M 221 296.460 C 221 297.598, 222.818 297.983, 229.250 298.210 L 237.500 298.500 237.500 306 L 237.500 313.500 230.250 313.794 L 223 314.088 223 310.044 L 223 306 230 306 C 235.556 306, 237 305.690, 237 304.500 C 237 303.304, 235.522 303, 229.700 303 C 225.356 303, 221.914 303.486, 221.200 304.200 C 219.449 305.951, 219.700 313.558, 221.571 315.429 C 222.716 316.573, 225.146 317, 230.515 317 C 239.760 317, 241 315.699, 241 306 C 241 296.055, 239.891 295, 229.443 295 C 222.709 295, 221 295.295, 221 296.460 M 246.200 296.200 C 244.735 297.665, 244.515 317, 245.962 317 C 246.492 317, 247.054 312.837, 247.212 307.750 L 247.500 298.500 254 298.500 L 260.500 298.500 260.788 307.821 C 260.997 314.573, 261.411 317.030, 262.288 316.740 C 263.089 316.474, 263.597 313.264, 263.786 307.277 C 264.149 295.796, 263.523 295, 254.129 295 C 250.229 295, 246.896 295.504, 246.200 296.200 M 268.667 295.667 C 266.876 297.457, 268.698 298, 276.500 298 C 284.863 298, 285 298.040, 285 300.460 C 285 302.850, 284.768 302.927, 276.750 303.210 L 268.500 303.500 268.195 308.831 C 267.778 316.118, 268.748 317, 277.188 317 C 287.653 317, 288 316.647, 288 306 C 288 298.195, 287.756 296.940, 286.066 296.035 C 283.943 294.899, 269.735 294.598, 268.667 295.667 M 316.571 296.571 C 315.410 297.733, 315 300.190, 315 306 C 315 316.422, 315.608 317, 326.571 317 C 333.397 317, 335 316.715, 335 315.500 C 335 314.284, 333.389 314, 326.500 314 L 318 314 318 305.956 L 318 297.912 325.250 298.206 L 332.500 298.500 332.500 302 L 332.500 305.500 325.750 305.796 C 316.574 306.198, 317.158 308, 326.465 308 C 332.822 308, 334.083 307.713, 334.965 306.066 C 336.449 303.293, 336.242 299.791, 334.443 297.223 C 333.074 295.268, 331.999 295, 325.515 295 C 320.146 295, 317.716 295.427, 316.571 296.571 M 340.244 296.156 C 338.707 297.693, 338.481 317, 340 317 C 340.582 317, 341 313.694, 341 309.082 C 341 298.346, 341.193 298, 347.190 298 C 350.724 298, 352.047 297.638, 351.755 296.750 C 351.191 295.039, 341.844 294.556, 340.244 296.156 M 38.417 299.355 C 38.131 300.101, 38.033 303.588, 38.199 307.105 L 38.500 313.500 45.250 313.796 L 52 314.091 52 306.046 L 52 298 45.469 298 C 40.895 298, 38.781 298.406, 38.417 299.355 M 108 306 L 108 314 114.500 314 L 121 314 121 306 L 121 298 114.500 298 L 108 298 108 306 M 277.750 305.742 L 271 306.091 271 310.046 L 271 314 278 314 L 285 314 285 309.500 C 285 307.025, 284.887 305.088, 284.750 305.196 C 284.613 305.304, 281.462 305.549, 277.750 305.742" stroke="none" fill="#ffffff" fill-rule="evenodd"/><path d="M 79 217.540 L 79 269.081 87.250 268.790 L 95.500 268.500 95.759 217.250 L 96.018 166 87.509 166 L 79 166 79 217.540 M 9.255 197.117 C 3.378 198.815, 2.500 201.544, 2.500 218.125 C 2.500 232.321, 2.585 232.930, 4.924 235.419 L 7.349 238 24.924 238.015 C 46.196 238.033, 47.363 238.408, 47.809 245.380 C 48.357 253.941, 48.188 254, 23.301 254 L 1.912 254 2.206 261.250 L 2.500 268.500 27.620 268.767 C 56.502 269.074, 59.435 268.586, 62.287 263 C 63.803 260.031, 64.031 257.342, 63.787 245.275 C 63.389 225.527, 64.732 226.594, 39.751 226.187 C 27.748 225.992, 20.058 225.463, 19.232 224.777 C 18.351 224.047, 18.008 221.821, 18.205 218.115 C 18.625 210.201, 19.146 210.033, 43.250 210.015 L 63 210 63 203 L 63 196 37.750 196.090 C 23.862 196.140, 11.040 196.602, 9.255 197.117 M 111.004 228.250 C 111.007 258.297, 111.139 260.715, 112.929 263.651 C 115.690 268.180, 121.008 269.011, 146.799 268.944 C 171.638 268.879, 174.600 268.301, 177.248 263 C 178.803 259.889, 178.997 255.974, 178.998 227.750 L 179 196 171.046 196 L 163.092 196 162.796 222.897 C 162.523 247.706, 162.352 249.957, 160.595 251.897 C 158.834 253.841, 157.646 254, 144.845 254 C 125.435 254, 127 256.719, 127 223 L 127 196 119 196 L 111 196 111.004 228.250 M 201.500 196.719 C 200.400 196.987, 198.650 197.948, 197.612 198.853 C 193.330 202.588, 193 205.390, 193 237.968 L 193 269 201.500 269 L 210 269 210 241.557 C 210 208.352, 208.594 211, 226.223 211 L 238 211 238 203.500 L 238 196 220.750 196.116 C 211.262 196.180, 202.600 196.451, 201.500 196.719 M 258.212 197.103 C 256.217 197.694, 254.153 199.340, 252.966 201.288 C 251.129 204.301, 251.007 206.493, 251.004 236.750 L 251 269 258.955 269 L 266.910 269 267.205 241.418 C 267.483 215.455, 267.614 213.753, 269.441 212.418 C 270.833 211.401, 274.437 211, 282.176 211 L 292.969 211 293.235 239.750 L 293.500 268.500 301.250 268.792 L 309 269.084 309 240.042 L 309 211 320.345 211 C 330.066 211, 331.927 211.262, 333.345 212.829 C 334.800 214.436, 335 217.949, 335 241.829 L 335 269 343.500 269 L 352 269 352 238.020 C 352 203.965, 351.516 200.621, 346.196 197.886 C 344.046 196.781, 335.196 196.462, 302.500 196.314 C 278.214 196.204, 260.160 196.526, 258.212 197.103 M 76 301.500 C 76 310.500, 76.379 316, 77 316 C 77.550 316, 78 313.975, 78 311.500 C 78 309.025, 78.400 307, 78.890 307 C 79.379 307, 82.531 309.025, 85.893 311.500 C 91.671 315.754, 94.876 317.227, 93.497 314.995 C 93.155 314.442, 90.163 312.148, 86.847 309.896 L 80.817 305.801 87.637 301.227 C 91.387 298.711, 93.917 296.472, 93.259 296.253 C 92.601 296.034, 89.179 297.912, 85.654 300.427 C 82.130 302.942, 78.966 305, 78.623 305 C 78.280 305, 78 300.950, 78 296 C 78 290.667, 77.593 287, 77 287 C 76.379 287, 76 292.500, 76 301.500 M 98 301.500 C 98 310.500, 98.379 316, 99 316 C 99.621 316, 100 310.500, 100 301.500 C 100 292.500, 99.621 287, 99 287 C 98.379 287, 98 292.500, 98 301.500 M 169 300.500 L 169 314 162 314 L 155 314 155 306.048 L 155 298.095 161.250 297.798 C 168.906 297.433, 169.123 295.615, 161.560 295.202 C 153.759 294.775, 152 296.727, 152 305.809 C 152 315.475, 152.722 316.160, 162.520 315.796 L 170.500 315.500 170.777 301.250 C 170.958 291.983, 170.696 287, 170.027 287 C 169.375 287, 169 291.926, 169 300.500 M 4.214 305.750 L 4.500 315.500 17.500 315.500 L 30.500 315.500 30.786 305.750 C 30.970 299.505, 30.700 296, 30.036 296 C 29.398 296, 29 299.457, 29 305 L 29 314 24 314 L 19 314 19 305 C 19 299.667, 18.593 296, 18 296 C 17.407 296, 17 299.667, 17 305 L 17 314 11.500 314 L 6 314 6 305 C 6 299.457, 5.602 296, 4.964 296 C 4.300 296, 4.030 299.505, 4.214 305.750 M 36.425 297.334 C 36.144 298.067, 36.046 302.455, 36.207 307.084 L 36.500 315.500 44.914 315.793 C 50.971 316.004, 53.559 315.724, 54.149 314.793 C 55.447 312.747, 55.166 298.566, 53.800 297.200 C 52.063 295.463, 37.099 295.578, 36.425 297.334 M 60.667 296.667 C 59.573 297.760, 59.888 316, 61 316 C 61.593 316, 62 312.333, 62 307 L 62 298 67 298 C 69.750 298, 72 297.550, 72 297 C 72 295.899, 61.736 295.597, 60.667 296.667 M 105.607 297.582 C 104.819 299.634, 104.819 312.366, 105.607 314.418 C 106.093 315.684, 107.867 316, 114.500 316 C 124.140 316, 124 316.148, 124 306 C 124 295.852, 124.140 296, 114.500 296 C 107.867 296, 106.093 296.316, 105.607 297.582 M 129 296.960 C 129 297.487, 132.713 298.050, 137.250 298.210 L 145.500 298.500 145.500 306 L 145.500 313.500 138 313.500 L 130.500 313.500 130.500 309.500 L 130.500 305.500 137.250 305.204 C 146.059 304.818, 146.017 303, 137.200 303 C 129.356 303, 128 303.902, 128 309.118 C 128 315.821, 128.260 316, 138 316 C 148.205 316, 148 316.205, 148 306 C 148 295.784, 148.219 296, 137.893 296 C 132.881 296, 129 296.419, 129 296.960 M 188.667 296.667 C 187.573 297.760, 187.888 316, 189 316 C 189.593 316, 190 312.333, 190 307 L 190 298 195.500 298 L 201 298 201 307 C 201 312.333, 201.407 316, 202 316 C 202.593 316, 203 312.316, 203 306.948 L 203 297.895 208.250 298.198 L 213.500 298.500 213.789 307.250 C 213.948 312.063, 214.510 316, 215.039 316 C 216.085 316, 216.389 300.178, 215.393 297.582 C 214.884 296.254, 212.742 296, 202.060 296 C 195.060 296, 189.033 296.300, 188.667 296.667 M 221 296.962 C 221 297.598, 224.295 298, 229.500 298 L 238 298 238 306 L 238 314 230.500 314 L 223 314 223 309.500 L 223 305 230 305 C 234 305, 237 304.571, 237 304 C 237 303.423, 233.845 303, 229.535 303 C 221.315 303, 220 303.930, 220 309.743 C 220 315.246, 221.594 316.121, 231.019 315.794 L 239.500 315.500 239.500 306 L 239.500 296.500 230.250 296.212 C 224.342 296.029, 221 296.300, 221 296.962 M 245.704 296.630 C 244.585 297.748, 244.864 316, 246 316 C 246.593 316, 247 312.333, 247 307 L 247 298 254 298 L 261 298 261 307 C 261 312.543, 261.398 316, 262.036 316 C 262.700 316, 262.970 312.495, 262.786 306.250 L 262.500 296.500 254.454 296.213 C 250.028 296.055, 246.091 296.242, 245.704 296.630 M 269 296.960 C 269 297.487, 272.712 298.050, 277.250 298.210 L 285.500 298.500 285.500 306 L 285.500 313.500 277.690 313.793 L 269.881 314.086 270.190 309.793 L 270.500 305.500 277.250 305.204 C 286.102 304.817, 285.997 303, 277.122 303 C 268.868 303, 267.763 303.949, 268.192 310.672 L 268.500 315.500 277.415 315.791 C 283.873 316.002, 286.557 315.727, 287.150 314.791 C 288.447 312.747, 288.165 298.565, 286.800 297.200 C 285.351 295.751, 269 295.530, 269 296.960 M 292.056 297.896 C 290.700 300.429, 290.687 310.546, 292.035 313.066 C 292.907 314.694, 294.173 315, 300.035 315 C 304.012 315, 307 314.571, 307 314 C 307 313.438, 304.202 313, 300.607 313 C 293.402 313, 293 312.604, 293 305.500 C 293 298.255, 293.293 298, 301.607 298 L 309 298 309 309.500 C 309 316.729, 309.383 321, 310.031 321 C 310.698 321, 310.962 316.675, 310.781 308.750 L 310.500 296.500 301.806 296.212 C 294.010 295.954, 293.002 296.128, 292.056 297.896 M 316.056 297.896 C 314.699 300.430, 314.685 311.544, 316.035 314.066 C 316.940 315.757, 318.195 316, 326.035 316 C 331.345 316, 335 315.592, 335 315 C 335 314.413, 331.536 314, 326.607 314 C 317.100 314, 317 313.917, 317 306 C 317 298.199, 317.214 298, 325.607 298 L 333 298 333 302 L 333 306 326 306 C 321.812 306, 319 306.419, 319 307.042 C 319 307.700, 321.855 307.977, 326.750 307.792 L 334.500 307.500 334.500 302 L 334.500 296.500 325.806 296.212 C 318.010 295.954, 317.002 296.128, 316.056 297.896 M 339.667 296.667 C 338.573 297.760, 338.888 316, 340 316 C 340.593 316, 341 312.333, 341 307 L 341 298 346 298 C 348.750 298, 351 297.550, 351 297 C 351 295.899, 340.736 295.597, 339.667 296.667 M 38 306 L 38 314.088 45.250 313.794 L 52.500 313.500 52.500 306 L 52.500 298.500 45.250 298.206 L 38 297.912 38 306 M 107.435 299.309 C 107.139 300.080, 107.033 303.588, 107.199 307.105 L 107.500 313.500 114.500 313.500 L 121.500 313.500 121.500 306 L 121.500 298.500 114.736 298.204 C 109.651 297.981, 107.839 298.256, 107.435 299.309" stroke="none" fill="#000000" fill-rule="evenodd"/><path d="M 160.826 4.712 C 156.653 7.301, 155.998 10.037, 156.022 24.797 C 156.054 44.408, 156.695 45, 177.918 45 L 191.968 45 195.234 42.085 L 198.500 39.169 198.787 25.335 C 199.047 12.859, 198.875 11.178, 197.037 8.225 C 195.916 6.424, 193.845 4.511, 192.434 3.975 C 191.024 3.439, 183.937 3.012, 176.685 3.027 C 166.179 3.048, 162.957 3.390, 160.826 4.712 M 113.073 38.635 C 111.263 40.935, 111 42.657, 111 52.180 C 111 62.431, 111.148 63.239, 113.455 65.545 C 115.766 67.856, 116.558 68, 127 68 C 137.442 68, 138.234 67.856, 140.545 65.545 C 142.864 63.227, 143 62.459, 143 51.720 C 143 41.127, 142.842 40.200, 140.686 38.174 C 138.584 36.200, 137.305 36, 126.758 36 C 115.404 36, 115.099 36.059, 113.073 38.635 M 213.861 37.910 C 211.681 39.673, 211.474 40.669, 211.162 50.898 L 210.824 61.977 213.835 64.989 C 216.802 67.955, 217.002 68, 227.367 68 C 237.046 68, 238.113 67.807, 240.694 65.587 C 243.325 63.325, 243.522 62.605, 243.851 54.056 C 244.499 37.204, 243.416 36, 227.611 36 C 217.892 36, 215.875 36.280, 213.861 37.910 M 161.500 55.161 C 156.564 57.875, 156.046 59.677, 156.022 74.203 C 155.988 95.193, 156.761 96, 176.885 96 C 184.027 96, 191.024 95.561, 192.434 95.025 C 193.845 94.489, 195.916 92.576, 197.037 90.775 C 198.875 87.822, 199.047 86.141, 198.787 73.665 L 198.500 59.831 195.234 56.915 L 191.968 54 177.734 54.030 C 169.322 54.048, 162.682 54.511, 161.500 55.161 M 81 63.709 C 76.789 65.258, 76 67.119, 76 75.500 C 76 82.406, 76.312 83.972, 77.990 85.491 C 80.235 87.523, 88.068 88.585, 93.412 87.583 C 99.127 86.510, 100.002 84.926, 99.985 75.679 C 99.968 66.503, 99.619 65.566, 95.665 64.063 C 92.770 62.962, 83.631 62.742, 81 63.709 M 259.028 64.061 C 255.407 65.583, 255.032 66.668, 255.015 75.679 C 254.998 84.926, 255.873 86.510, 261.588 87.583 C 266.932 88.585, 274.765 87.523, 277.010 85.491 C 278.688 83.972, 279 82.406, 279 75.500 C 279 65.011, 277.817 63.676, 268.177 63.290 C 264.504 63.142, 260.388 63.490, 259.028 64.061 M 113.455 78.455 C 111.144 80.766, 111 81.558, 111 92 C 111 102.442, 111.144 103.234, 113.455 105.545 C 115.766 107.856, 116.558 108, 127 108 C 137.442 108, 138.234 107.856, 140.545 105.545 C 142.856 103.234, 143 102.442, 143 92 C 143 81.558, 142.856 80.766, 140.545 78.455 C 138.234 76.144, 137.442 76, 127 76 C 116.558 76, 115.766 76.144, 113.455 78.455 M 215.229 76.669 C 212.399 77.808, 211 82.885, 211 92.016 C 211 106.666, 212.307 107.924, 227.576 107.968 C 238.207 107.999, 238.749 107.896, 241.076 105.421 C 243.196 103.165, 243.544 101.720, 243.851 93.890 C 244.261 83.418, 243.753 80.780, 240.799 78.028 C 238.872 76.232, 237.355 76.009, 227.561 76.079 C 221.478 76.122, 215.928 76.388, 215.229 76.669 M 77.655 97.829 C 76.399 99.216, 76 101.629, 76 107.829 C 76 118.924, 77.061 120, 88 120 C 98.975 120, 100 118.946, 100 107.655 C 100 96.653, 99.318 96, 87.826 96 C 80.846 96, 79.012 96.330, 77.655 97.829 M 256.655 97.829 C 255.399 99.216, 255 101.629, 255 107.829 C 255 118.924, 256.061 120, 267 120 C 277.975 120, 279 118.946, 279 107.655 C 279 96.653, 278.318 96, 266.826 96 C 259.846 96, 258.012 96.330, 256.655 97.829 M 162.388 104.980 C 161.227 105.449, 159.314 107.057, 158.138 108.552 C 156.178 111.043, 156 112.473, 156 125.712 L 156 140.154 158.923 143.077 L 161.846 146 176.907 146 L 191.968 146 195.234 143.085 L 198.500 140.169 198.826 126.681 C 199.335 105.582, 197.793 103.962, 177.300 104.063 C 170.260 104.098, 163.550 104.511, 162.388 104.980 M 46.571 114.571 C 45.501 115.642, 45 118.009, 45 122 C 45 129.579, 46.363 131, 53.637 131 C 62.121 131, 63 130.171, 63 122.165 C 63 118.237, 62.497 114.897, 61.800 114.200 C 59.972 112.372, 48.491 112.652, 46.571 114.571 M 293.200 114.200 C 292.503 114.897, 292 118.237, 292 122.165 C 292 130.171, 292.879 131, 301.363 131 C 308.637 131, 310 129.579, 310 122 C 310 114.239, 308.710 113, 300.629 113 C 297.117 113, 293.876 113.524, 293.200 114.200 M 113.455 118.455 C 111.144 120.766, 111 121.558, 111 132 C 111 142.442, 111.144 143.234, 113.455 145.545 C 115.773 147.864, 116.541 148, 127.280 148 C 137.873 148, 138.800 147.842, 140.826 145.686 C 142.792 143.593, 143 142.295, 143 132.140 C 143 121.549, 142.860 120.769, 140.545 118.455 C 138.234 116.144, 137.442 116, 127 116 C 116.558 116, 115.766 116.144, 113.455 118.455 M 213.923 118.923 C 211.097 121.749, 211 122.166, 211 131.473 C 211 141.471, 212.336 146.148, 215.545 147.379 C 216.435 147.720, 222.077 148, 228.082 148 C 243.352 148, 244.495 146.691, 243.851 129.944 C 243.522 121.395, 243.325 120.675, 240.694 118.413 C 238.113 116.193, 237.046 116, 227.367 116 C 217.072 116, 216.783 116.063, 213.923 118.923 M 78 130 C 76.320 131.680, 76 133.333, 76 140.345 C 76 151.347, 76.682 152, 88.174 152 C 99.308 152, 100 151.308, 100 140.171 C 100 129.076, 98.939 128, 88 128 C 81.333 128, 79.667 128.333, 78 130 M 257 130 C 255.320 131.680, 255 133.333, 255 140.345 C 255 151.347, 255.682 152, 267.174 152 C 278.308 152, 279 151.308, 279 140.171 C 279 129.076, 277.939 128, 267 128 C 260.333 128, 258.667 128.333, 257 130 M 46.200 141.200 C 45.529 141.871, 45 145.089, 45 148.500 C 45 151.911, 45.529 155.129, 46.200 155.800 C 46.891 156.491, 50.200 157, 54 157 C 57.800 157, 61.109 156.491, 61.800 155.800 C 62.471 155.129, 63 151.911, 63 148.500 C 63 145.089, 62.471 141.871, 61.800 141.200 C 61.109 140.509, 57.800 140, 54 140 C 50.200 140, 46.891 140.509, 46.200 141.200 M 293.200 141.200 C 291.634 142.766, 291.634 154.234, 293.200 155.800 C 293.891 156.491, 297.200 157, 301 157 C 304.800 157, 308.109 156.491, 308.800 155.800 C 309.471 155.129, 310 151.911, 310 148.500 C 310 145.089, 309.471 141.871, 308.800 141.200 C 308.109 140.509, 304.800 140, 301 140 C 297.200 140, 293.891 140.509, 293.200 141.200 M 20.200 149.200 C 18.644 150.756, 18.644 159.244, 20.200 160.800 C 21.624 162.224, 28.863 162.372, 31 161.021 C 32.012 160.382, 32.500 158.421, 32.500 155 C 32.500 151.579, 32.012 149.618, 31 148.979 C 28.863 147.628, 21.624 147.776, 20.200 149.200 M 324 148.979 C 322.988 149.618, 322.500 151.579, 322.500 155 C 322.500 158.421, 322.988 160.382, 324 161.021 C 326.137 162.372, 333.376 162.224, 334.800 160.800 C 336.356 159.244, 336.356 150.756, 334.800 149.200 C 333.376 147.776, 326.137 147.628, 324 148.979 M 83.280 165.736 C 85.909 165.943, 89.959 165.940, 92.280 165.731 C 94.601 165.521, 92.450 165.352, 87.500 165.355 C 82.550 165.358, 80.651 165.530, 83.280 165.736 M 110.445 227 C 110.445 244.325, 110.582 251.412, 110.748 242.750 C 110.915 234.087, 110.915 219.912, 110.748 211.250 C 110.582 202.587, 110.445 209.675, 110.445 227 M 127.439 223 C 127.439 238.125, 127.578 244.313, 127.748 236.750 C 127.917 229.188, 127.917 216.813, 127.748 209.250 C 127.578 201.688, 127.439 207.875, 127.439 223 M 162.437 222 C 162.437 236.575, 162.577 242.537, 162.747 235.250 C 162.918 227.963, 162.918 216.037, 162.747 208.750 C 162.577 201.463, 162.437 207.425, 162.437 222 M 179.444 226 C 179.444 242.775, 179.581 249.637, 179.748 241.250 C 179.915 232.863, 179.915 219.137, 179.748 210.750 C 179.581 202.363, 179.444 209.225, 179.444 226 M 238.196 203.219 L 238 210.938 225.750 211.253 L 213.500 211.568 225.781 211.784 C 235.319 211.952, 238.178 211.699, 238.581 210.651 C 238.865 209.909, 238.939 206.196, 238.745 202.401 L 238.392 195.500 238.196 203.219 M 250.445 238 C 250.445 255.325, 250.582 262.413, 250.748 253.750 C 250.915 245.087, 250.915 230.912, 250.748 222.250 C 250.582 213.587, 250.445 220.675, 250.445 238 M 32.750 210.746 C 38.388 210.924, 47.612 210.924, 53.250 210.746 C 58.888 210.568, 54.275 210.422, 43 210.422 C 31.725 210.422, 27.112 210.568, 32.750 210.746 M 276.250 211.739 C 279.413 211.937, 284.587 211.937, 287.750 211.739 C 290.913 211.541, 288.325 211.378, 282 211.378 C 275.675 211.378, 273.087 211.541, 276.250 211.739 M 309.234 240.250 L 309.468 269.500 309.749 240.783 L 310.031 212.065 321.265 211.746 L 332.500 211.428 320.750 211.214 L 309 211 309.234 240.250 M 267.438 242.500 C 267.437 257.350, 267.576 263.564, 267.747 256.310 C 267.918 249.055, 267.918 236.905, 267.748 229.310 C 267.578 221.714, 267.438 227.650, 267.438 242.500 M 17.250 238.745 C 22.062 238.928, 29.937 238.928, 34.750 238.745 C 39.563 238.561, 35.625 238.411, 26 238.411 C 16.375 238.411, 12.437 238.561, 17.250 238.745 M 137.750 253.743 C 141.738 253.932, 148.262 253.932, 152.250 253.743 C 156.238 253.553, 152.975 253.397, 145 253.397 C 137.025 253.397, 133.762 253.553, 137.750 253.743 M 78.160 295.750 C 78.072 300.837, 78.338 305.001, 78.750 305.002 C 79.162 305.003, 79.375 302.190, 79.222 298.752 C 78.719 287.466, 78.323 286.345, 78.160 295.750 M 99.997 301.703 C 99.723 310.065, 99.850 316.554, 100.279 316.125 C 100.707 315.695, 100.930 308.853, 100.775 300.921 L 100.493 286.500 99.997 301.703 M 171.395 300.500 C 171.396 308.200, 171.553 311.218, 171.743 307.206 C 171.934 303.195, 171.932 296.895, 171.741 293.206 C 171.549 289.518, 171.393 292.800, 171.395 300.500 M 3.425 296.334 C 3.144 297.067, 3.067 301.455, 3.253 306.084 L 3.593 314.500 3.796 305.333 C 3.935 299.098, 4.400 296.005, 5.250 295.662 C 6.229 295.267, 6.222 295.141, 5.219 295.079 C 4.514 295.036, 3.707 295.600, 3.425 296.334 M 16.425 296.334 C 16.144 297.067, 16.067 301.455, 16.253 306.084 L 16.593 314.500 16.796 305.333 C 16.935 299.098, 17.400 296.005, 18.250 295.662 C 19.229 295.267, 19.222 295.141, 18.219 295.079 C 17.514 295.036, 16.707 295.600, 16.425 296.334 M 29.708 295.707 C 30.447 296.232, 31.054 300.047, 31.273 305.533 L 31.630 314.500 31.565 305.081 C 31.513 297.594, 31.192 295.578, 30 295.255 C 28.934 294.965, 28.849 295.096, 29.708 295.707 M 41.250 295.728 C 43.313 295.944, 46.688 295.944, 48.750 295.728 C 50.813 295.513, 49.125 295.336, 45 295.336 C 40.875 295.336, 39.188 295.513, 41.250 295.728 M 64.250 295.716 C 65.763 295.945, 68.237 295.945, 69.750 295.716 C 71.263 295.487, 70.025 295.300, 67 295.300 C 63.975 295.300, 62.737 295.487, 64.250 295.716 M 89.872 296.750 C 88.680 298.271, 88.697 298.354, 90 297.384 C 90.825 296.771, 92.175 296.019, 93 295.713 C 94.255 295.249, 94.234 295.145, 92.872 295.079 C 91.977 295.036, 90.627 295.788, 89.872 296.750 M 110.728 295.722 C 112.503 295.943, 115.653 295.946, 117.728 295.730 C 119.802 295.513, 118.350 295.333, 114.500 295.328 C 110.650 295.324, 108.952 295.501, 110.728 295.722 M 128.667 295.667 C 128.300 296.033, 128.007 296.821, 128.015 297.417 C 128.025 298.093, 128.318 298.048, 128.796 297.296 C 129.254 296.575, 132.760 295.954, 137.531 295.747 L 145.500 295.402 137.417 295.201 C 132.971 295.091, 129.033 295.300, 128.667 295.667 M 195.750 295.740 C 199.188 295.936, 204.813 295.936, 208.250 295.740 C 211.688 295.545, 208.875 295.385, 202 295.385 C 195.125 295.385, 192.313 295.545, 195.750 295.740 M 225.280 295.736 C 227.909 295.943, 231.959 295.940, 234.280 295.731 C 236.601 295.521, 234.450 295.352, 229.500 295.355 C 224.550 295.358, 222.651 295.530, 225.280 295.736 M 250.250 295.728 C 252.313 295.944, 255.688 295.944, 257.750 295.728 C 259.813 295.513, 258.125 295.336, 254 295.336 C 249.875 295.336, 248.188 295.513, 250.250 295.728 M 268.667 295.667 C 268.300 296.033, 268.007 296.821, 268.015 297.417 C 268.025 298.093, 268.318 298.048, 268.796 297.296 C 269.254 296.575, 272.760 295.954, 277.531 295.747 L 285.500 295.402 277.417 295.201 C 272.971 295.091, 269.033 295.300, 268.667 295.667 M 297.776 295.733 C 300.128 295.945, 303.728 295.942, 305.776 295.727 C 307.824 295.512, 305.900 295.339, 301.500 295.343 C 297.100 295.346, 295.424 295.522, 297.776 295.733 M 321.776 295.733 C 324.128 295.945, 327.728 295.942, 329.776 295.727 C 331.824 295.512, 329.900 295.339, 325.500 295.343 C 321.100 295.346, 319.424 295.522, 321.776 295.733 M 345.481 295.714 C 348.220 295.942, 350.842 296.662, 351.307 297.314 C 351.894 298.138, 352.029 298.042, 351.748 297 C 351.456 295.918, 349.833 295.472, 345.921 295.400 L 340.500 295.300 345.481 295.714 M 59.435 306.919 C 59.487 314.406, 59.808 316.422, 61 316.745 C 62.066 317.035, 62.151 316.904, 61.292 316.293 C 60.553 315.768, 59.946 311.953, 59.727 306.467 L 59.370 297.500 59.435 306.919 M 190.204 306.667 C 190.065 312.902, 189.600 315.995, 188.750 316.338 C 187.771 316.733, 187.778 316.859, 188.781 316.921 C 190.756 317.043, 191.115 315.033, 190.747 305.916 L 190.407 297.500 190.204 306.667 M 200.435 306.919 C 200.487 314.406, 200.808 316.422, 202 316.745 C 203.066 317.035, 203.151 316.904, 202.292 316.293 C 201.553 315.768, 200.946 311.953, 200.727 306.467 L 200.370 297.500 200.435 306.919 M 263.204 306.667 C 263.065 312.902, 262.600 315.995, 261.750 316.338 C 260.771 316.733, 260.778 316.859, 261.781 316.921 C 263.756 317.043, 264.115 315.033, 263.747 305.916 L 263.407 297.500 263.204 306.667 M 52.336 306 C 52.336 310.125, 52.513 311.813, 52.728 309.750 C 52.944 307.688, 52.944 304.313, 52.728 302.250 C 52.513 300.188, 52.336 301.875, 52.336 306 M 107.336 306 C 107.336 310.125, 107.513 311.813, 107.728 309.750 C 107.944 307.688, 107.944 304.313, 107.728 302.250 C 107.513 300.188, 107.336 301.875, 107.336 306 M 121.336 306 C 121.336 310.125, 121.513 311.813, 121.728 309.750 C 121.944 307.688, 121.944 304.313, 121.728 302.250 C 121.513 300.188, 121.336 301.875, 121.336 306 M 213.432 307.419 C 213.486 314.460, 213.816 316.424, 215 316.745 C 216.064 317.034, 216.150 316.903, 215.294 316.294 C 214.570 315.780, 213.943 312.048, 213.726 306.968 L 213.365 298.500 213.432 307.419 M 240.336 306 C 240.336 310.125, 240.513 311.813, 240.728 309.750 C 240.944 307.688, 240.944 304.313, 240.728 302.250 C 240.513 300.188, 240.336 301.875, 240.336 306 M 284.659 301.954 C 284.082 304.838, 283.911 304.914, 277.284 305.204 L 270.500 305.500 270.390 310 L 270.280 314.500 270.694 310.330 L 271.107 306.160 278.011 305.830 L 284.914 305.500 285.282 309.500 C 285.497 311.831, 285.723 310.474, 285.825 306.250 C 286.011 298.548, 285.625 297.126, 284.659 301.954 M 311.374 309.500 C 311.376 315.550, 311.541 317.896, 311.740 314.713 C 311.939 311.531, 311.937 306.581, 311.736 303.713 C 311.535 300.846, 311.372 303.450, 311.374 309.500 M 335.232 302 C 335.232 303.925, 335.438 304.712, 335.689 303.750 C 335.941 302.788, 335.941 301.212, 335.689 300.250 C 335.438 299.288, 335.232 300.075, 335.232 302 M 293.310 305.500 C 293.315 308.800, 293.502 310.029, 293.725 308.232 C 293.947 306.435, 293.943 303.735, 293.715 302.232 C 293.486 300.729, 293.304 302.200, 293.310 305.500 M 317.320 306 C 317.320 309.575, 317.502 311.038, 317.723 309.250 C 317.945 307.462, 317.945 304.538, 317.723 302.750 C 317.502 300.962, 317.320 302.425, 317.320 306 M 144 303.788 C 144 304.476, 141.393 305.023, 137.250 305.204 L 130.500 305.500 130.411 309 C 130.321 312.487, 130.323 312.488, 130.721 309.250 L 131.121 306 137.501 306 C 143.265 306, 146.202 304.869, 144.600 303.267 C 144.270 302.937, 144 303.171, 144 303.788 M 226.250 305.728 C 228.313 305.944, 231.688 305.944, 233.750 305.728 C 235.813 305.513, 234.125 305.336, 230 305.336 C 225.875 305.336, 224.188 305.513, 226.250 305.728 M 78.168 311.167 C 78.072 313.823, 77.461 316.051, 76.750 316.338 C 75.771 316.733, 75.778 316.859, 76.781 316.921 C 78.563 317.031, 79.203 314.880, 78.735 310.355 C 78.349 306.627, 78.331 306.654, 78.168 311.167 M 296.728 312.722 C 298.503 312.943, 301.653 312.946, 303.728 312.730 C 305.802 312.513, 304.350 312.333, 300.500 312.328 C 296.650 312.324, 294.952 312.501, 296.728 312.722 M 92.792 314.153 C 93.847 315.503, 93.847 315.900, 92.792 316.324 C 91.905 316.680, 91.874 316.867, 92.691 316.921 C 94.739 317.057, 95.056 315.288, 93.239 313.863 C 91.688 312.647, 91.639 312.678, 92.792 314.153 M 11.789 316.741 C 15.248 316.937, 20.648 316.936, 23.789 316.738 C 26.930 316.540, 24.100 316.380, 17.500 316.382 C 10.900 316.384, 8.330 316.546, 11.789 316.741 M 41.250 316.728 C 43.313 316.944, 46.688 316.944, 48.750 316.728 C 50.813 316.513, 49.125 316.336, 45 316.336 C 40.875 316.336, 39.188 316.513, 41.250 316.728 M 111.250 316.728 C 113.313 316.944, 116.688 316.944, 118.750 316.728 C 120.813 316.513, 119.125 316.336, 115 316.336 C 110.875 316.336, 109.188 316.513, 111.250 316.728 M 134.776 316.733 C 137.128 316.945, 140.728 316.942, 142.776 316.727 C 144.824 316.512, 142.900 316.339, 138.500 316.343 C 134.100 316.346, 132.424 316.522, 134.776 316.733 M 158.250 316.728 C 160.313 316.944, 163.688 316.944, 165.750 316.728 C 167.813 316.513, 166.125 316.336, 162 316.336 C 157.875 316.336, 156.188 316.513, 158.250 316.728 M 226.776 316.733 C 229.128 316.945, 232.728 316.942, 234.776 316.727 C 236.824 316.512, 234.900 316.339, 230.500 316.343 C 226.100 316.346, 224.424 316.522, 226.776 316.733 M 273.776 316.733 C 276.128 316.945, 279.728 316.942, 281.776 316.727 C 283.824 316.512, 281.900 316.339, 277.500 316.343 C 273.100 316.346, 271.424 316.522, 273.776 316.733 M 322.280 316.736 C 324.909 316.943, 328.959 316.940, 331.280 316.731 C 333.601 316.521, 331.450 316.352, 326.500 316.355 C 321.550 316.358, 319.651 316.530, 322.280 316.736" stroke="none" fill="#42afeb" fill-rule="evenodd"/></svg>