<svg xmlns="http://www.w3.org/2000/svg" width="630" height="354" viewBox="0 0 630 354" version="1.1"><path d="M 216 231.540 L 216 283.081 224.250 282.790 L 232.500 282.500 232.759 231.250 L 233.018 180 224.509 180 L 216 180 216 231.540 M 146.255 211.117 C 140.378 212.815, 139.500 215.544, 139.500 232.125 C 139.500 246.321, 139.585 246.930, 141.924 249.419 L 144.349 252 161.924 252.015 C 183.196 252.033, 184.363 252.408, 184.809 259.380 C 185.357 267.941, 185.188 268, 160.301 268 L 138.912 268 139.206 275.250 L 139.500 282.500 164.620 282.767 C 193.502 283.074, 196.435 282.586, 199.287 277 C 200.803 274.031, 201.031 271.342, 200.787 259.275 C 200.389 239.527, 201.732 240.594, 176.751 240.187 C 164.748 239.992, 157.058 239.463, 156.232 238.777 C 155.351 238.047, 155.008 235.821, 155.205 232.115 C 155.625 224.201, 156.146 224.033, 180.250 224.015 L 200 224 200 217 L 200 210 174.750 210.090 C 160.863 210.140, 148.040 210.602, 146.255 211.117 M 248.004 242.250 C 248.007 272.297, 248.139 274.715, 249.929 277.651 C 252.690 282.180, 258.008 283.011, 283.799 282.944 C 308.638 282.879, 311.600 282.301, 314.248 277 C 315.803 273.889, 315.997 269.974, 315.998 241.750 L 316 210 308.046 210 L 300.092 210 299.796 236.897 C 299.523 261.706, 299.352 263.957, 297.595 265.897 C 295.834 267.841, 294.646 268, 281.845 268 C 262.435 268, 264 270.719, 264 237 L 264 210 256 210 L 248 210 248.004 242.250 M 338.500 210.719 C 337.400 210.987, 335.650 211.948, 334.612 212.853 C 330.330 216.588, 330 219.390, 330 251.968 L 330 283 338.500 283 L 347 283 347 255.557 C 347 222.352, 345.594 225, 363.223 225 L 375 225 375 217.500 L 375 210 357.750 210.116 C 348.262 210.180, 339.600 210.451, 338.500 210.719 M 395.212 211.103 C 393.217 211.694, 391.153 213.340, 389.966 215.288 C 388.129 218.301, 388.007 220.493, 388.004 250.750 L 388 283 395.955 283 L 403.910 283 404.205 255.418 C 404.483 229.455, 404.614 227.753, 406.441 226.418 C 407.833 225.401, 411.437 225, 419.176 225 L 429.969 225 430.235 253.750 L 430.500 282.500 438.250 282.792 L 446 283.084 446 254.042 L 446 225 457.345 225 C 467.066 225, 468.927 225.262, 470.345 226.829 C 471.800 228.436, 472 231.949, 472 255.829 L 472 283 480.500 283 L 489 283 489 252.020 C 489 217.965, 488.516 214.621, 483.196 211.886 C 481.046 210.781, 472.196 210.462, 439.500 210.314 C 415.214 210.204, 397.160 210.526, 395.212 211.103 M 213 315.500 C 213 324.500, 213.379 330, 214 330 C 214.550 330, 215 327.975, 215 325.500 C 215 323.025, 215.400 321, 215.890 321 C 216.379 321, 219.531 323.025, 222.893 325.500 C 228.671 329.754, 231.876 331.227, 230.497 328.995 C 230.155 328.442, 227.163 326.148, 223.847 323.896 L 217.817 319.801 224.637 315.227 C 228.387 312.711, 230.917 310.472, 230.259 310.253 C 229.601 310.034, 226.179 311.912, 222.654 314.427 C 219.130 316.942, 215.966 319, 215.623 319 C 215.280 319, 215 314.950, 215 310 C 215 304.667, 214.593 301, 214 301 C 213.379 301, 213 306.500, 213 315.500 M 235 315.500 C 235 324.500, 235.379 330, 236 330 C 236.621 330, 237 324.500, 237 315.500 C 237 306.500, 236.621 301, 236 301 C 235.379 301, 235 306.500, 235 315.500 M 306 314.500 L 306 328 299 328 L 292 328 292 320.048 L 292 312.095 298.250 311.798 C 305.906 311.433, 306.123 309.615, 298.560 309.202 C 290.759 308.775, 289 310.727, 289 319.809 C 289 329.475, 289.722 330.160, 299.520 329.796 L 307.500 329.500 307.777 315.250 C 307.958 305.983, 307.696 301, 307.027 301 C 306.375 301, 306 305.926, 306 314.500 M 141.214 319.750 L 141.500 329.500 154.500 329.500 L 167.500 329.500 167.786 319.750 C 167.970 313.505, 167.700 310, 167.036 310 C 166.398 310, 166 313.457, 166 319 L 166 328 161 328 L 156 328 156 319 C 156 313.667, 155.593 310, 155 310 C 154.407 310, 154 313.667, 154 319 L 154 328 148.500 328 L 143 328 143 319 C 143 313.457, 142.602 310, 141.964 310 C 141.300 310, 141.030 313.505, 141.214 319.750 M 173.425 311.334 C 173.144 312.067, 173.046 316.455, 173.207 321.084 L 173.500 329.500 181.914 329.793 C 187.971 330.004, 190.559 329.724, 191.149 328.793 C 192.447 326.747, 192.166 312.566, 190.800 311.200 C 189.063 309.463, 174.099 309.578, 173.425 311.334 M 197.667 310.667 C 196.573 311.760, 196.888 330, 198 330 C 198.593 330, 199 326.333, 199 321 L 199 312 204 312 C 206.750 312, 209 311.550, 209 311 C 209 309.899, 198.736 309.597, 197.667 310.667 M 242.607 311.582 C 242.273 312.452, 242 316.240, 242 320 C 242 330.148, 241.860 330, 251.500 330 C 261.140 330, 261 330.148, 261 320 C 261 309.852, 261.140 310, 251.500 310 C 244.867 310, 243.093 310.316, 242.607 311.582 M 266 310.960 C 266 311.487, 269.712 312.050, 274.250 312.210 L 282.500 312.500 282.500 320 L 282.500 327.500 275 327.500 L 267.500 327.500 267.500 323.500 L 267.500 319.500 274.250 319.204 C 283.059 318.818, 283.017 317, 274.200 317 C 266.356 317, 265 317.902, 265 323.118 C 265 329.821, 265.260 330, 275 330 C 285.205 330, 285 330.205, 285 320 C 285 309.784, 285.219 310, 274.893 310 C 269.881 310, 266 310.419, 266 310.960 M 325.667 310.667 C 324.573 311.760, 324.888 330, 326 330 C 326.593 330, 327 326.333, 327 321 L 327 312 332.500 312 L 338 312 338 321 C 338 326.333, 338.407 330, 339 330 C 339.593 330, 340 326.316, 340 320.948 L 340 311.895 345.250 312.198 L 350.500 312.500 350.789 321.250 C 350.948 326.063, 351.510 330, 352.039 330 C 353.085 330, 353.389 314.178, 352.393 311.582 C 351.884 310.254, 349.742 310, 339.060 310 C 332.060 310, 326.033 310.300, 325.667 310.667 M 358 310.962 C 358 311.598, 361.295 312, 366.500 312 L 375 312 375 320 L 375 328 367.500 328 L 360 328 360 323.500 L 360 319 367 319 C 371 319, 374 318.571, 374 318 C 374 317.423, 370.845 317, 366.535 317 C 358.315 317, 357 317.930, 357 323.743 C 357 329.246, 358.594 330.121, 368.019 329.794 L 376.500 329.500 376.500 320 L 376.500 310.500 367.250 310.212 C 361.342 310.029, 358 310.300, 358 310.962 M 382.704 310.630 C 381.585 311.748, 381.864 330, 383 330 C 383.593 330, 384 326.333, 384 321 L 384 312 391 312 L 398 312 398 321 C 398 326.543, 398.398 330, 399.036 330 C 399.700 330, 399.970 326.495, 399.786 320.250 L 399.500 310.500 391.454 310.213 C 387.028 310.055, 383.091 310.242, 382.704 310.630 M 406 310.960 C 406 311.487, 409.712 312.050, 414.250 312.210 L 422.500 312.500 422.500 320 L 422.500 327.500 414.690 327.793 L 406.881 328.086 407.190 323.793 L 407.500 319.500 414.250 319.204 C 423.102 318.817, 422.997 317, 414.122 317 C 405.868 317, 404.763 317.949, 405.192 324.672 L 405.500 329.500 414.415 329.791 C 420.873 330.002, 423.557 329.727, 424.150 328.791 C 425.447 326.747, 425.165 312.565, 423.800 311.200 C 422.351 309.751, 406 309.530, 406 310.960 M 429.056 311.896 C 427.700 314.429, 427.687 324.546, 429.035 327.066 C 429.907 328.694, 431.173 329, 437.035 329 C 441.012 329, 444 328.571, 444 328 C 444 327.438, 441.202 327, 437.607 327 C 430.402 327, 430 326.604, 430 319.500 C 430 312.255, 430.293 312, 438.607 312 L 446 312 446 323.500 L 446 335 439.500 335 C 435.651 335, 433 335.426, 433 336.044 C 433 336.700, 435.693 336.978, 440.250 336.794 L 447.500 336.500 447.500 323.500 L 447.500 310.500 438.806 310.212 C 431.010 309.954, 430.002 310.128, 429.056 311.896 M 453.056 311.896 C 451.699 314.430, 451.685 325.544, 453.035 328.066 C 453.940 329.757, 455.195 330, 463.035 330 C 468.345 330, 472 329.592, 472 329 C 472 328.413, 468.536 328, 463.607 328 C 454.100 328, 454 327.917, 454 320 C 454 312.199, 454.214 312, 462.607 312 L 470 312 470 316 L 470 320 463 320 C 458.812 320, 456 320.419, 456 321.042 C 456 321.700, 458.855 321.977, 463.750 321.792 L 471.500 321.500 471.500 316 L 471.500 310.500 462.806 310.212 C 455.010 309.954, 454.002 310.128, 453.056 311.896 M 476.667 310.667 C 475.573 311.760, 475.888 330, 477 330 C 477.593 330, 478 326.333, 478 321 L 478 312 483 312 C 485.750 312, 488 311.550, 488 311 C 488 309.899, 477.736 309.597, 476.667 310.667 M 175 320 L 175 328.088 182.250 327.794 L 189.500 327.500 189.500 320 L 189.500 312.500 182.250 312.206 L 175 311.912 175 320 M 244.435 313.309 C 244.139 314.080, 244.033 317.588, 244.199 321.105 L 244.500 327.500 251.500 327.500 L 258.500 327.500 258.500 320 L 258.500 312.500 251.736 312.204 C 246.651 311.981, 244.839 312.256, 244.435 313.309" stroke="none" fill="#000000" fill-rule="evenodd"/><path d="M 297.826 18.712 C 293.653 21.301, 292.998 24.037, 293.022 38.797 C 293.054 58.408, 293.695 59, 314.918 59 L 328.968 59 332.234 56.085 L 335.500 53.169 335.787 39.335 C 336.047 26.859, 335.875 25.178, 334.037 22.225 C 332.916 20.424, 330.845 18.511, 329.434 17.975 C 328.024 17.439, 320.937 17.012, 313.685 17.027 C 303.179 17.048, 299.957 17.390, 297.826 18.712 M 250.455 52.455 C 248.144 54.766, 248 55.558, 248 66 C 248 76.442, 248.144 77.234, 250.455 79.545 C 252.766 81.856, 253.558 82, 264 82 C 274.442 82, 275.234 81.856, 277.545 79.545 C 279.864 77.227, 280 76.459, 280 65.720 C 280 55.127, 279.842 54.200, 277.686 52.174 C 275.593 50.208, 274.295 50, 264.140 50 C 253.549 50, 252.769 50.140, 250.455 52.455 M 352.229 50.669 C 349.346 51.829, 348 56.877, 348 66.527 C 348 75.834, 348.097 76.251, 350.923 79.077 C 353.783 81.937, 354.072 82, 364.367 82 C 374.046 82, 375.113 81.807, 377.694 79.587 C 380.325 77.325, 380.522 76.605, 380.851 68.056 C 381.252 57.607, 380.740 54.740, 377.975 51.975 C 376.232 50.232, 374.681 50.009, 364.750 50.079 C 358.563 50.122, 352.928 50.388, 352.229 50.669 M 298.500 69.161 C 293.564 71.875, 293.046 73.677, 293.022 88.203 C 292.988 109.087, 293.860 110, 313.839 110 C 321.006 110, 328.024 109.561, 329.434 109.025 C 330.845 108.489, 332.916 106.576, 334.037 104.775 C 335.875 101.822, 336.047 100.141, 335.787 87.665 L 335.500 73.831 332.234 70.915 L 328.968 68 314.734 68.030 C 306.322 68.048, 299.682 68.511, 298.500 69.161 M 214.655 79.829 C 213.405 81.210, 213 83.618, 213 89.674 C 213 100.319, 213.737 101, 225.257 101 C 236.504 101, 237 100.514, 237 89.500 C 237 78.458, 236.525 78, 225.084 78 C 217.854 78, 216.019 78.322, 214.655 79.829 M 393.571 79.571 C 392.394 80.749, 392 83.236, 392 89.500 C 392 100.542, 392.475 101, 403.916 101 C 415.312 101, 416 100.335, 416 89.326 C 416 78.681, 415.263 78, 403.743 78 C 397.258 78, 394.756 78.386, 393.571 79.571 M 250.455 92.455 C 248.144 94.766, 248 95.558, 248 106 C 248 116.442, 248.144 117.234, 250.455 119.545 C 252.766 121.856, 253.558 122, 264 122 C 274.442 122, 275.234 121.856, 277.545 119.545 C 279.856 117.234, 280 116.442, 280 106 C 280 95.558, 279.856 94.766, 277.545 92.455 C 275.234 90.144, 274.442 90, 264 90 C 253.558 90, 252.766 90.144, 250.455 92.455 M 352.229 90.669 C 349.399 91.808, 348 96.885, 348 106.016 C 348 120.590, 349.354 121.924, 364.194 121.968 C 374.081 121.998, 375.100 121.818, 377.694 119.587 C 380.452 117.214, 380.500 116.987, 380.500 106.167 C 380.500 95.895, 380.338 94.989, 378.076 92.581 C 375.742 90.097, 375.237 90.003, 364.576 90.079 C 358.484 90.122, 352.928 90.388, 352.229 90.669 M 214.655 111.829 C 213.406 113.209, 213 115.615, 213 121.638 C 213 132.724, 213.635 133.409, 224.321 133.849 C 231.868 134.159, 233.034 133.966, 234.901 132.099 C 236.698 130.302, 237 128.797, 237 121.655 C 237 110.653, 236.318 110, 224.826 110 C 217.846 110, 216.012 110.330, 214.655 111.829 M 393.655 111.829 C 392.399 113.216, 392 115.629, 392 121.829 C 392 132.924, 393.061 134, 404 134 C 414.975 134, 416 132.946, 416 121.655 C 416 110.653, 415.318 110, 403.826 110 C 396.846 110, 395.012 110.330, 393.655 111.829 M 299.388 118.980 C 298.227 119.449, 296.314 121.057, 295.138 122.552 C 293.178 125.043, 293 126.473, 293 139.712 L 293 154.154 295.923 157.077 L 298.846 160 313.907 160 L 328.968 160 332.234 157.085 L 335.500 154.169 335.826 140.681 C 336.335 119.582, 334.793 117.962, 314.300 118.063 C 307.260 118.098, 300.550 118.511, 299.388 118.980 M 183.571 128.571 C 182.501 129.642, 182 132.009, 182 136 C 182 139.991, 182.501 142.358, 183.571 143.429 C 184.642 144.499, 187.009 145, 191 145 C 198.761 145, 200 143.710, 200 135.629 C 200 132.117, 199.476 128.876, 198.800 128.200 C 196.972 126.372, 185.491 126.652, 183.571 128.571 M 430.200 128.200 C 429.524 128.876, 429 132.117, 429 135.629 C 429 143.710, 430.239 145, 438 145 C 445.673 145, 447 143.673, 447 136 C 447 128.239, 445.710 127, 437.629 127 C 434.117 127, 430.876 127.524, 430.200 128.200 M 250.455 132.455 C 248.144 134.766, 248 135.558, 248 146 C 248 156.442, 248.144 157.234, 250.455 159.545 C 252.761 161.852, 253.569 162, 263.820 162 C 273.343 162, 275.065 161.737, 277.365 159.927 C 279.938 157.904, 280 157.585, 280 146.382 C 280 135.534, 279.866 134.775, 277.545 132.455 C 275.234 130.144, 274.442 130, 264 130 C 253.558 130, 252.766 130.144, 250.455 132.455 M 350.923 132.923 C 348.097 135.749, 348 136.166, 348 145.473 C 348 155.471, 349.336 160.148, 352.545 161.379 C 353.435 161.720, 359.077 162, 365.082 162 C 380.352 162, 381.495 160.691, 380.851 143.944 C 380.522 135.395, 380.325 134.675, 377.694 132.413 C 375.113 130.193, 374.046 130, 364.367 130 C 354.072 130, 353.783 130.063, 350.923 132.923 M 215 144 C 213.343 145.657, 213 147.333, 213 153.777 C 213 165.165, 213.813 166, 224.902 166 C 236.343 166, 237 165.357, 237 154.171 C 237 143.076, 235.939 142, 225 142 C 218.333 142, 216.667 142.333, 215 144 M 394 144 C 392.320 145.680, 392 147.333, 392 154.345 C 392 165.347, 392.682 166, 404.174 166 C 415.308 166, 416 165.308, 416 154.171 C 416 143.076, 414.939 142, 404 142 C 397.333 142, 395.667 142.333, 394 144 M 183.200 155.200 C 182.529 155.871, 182 159.089, 182 162.500 C 182 165.911, 182.529 169.129, 183.200 169.800 C 183.891 170.491, 187.200 171, 191 171 C 194.800 171, 198.109 170.491, 198.800 169.800 C 199.471 169.129, 200 165.911, 200 162.500 C 200 159.089, 199.471 155.871, 198.800 155.200 C 198.109 154.509, 194.800 154, 191 154 C 187.200 154, 183.891 154.509, 183.200 155.200 M 430.200 155.200 C 428.634 156.766, 428.634 168.234, 430.200 169.800 C 430.891 170.491, 434.200 171, 438 171 C 441.800 171, 445.109 170.491, 445.800 169.800 C 446.471 169.129, 447 165.911, 447 162.500 C 447 159.089, 446.471 155.871, 445.800 155.200 C 445.109 154.509, 441.800 154, 438 154 C 434.200 154, 430.891 154.509, 430.200 155.200 M 157.200 163.200 C 156.540 163.860, 156 166.470, 156 169 C 156 174.572, 157.248 176, 162.118 176 C 168.442 176, 169 175.432, 169 169 C 169 164.646, 168.608 163.064, 167.418 162.607 C 164.727 161.574, 158.462 161.938, 157.200 163.200 M 461.250 162.662 C 459.283 163.456, 459.574 174.623, 461.582 175.393 C 464.273 176.426, 470.538 176.062, 471.800 174.800 C 473.356 173.244, 473.356 164.756, 471.800 163.200 C 470.622 162.022, 463.709 161.670, 461.250 162.662 M 220.280 179.736 C 222.909 179.943, 226.959 179.940, 229.280 179.731 C 231.601 179.521, 229.450 179.352, 224.500 179.355 C 219.550 179.358, 217.651 179.530, 220.280 179.736 M 247.445 241 C 247.445 258.325, 247.582 265.413, 247.748 256.750 C 247.915 248.087, 247.915 233.912, 247.748 225.250 C 247.582 216.587, 247.445 223.675, 247.445 241 M 264.439 237 C 264.439 252.125, 264.578 258.313, 264.748 250.750 C 264.917 243.188, 264.917 230.813, 264.748 223.250 C 264.578 215.688, 264.439 221.875, 264.439 237 M 299.437 236 C 299.437 250.575, 299.577 256.538, 299.747 249.250 C 299.918 241.963, 299.918 230.037, 299.747 222.750 C 299.577 215.463, 299.437 221.425, 299.437 236 M 316.444 240 C 316.444 256.775, 316.581 263.637, 316.748 255.250 C 316.915 246.863, 316.915 233.137, 316.748 224.750 C 316.581 216.363, 316.444 223.225, 316.444 240 M 375.196 217.219 L 375 224.938 362.750 225.253 L 350.500 225.568 362.781 225.784 C 372.319 225.952, 375.178 225.699, 375.581 224.651 C 375.865 223.909, 375.939 220.196, 375.745 216.401 L 375.392 209.500 375.196 217.219 M 387.445 252 C 387.445 269.325, 387.582 276.413, 387.748 267.750 C 387.915 259.087, 387.915 244.912, 387.748 236.250 C 387.582 227.587, 387.445 234.675, 387.445 252 M 169.750 224.746 C 175.387 224.924, 184.613 224.924, 190.250 224.746 C 195.887 224.568, 191.275 224.422, 180 224.422 C 168.725 224.422, 164.113 224.568, 169.750 224.746 M 413.250 225.739 C 416.413 225.937, 421.587 225.937, 424.750 225.739 C 427.913 225.541, 425.325 225.378, 419 225.378 C 412.675 225.378, 410.087 225.541, 413.250 225.739 M 446.234 254.250 L 446.468 283.500 446.749 254.783 L 447.031 226.065 458.265 225.746 L 469.500 225.428 457.750 225.214 L 446 225 446.234 254.250 M 404.438 256.500 C 404.437 271.350, 404.576 277.564, 404.747 270.310 C 404.918 263.055, 404.918 250.905, 404.748 243.310 C 404.578 235.714, 404.438 241.650, 404.438 256.500 M 154.250 252.745 C 159.062 252.928, 166.937 252.928, 171.750 252.745 C 176.563 252.561, 172.625 252.411, 163 252.411 C 153.375 252.411, 149.438 252.561, 154.250 252.745 M 274.750 267.743 C 278.738 267.932, 285.262 267.932, 289.250 267.743 C 293.238 267.553, 289.975 267.397, 282 267.397 C 274.025 267.397, 270.762 267.553, 274.750 267.743 M 215.160 309.750 C 215.072 314.837, 215.338 319.001, 215.750 319.002 C 216.162 319.003, 216.375 316.190, 216.222 312.752 C 215.719 301.466, 215.323 300.345, 215.160 309.750 M 236.997 315.703 C 236.723 324.065, 236.850 330.554, 237.279 330.125 C 237.707 329.695, 237.930 322.853, 237.775 314.921 L 237.493 300.500 236.997 315.703 M 308.395 314.500 C 308.396 322.200, 308.553 325.218, 308.743 321.206 C 308.934 317.195, 308.932 310.895, 308.741 307.206 C 308.549 303.518, 308.393 306.800, 308.395 314.500 M 140.425 310.334 C 140.144 311.067, 140.067 315.455, 140.253 320.084 L 140.593 328.500 140.796 319.333 C 140.935 313.098, 141.400 310.005, 142.250 309.662 C 143.229 309.267, 143.222 309.141, 142.219 309.079 C 141.514 309.036, 140.707 309.600, 140.425 310.334 M 153.425 310.334 C 153.144 311.067, 153.067 315.455, 153.253 320.084 L 153.593 328.500 153.796 319.333 C 153.935 313.098, 154.400 310.005, 155.250 309.662 C 156.229 309.267, 156.222 309.141, 155.219 309.079 C 154.514 309.036, 153.707 309.600, 153.425 310.334 M 166.708 309.707 C 167.447 310.232, 168.054 314.047, 168.273 319.533 L 168.630 328.500 168.565 319.081 C 168.513 311.594, 168.192 309.578, 167 309.255 C 165.934 308.965, 165.849 309.096, 166.708 309.707 M 178.250 309.728 C 180.313 309.944, 183.688 309.944, 185.750 309.728 C 187.813 309.513, 186.125 309.336, 182 309.336 C 177.875 309.336, 176.188 309.513, 178.250 309.728 M 201.250 309.716 C 202.762 309.945, 205.238 309.945, 206.750 309.716 C 208.262 309.487, 207.025 309.300, 204 309.300 C 200.975 309.300, 199.738 309.487, 201.250 309.716 M 247.728 309.722 C 249.503 309.943, 252.653 309.946, 254.728 309.730 C 256.802 309.513, 255.350 309.333, 251.500 309.328 C 247.650 309.324, 245.952 309.501, 247.728 309.722 M 265.667 309.667 C 265.300 310.033, 265.007 310.821, 265.015 311.417 C 265.025 312.093, 265.318 312.048, 265.796 311.296 C 266.254 310.575, 269.760 309.954, 274.531 309.747 L 282.500 309.402 274.417 309.201 C 269.971 309.091, 266.033 309.300, 265.667 309.667 M 332.750 309.740 C 336.188 309.936, 341.813 309.936, 345.250 309.740 C 348.688 309.545, 345.875 309.385, 339 309.385 C 332.125 309.385, 329.313 309.545, 332.750 309.740 M 362.280 309.736 C 364.909 309.943, 368.959 309.940, 371.280 309.731 C 373.601 309.521, 371.450 309.352, 366.500 309.355 C 361.550 309.358, 359.651 309.530, 362.280 309.736 M 387.250 309.728 C 389.313 309.944, 392.688 309.944, 394.750 309.728 C 396.813 309.513, 395.125 309.336, 391 309.336 C 386.875 309.336, 385.188 309.513, 387.250 309.728 M 405.667 309.667 C 405.300 310.033, 405.007 310.821, 405.015 311.417 C 405.025 312.093, 405.318 312.048, 405.796 311.296 C 406.254 310.575, 409.760 309.954, 414.531 309.747 L 422.500 309.402 414.417 309.201 C 409.971 309.091, 406.033 309.300, 405.667 309.667 M 434.776 309.733 C 437.128 309.945, 440.728 309.942, 442.776 309.727 C 444.824 309.512, 442.900 309.339, 438.500 309.343 C 434.100 309.346, 432.424 309.522, 434.776 309.733 M 458.776 309.733 C 461.128 309.945, 464.728 309.942, 466.776 309.727 C 468.824 309.512, 466.900 309.339, 462.500 309.343 C 458.100 309.346, 456.424 309.522, 458.776 309.733 M 482.481 309.714 C 485.220 309.942, 487.842 310.662, 488.307 311.314 C 488.894 312.138, 489.029 312.042, 488.748 311 C 488.456 309.918, 486.833 309.472, 482.921 309.400 L 477.500 309.300 482.481 309.714 M 196.160 320.691 C 196.072 325.746, 196.338 330.092, 196.750 330.349 C 197.162 330.605, 197.376 327.819, 197.224 324.158 C 196.743 312.558, 196.325 311.197, 196.160 320.691 M 327.204 320.667 C 327.065 326.902, 326.600 329.995, 325.750 330.338 C 324.771 330.733, 324.778 330.859, 325.781 330.921 C 327.756 331.043, 328.115 329.033, 327.747 319.916 L 327.407 311.500 327.204 320.667 M 337.435 320.919 C 337.487 328.406, 337.808 330.422, 339 330.745 C 340.066 331.035, 340.151 330.904, 339.292 330.293 C 338.553 329.768, 337.946 325.953, 337.727 320.467 L 337.370 311.500 337.435 320.919 M 400.204 320.667 C 400.065 326.902, 399.600 329.995, 398.750 330.338 C 397.771 330.733, 397.778 330.859, 398.781 330.921 C 400.756 331.043, 401.115 329.033, 400.747 319.916 L 400.407 311.500 400.204 320.667 M 189.336 320 C 189.336 324.125, 189.513 325.813, 189.728 323.750 C 189.944 321.688, 189.944 318.313, 189.728 316.250 C 189.513 314.188, 189.336 315.875, 189.336 320 M 244.336 320 C 244.336 324.125, 244.513 325.813, 244.728 323.750 C 244.944 321.688, 244.944 318.313, 244.728 316.250 C 244.513 314.188, 244.336 315.875, 244.336 320 M 258.336 320 C 258.336 324.125, 258.513 325.813, 258.728 323.750 C 258.944 321.688, 258.944 318.313, 258.728 316.250 C 258.513 314.188, 258.336 315.875, 258.336 320 M 350.432 321.419 C 350.486 328.460, 350.816 330.424, 352 330.745 C 353.064 331.034, 353.150 330.903, 352.294 330.294 C 351.570 329.780, 350.943 326.048, 350.726 320.968 L 350.365 312.500 350.432 321.419 M 377.336 320 C 377.336 324.125, 377.513 325.813, 377.728 323.750 C 377.944 321.688, 377.944 318.313, 377.728 316.250 C 377.513 314.188, 377.336 315.875, 377.336 320 M 421.659 315.954 C 421.082 318.838, 420.911 318.914, 414.284 319.204 L 407.500 319.500 407.390 324 L 407.280 328.500 407.694 324.330 L 408.107 320.160 415.011 319.830 L 421.914 319.500 422.282 323.500 C 422.497 325.831, 422.723 324.474, 422.825 320.250 C 423.011 312.548, 422.625 311.126, 421.659 315.954 M 448.374 323.500 C 448.376 329.550, 448.541 331.896, 448.740 328.713 C 448.939 325.531, 448.937 320.581, 448.736 317.713 C 448.535 314.846, 448.372 317.450, 448.374 323.500 M 430.310 319.500 C 430.315 322.800, 430.502 324.029, 430.725 322.232 C 430.947 320.435, 430.943 317.735, 430.715 316.232 C 430.486 314.729, 430.304 316.200, 430.310 319.500 M 454.320 320 C 454.320 323.575, 454.502 325.038, 454.723 323.250 C 454.945 321.462, 454.945 318.538, 454.723 316.750 C 454.502 314.962, 454.320 316.425, 454.320 320 M 281 317.788 C 281 318.476, 278.393 319.023, 274.250 319.204 L 267.500 319.500 267.411 323 C 267.321 326.487, 267.323 326.488, 267.721 323.250 L 268.121 320 274.501 320 C 280.265 320, 283.202 318.869, 281.600 317.267 C 281.270 316.937, 281 317.171, 281 317.788 M 363.250 319.728 C 365.313 319.944, 368.688 319.944, 370.750 319.728 C 372.813 319.513, 371.125 319.336, 367 319.336 C 362.875 319.336, 361.188 319.513, 363.250 319.728 M 215.168 325.167 C 215.072 327.823, 214.461 330.051, 213.750 330.338 C 212.771 330.733, 212.778 330.859, 213.781 330.921 C 215.563 331.031, 216.203 328.880, 215.735 324.355 C 215.349 320.627, 215.331 320.654, 215.168 325.167 M 433.728 326.722 C 435.503 326.943, 438.653 326.946, 440.728 326.730 C 442.802 326.513, 441.350 326.333, 437.500 326.328 C 433.650 326.324, 431.952 326.501, 433.728 326.722 M 148.789 330.741 C 152.248 330.937, 157.648 330.936, 160.789 330.738 C 163.930 330.540, 161.100 330.380, 154.500 330.382 C 147.900 330.384, 145.330 330.546, 148.789 330.741 M 178.250 330.728 C 180.313 330.944, 183.688 330.944, 185.750 330.728 C 187.813 330.513, 186.125 330.336, 182 330.336 C 177.875 330.336, 176.188 330.513, 178.250 330.728 M 248.250 330.728 C 250.313 330.944, 253.688 330.944, 255.750 330.728 C 257.813 330.513, 256.125 330.336, 252 330.336 C 247.875 330.336, 246.188 330.513, 248.250 330.728 M 271.776 330.733 C 274.128 330.945, 277.728 330.942, 279.776 330.727 C 281.824 330.512, 279.900 330.339, 275.500 330.343 C 271.100 330.346, 269.424 330.522, 271.776 330.733 M 295.250 330.728 C 297.313 330.944, 300.688 330.944, 302.750 330.728 C 304.813 330.513, 303.125 330.336, 299 330.336 C 294.875 330.336, 293.188 330.513, 295.250 330.728 M 363.776 330.733 C 366.128 330.945, 369.728 330.942, 371.776 330.727 C 373.824 330.512, 371.900 330.339, 367.500 330.343 C 363.100 330.346, 361.424 330.522, 363.776 330.733 M 410.776 330.733 C 413.128 330.945, 416.728 330.942, 418.776 330.727 C 420.824 330.512, 418.900 330.339, 414.500 330.343 C 410.100 330.346, 408.424 330.522, 410.776 330.733 M 459.280 330.736 C 461.909 330.943, 465.959 330.940, 468.280 330.731 C 470.601 330.521, 468.450 330.352, 463.500 330.355 C 458.550 330.358, 456.651 330.530, 459.280 330.736" stroke="none" fill="#42afeb" fill-rule="evenodd"/><path d="M -0 177.002 L -0 354.003 315.250 353.752 L 630.500 353.500 630.753 176.750 L 631.006 0 315.503 0 L 0 0 -0 177.002 M 0.489 177.500 C 0.489 274.850, 0.606 314.527, 0.750 265.671 C 0.893 216.815, 0.893 137.165, 0.750 88.671 C 0.606 40.177, 0.489 80.150, 0.489 177.500 M 297.826 18.712 C 293.653 21.301, 292.998 24.037, 293.022 38.797 C 293.054 58.408, 293.695 59, 314.918 59 L 328.968 59 332.234 56.085 L 335.500 53.169 335.787 39.335 C 336.047 26.859, 335.875 25.178, 334.037 22.225 C 332.916 20.424, 330.845 18.511, 329.434 17.975 C 328.024 17.439, 320.937 17.012, 313.685 17.027 C 303.179 17.048, 299.957 17.390, 297.826 18.712 M 250.455 52.455 C 248.144 54.766, 248 55.558, 248 66 C 248 76.442, 248.144 77.234, 250.455 79.545 C 252.766 81.856, 253.558 82, 264 82 C 274.442 82, 275.234 81.856, 277.545 79.545 C 279.864 77.227, 280 76.459, 280 65.720 C 280 55.127, 279.842 54.200, 277.686 52.174 C 275.593 50.208, 274.295 50, 264.140 50 C 253.549 50, 252.769 50.140, 250.455 52.455 M 352.229 50.669 C 349.346 51.829, 348 56.877, 348 66.527 C 348 75.834, 348.097 76.251, 350.923 79.077 C 353.783 81.937, 354.072 82, 364.367 82 C 374.046 82, 375.113 81.807, 377.694 79.587 C 380.325 77.325, 380.522 76.605, 380.851 68.056 C 381.252 57.607, 380.740 54.740, 377.975 51.975 C 376.232 50.232, 374.681 50.009, 364.750 50.079 C 358.563 50.122, 352.928 50.388, 352.229 50.669 M 298.500 69.161 C 293.564 71.875, 293.046 73.677, 293.022 88.203 C 292.988 109.087, 293.860 110, 313.839 110 C 321.006 110, 328.024 109.561, 329.434 109.025 C 330.845 108.489, 332.916 106.576, 334.037 104.775 C 335.875 101.822, 336.047 100.141, 335.787 87.665 L 335.500 73.831 332.234 70.915 L 328.968 68 314.734 68.030 C 306.322 68.048, 299.682 68.511, 298.500 69.161 M 214.655 79.829 C 213.405 81.210, 213 83.618, 213 89.674 C 213 100.319, 213.737 101, 225.257 101 C 236.504 101, 237 100.514, 237 89.500 C 237 78.458, 236.525 78, 225.084 78 C 217.854 78, 216.019 78.322, 214.655 79.829 M 393.571 79.571 C 392.394 80.749, 392 83.236, 392 89.500 C 392 100.542, 392.475 101, 403.916 101 C 415.312 101, 416 100.335, 416 89.326 C 416 78.681, 415.263 78, 403.743 78 C 397.258 78, 394.756 78.386, 393.571 79.571 M 250.455 92.455 C 248.144 94.766, 248 95.558, 248 106 C 248 116.442, 248.144 117.234, 250.455 119.545 C 252.766 121.856, 253.558 122, 264 122 C 274.442 122, 275.234 121.856, 277.545 119.545 C 279.856 117.234, 280 116.442, 280 106 C 280 95.558, 279.856 94.766, 277.545 92.455 C 275.234 90.144, 274.442 90, 264 90 C 253.558 90, 252.766 90.144, 250.455 92.455 M 352.229 90.669 C 349.399 91.808, 348 96.885, 348 106.016 C 348 120.590, 349.354 121.924, 364.194 121.968 C 374.081 121.998, 375.100 121.818, 377.694 119.587 C 380.452 117.214, 380.500 116.987, 380.500 106.167 C 380.500 95.895, 380.338 94.989, 378.076 92.581 C 375.742 90.097, 375.237 90.003, 364.576 90.079 C 358.484 90.122, 352.928 90.388, 352.229 90.669 M 214.655 111.829 C 213.406 113.209, 213 115.615, 213 121.638 C 213 132.724, 213.635 133.409, 224.321 133.849 C 231.868 134.159, 233.034 133.966, 234.901 132.099 C 236.698 130.302, 237 128.797, 237 121.655 C 237 110.653, 236.318 110, 224.826 110 C 217.846 110, 216.012 110.330, 214.655 111.829 M 393.655 111.829 C 392.399 113.216, 392 115.629, 392 121.829 C 392 132.924, 393.061 134, 404 134 C 414.975 134, 416 132.946, 416 121.655 C 416 110.653, 415.318 110, 403.826 110 C 396.846 110, 395.012 110.330, 393.655 111.829 M 299.388 118.980 C 298.227 119.449, 296.314 121.057, 295.138 122.552 C 293.178 125.043, 293 126.473, 293 139.712 L 293 154.154 295.923 157.077 L 298.846 160 313.907 160 L 328.968 160 332.234 157.085 L 335.500 154.169 335.826 140.681 C 336.335 119.582, 334.793 117.962, 314.300 118.063 C 307.260 118.098, 300.550 118.511, 299.388 118.980 M 183.571 128.571 C 182.501 129.642, 182 132.009, 182 136 C 182 139.991, 182.501 142.358, 183.571 143.429 C 184.642 144.499, 187.009 145, 191 145 C 198.761 145, 200 143.710, 200 135.629 C 200 132.117, 199.476 128.876, 198.800 128.200 C 196.972 126.372, 185.491 126.652, 183.571 128.571 M 430.200 128.200 C 429.524 128.876, 429 132.117, 429 135.629 C 429 143.710, 430.239 145, 438 145 C 445.673 145, 447 143.673, 447 136 C 447 128.239, 445.710 127, 437.629 127 C 434.117 127, 430.876 127.524, 430.200 128.200 M 250.455 132.455 C 248.144 134.766, 248 135.558, 248 146 C 248 156.442, 248.144 157.234, 250.455 159.545 C 252.761 161.852, 253.569 162, 263.820 162 C 273.343 162, 275.065 161.737, 277.365 159.927 C 279.938 157.904, 280 157.585, 280 146.382 C 280 135.534, 279.866 134.775, 277.545 132.455 C 275.234 130.144, 274.442 130, 264 130 C 253.558 130, 252.766 130.144, 250.455 132.455 M 350.923 132.923 C 348.097 135.749, 348 136.166, 348 145.473 C 348 155.471, 349.336 160.148, 352.545 161.379 C 353.435 161.720, 359.077 162, 365.082 162 C 380.352 162, 381.495 160.691, 380.851 143.944 C 380.522 135.395, 380.325 134.675, 377.694 132.413 C 375.113 130.193, 374.046 130, 364.367 130 C 354.072 130, 353.783 130.063, 350.923 132.923 M 215 144 C 213.343 145.657, 213 147.333, 213 153.777 C 213 165.165, 213.813 166, 224.902 166 C 236.343 166, 237 165.357, 237 154.171 C 237 143.076, 235.939 142, 225 142 C 218.333 142, 216.667 142.333, 215 144 M 394 144 C 392.320 145.680, 392 147.333, 392 154.345 C 392 165.347, 392.682 166, 404.174 166 C 415.308 166, 416 165.308, 416 154.171 C 416 143.076, 414.939 142, 404 142 C 397.333 142, 395.667 142.333, 394 144 M 183.200 155.200 C 182.529 155.871, 182 159.089, 182 162.500 C 182 165.911, 182.529 169.129, 183.200 169.800 C 183.891 170.491, 187.200 171, 191 171 C 194.800 171, 198.109 170.491, 198.800 169.800 C 199.471 169.129, 200 165.911, 200 162.500 C 200 159.089, 199.471 155.871, 198.800 155.200 C 198.109 154.509, 194.800 154, 191 154 C 187.200 154, 183.891 154.509, 183.200 155.200 M 430.200 155.200 C 428.634 156.766, 428.634 168.234, 430.200 169.800 C 430.891 170.491, 434.200 171, 438 171 C 441.800 171, 445.109 170.491, 445.800 169.800 C 446.471 169.129, 447 165.911, 447 162.500 C 447 159.089, 446.471 155.871, 445.800 155.200 C 445.109 154.509, 441.800 154, 438 154 C 434.200 154, 430.891 154.509, 430.200 155.200 M 157.200 163.200 C 156.540 163.860, 156 166.470, 156 169 C 156 174.572, 157.248 176, 162.118 176 C 168.442 176, 169 175.432, 169 169 C 169 164.646, 168.608 163.064, 167.418 162.607 C 164.727 161.574, 158.462 161.938, 157.200 163.200 M 461.250 162.662 C 459.283 163.456, 459.574 174.623, 461.582 175.393 C 464.273 176.426, 470.538 176.062, 471.800 174.800 C 473.356 173.244, 473.356 164.756, 471.800 163.200 C 470.622 162.022, 463.709 161.670, 461.250 162.662 M 216 231 L 216 283 224.500 283 L 233 283 233 231 L 233 179 224.500 179 L 216 179 216 231 M 145.500 210.945 C 144.400 211.396, 142.600 212.763, 141.500 213.984 C 139.740 215.937, 139.461 217.884, 139.173 230.208 C 138.645 252.790, 138.876 253, 164.379 253 C 184.172 253, 185 253.284, 185 260.071 C 185 262.667, 184.321 264.679, 183 266 C 181.127 267.873, 179.667 268, 160 268 L 139 268 139 275.500 L 139 283 165.351 283 C 182.057 283, 192.865 282.594, 194.881 281.892 C 200.069 280.083, 201.002 276.936, 200.986 261.300 C 200.979 253.710, 200.697 246.469, 200.359 245.210 C 199.171 240.775, 195.567 240, 176.121 240 C 155.740 240, 155 239.750, 155 232.863 C 155 224.781, 154.344 225, 178.535 225 L 200 225 200 217.500 L 200 210 173.750 210.063 C 159.313 210.098, 146.600 210.495, 145.500 210.945 M 247.056 240.750 C 247.118 274.054, 247.485 276.818, 252.323 280.406 C 255.027 282.412, 256.304 282.500, 282.551 282.500 L 309.955 282.500 312.591 279.864 C 314.121 278.333, 315.580 275.398, 316.070 272.864 C 316.534 270.464, 316.932 255.338, 316.956 239.250 L 317 210 308 210 L 299 210 299 237.300 C 299 257.200, 298.675 264.925, 297.800 265.800 C 296.125 267.475, 267.875 267.475, 266.200 265.800 C 265.325 264.925, 265 257.200, 265 237.300 L 265 210 256 210 L 247 210 247.056 240.750 M 335.763 211.565 C 330.202 214.582, 330 215.965, 330 250.950 L 330 283 338.500 283 L 347 283 347 256.191 C 347 236.303, 347.323 228.951, 348.250 227.710 C 349.286 226.324, 351.723 225.992, 362.500 225.769 L 375.500 225.500 375.792 217.750 L 376.084 210 357.292 210.040 C 342.625 210.071, 337.899 210.406, 335.763 211.565 M 394.096 211.265 C 392.774 211.944, 390.749 213.770, 389.596 215.321 C 387.585 218.028, 387.488 219.457, 387.199 250.571 L 386.897 283 395.949 283 L 405 283 405 255.700 C 405 235.800, 405.325 228.075, 406.200 227.200 C 406.992 226.408, 411.244 226, 418.700 226 L 430 226 430 254.500 L 430 283 438.500 283 L 447 283 447 254.500 L 447 226 458.465 226 C 468.776 226, 470.034 226.195, 470.965 227.934 C 471.604 229.128, 472 240.034, 472 256.434 L 472 283 480.500 283 L 489 283 489 251.468 C 489 215.852, 488.707 214.029, 482.568 211.464 C 477.833 209.486, 397.909 209.306, 394.096 211.265 M 213 316.083 C 213 327.702, 213.287 331.072, 214.250 330.756 C 214.938 330.530, 215.725 328.277, 216 325.750 L 216.500 321.156 223.355 326.173 C 227.887 329.489, 230.547 330.853, 231.202 330.198 C 231.858 329.542, 230.149 327.817, 226.159 325.108 C 222.840 322.854, 219.874 320.605, 219.568 320.111 C 219.263 319.616, 221.706 317.477, 224.998 315.356 C 228.289 313.235, 230.986 310.938, 230.991 310.250 C 231.006 308.081, 229.134 308.865, 223.231 313.499 C 220.079 315.974, 217.162 317.999, 216.750 317.999 C 216.338 318, 216 314.175, 216 309.500 C 216 302.611, 215.716 301, 214.500 301 C 213.233 301, 213 303.343, 213 316.083 M 235.223 315.503 C 235.392 324.320, 235.892 330.005, 236.500 330.005 C 237.108 330.005, 237.608 324.320, 237.777 315.503 C 238.016 302.937, 237.846 301, 236.500 301 C 235.154 301, 234.984 302.937, 235.223 315.503 M 305.779 314.250 L 305.500 327.500 298.750 327.796 L 292 328.091 292 320.046 L 292 312 298.500 312 C 303.611 312, 305 311.679, 305 310.500 C 305 309.310, 303.559 309, 298.035 309 C 289.543 309, 289 309.683, 289 320.363 C 289 330.062, 289.875 331, 298.916 331 C 308.720 331, 309 330.533, 309 314.171 C 309 303.246, 308.749 301, 307.529 301 C 306.322 301, 306.008 303.382, 305.779 314.250 M 140.667 309.667 C 140.300 310.033, 140 314.276, 140 319.095 C 140 330.944, 140.069 331, 154.500 331 C 169.128 331, 169.172 330.961, 168.786 318.723 C 168.592 312.576, 168.098 309.529, 167.250 309.248 C 166.308 308.935, 166 311.196, 166 318.417 L 166 328 161 328 L 156 328 156 318.417 C 156 311.196, 155.692 308.935, 154.750 309.248 C 153.900 309.529, 153.408 312.599, 153.212 318.831 L 152.925 328 147.962 328 L 143 328 143 318.500 C 143 309.792, 142.486 307.847, 140.667 309.667 M 174.200 310.200 C 173.453 310.947, 173 314.644, 173 320 C 173 325.356, 173.453 329.053, 174.200 329.800 C 175.677 331.277, 187.386 331.399, 190.066 329.965 C 191.756 329.060, 192 327.805, 192 320 C 192 312.195, 191.756 310.940, 190.066 310.035 C 187.386 308.601, 175.677 308.723, 174.200 310.200 M 197.535 310.608 C 196.245 311.897, 195.984 314.022, 196.214 321.358 C 196.591 333.396, 198.412 333.320, 198.788 321.250 L 199.075 312 204.038 312 C 207.782 312, 209 311.632, 209 310.500 C 209 308.339, 199.717 308.426, 197.535 310.608 M 243.750 310.080 C 242.290 310.930, 242 312.579, 242 320.015 C 242 327.805, 242.244 329.060, 243.934 329.965 C 246.614 331.399, 258.323 331.277, 259.800 329.800 C 260.551 329.049, 261 325.319, 261 319.835 C 261 312.193, 260.752 310.938, 259.066 310.035 C 256.594 308.712, 246.045 308.743, 243.750 310.080 M 265.667 309.667 C 263.880 311.454, 265.688 312, 273.393 312 C 282.900 312, 283 312.083, 283 320 C 283 327.732, 282.729 328, 274.893 328 L 268 328 268 324.046 L 268 320.091 274.670 319.796 C 278.893 319.608, 281.492 319.041, 281.754 318.250 C 282.315 316.551, 267.896 316.504, 266.200 318.200 C 265.540 318.860, 265 321.544, 265 324.165 C 265 327.852, 265.437 329.164, 266.934 329.965 C 269.629 331.407, 282.317 331.283, 283.800 329.800 C 284.551 329.049, 285 325.319, 285 319.835 C 285 312.193, 284.752 310.938, 283.066 310.035 C 280.943 308.899, 266.735 308.598, 265.667 309.667 M 326.200 310.200 C 324.478 311.922, 324.525 331.324, 326.250 330.752 C 327.100 330.471, 327.592 327.401, 327.788 321.169 L 328.075 312 332.500 312 L 336.925 312 337.212 321.169 C 337.408 327.401, 337.900 330.471, 338.750 330.752 C 339.692 331.065, 340 328.804, 340 321.583 L 340 312 344.962 312 L 349.925 312 350.212 321.169 C 350.408 327.401, 350.900 330.471, 351.750 330.752 C 353.475 331.324, 353.522 311.922, 351.800 310.200 C 351.005 309.405, 346.689 309, 339 309 C 331.311 309, 326.995 309.405, 326.200 310.200 M 358 310.460 C 358 311.598, 359.818 311.983, 366.250 312.210 L 374.500 312.500 374.500 320 L 374.500 327.500 367.250 327.794 L 360 328.088 360 324.044 L 360 320 367 320 C 372.556 320, 374 319.690, 374 318.500 C 374 317.304, 372.522 317, 366.700 317 C 362.356 317, 358.914 317.486, 358.200 318.200 C 356.449 319.951, 356.700 327.558, 358.571 329.429 C 359.716 330.573, 362.146 331, 367.515 331 C 376.760 331, 378 329.699, 378 320 C 378 310.055, 376.891 309, 366.443 309 C 359.709 309, 358 309.295, 358 310.460 M 383.200 310.200 C 381.735 311.665, 381.515 331, 382.962 331 C 383.492 331, 384.054 326.837, 384.212 321.750 L 384.500 312.500 391 312.500 L 397.500 312.500 397.788 321.821 C 397.997 328.573, 398.411 331.030, 399.288 330.740 C 400.089 330.474, 400.597 327.264, 400.786 321.277 C 401.149 309.796, 400.523 309, 391.129 309 C 387.229 309, 383.896 309.504, 383.200 310.200 M 405.667 309.667 C 403.876 311.457, 405.698 312, 413.500 312 C 421.863 312, 422 312.040, 422 314.460 C 422 316.850, 421.768 316.927, 413.750 317.210 L 405.500 317.500 405.195 322.831 C 404.778 330.118, 405.748 331, 414.188 331 C 424.653 331, 425 330.647, 425 320 C 425 312.195, 424.756 310.940, 423.066 310.035 C 420.943 308.899, 406.735 308.598, 405.667 309.667 M 429.571 310.571 C 427.627 312.515, 427.338 325.938, 429.200 327.800 C 429.898 328.498, 433.244 329, 437.200 329 C 442.578 329, 444 328.686, 444 327.500 C 444 326.321, 442.611 326, 437.500 326 L 431 326 431 318.956 L 431 311.912 438.250 312.206 L 445.500 312.500 445.500 323.500 L 445.500 334.500 439.250 334.798 C 430.726 335.204, 431.309 337, 439.965 337 C 448.673 337, 449 336.504, 449 323.288 C 449 309.920, 448.325 309, 438.515 309 C 433.146 309, 430.716 309.427, 429.571 310.571 M 453.571 310.571 C 452.410 311.733, 452 314.190, 452 320 C 452 330.422, 452.608 331, 463.571 331 C 470.397 331, 472 330.715, 472 329.500 C 472 328.284, 470.389 328, 463.500 328 L 455 328 455 319.956 L 455 311.912 462.250 312.206 L 469.500 312.500 469.500 316 L 469.500 319.500 462.750 319.796 C 453.574 320.198, 454.158 322, 463.465 322 C 469.822 322, 471.083 321.713, 471.965 320.066 C 473.449 317.293, 473.242 313.791, 471.443 311.223 C 470.074 309.268, 468.999 309, 462.515 309 C 457.146 309, 454.716 309.427, 453.571 310.571 M 477.244 310.156 C 475.707 311.693, 475.481 331, 477 331 C 477.582 331, 478 327.694, 478 323.082 C 478 312.346, 478.193 312, 484.190 312 C 487.724 312, 489.047 311.638, 488.755 310.750 C 488.191 309.039, 478.844 308.556, 477.244 310.156 M 175.417 313.355 C 175.131 314.101, 175.033 317.588, 175.199 321.105 L 175.500 327.500 182.250 327.796 L 189 328.091 189 320.046 L 189 312 182.469 312 C 177.895 312, 175.781 312.406, 175.417 313.355 M 245 320 L 245 328 251.500 328 L 258 328 258 320 L 258 312 251.500 312 L 245 312 245 320 M 414.750 319.742 L 408 320.091 408 324.046 L 408 328 415 328 L 422 328 422 323.500 C 422 321.025, 421.887 319.088, 421.750 319.196 C 421.613 319.304, 418.462 319.549, 414.750 319.742" stroke="none" fill="#fafbfb" fill-rule="evenodd"/></svg>