<svg xmlns="http://www.w3.org/2000/svg" width="399" height="459" viewBox="0 0 399 459" version="1.1"><path d="M 0 229.500 L 0 459 97.750 458.921 C 151.513 458.878, 194.847 458.585, 194.048 458.270 C 192.126 457.514, 14.426 353.474, 10.303 350.692 C 8.545 349.505, 6.191 346.906, 5.073 344.916 C 3.063 341.340, 3.038 339.994, 2.975 231.143 C 2.903 106.098, 2.175 116.508, 11.409 110.492 C 14.209 108.668, 46.650 89.507, 83.500 67.912 C 203.953 -2.677, 193.827 3, 199.293 3 C 201.954 3, 205.114 3.515, 206.316 4.146 C 207.517 4.776, 249.598 29.363, 299.828 58.785 C 380.737 106.176, 391.461 112.739, 393.828 116.316 L 396.500 120.353 396.809 227.427 C 397.026 302.192, 396.789 336.032, 396.026 339.577 C 395.407 342.455, 393.756 345.995, 392.217 347.747 C 390.650 349.531, 370.455 361.941, 344.500 377.070 C 300.140 402.928, 283.755 412.498, 232.500 442.489 C 218.200 450.856, 205.825 457.960, 205 458.275 C 204.175 458.590, 247.600 458.769, 301.500 458.674 L 399.500 458.500 399.752 229.250 L 400.004 0 200.002 0 L 0 0 0 229.500 M 0.491 230 C 0.491 356.225, 0.608 407.862, 0.750 344.750 C 0.892 281.637, 0.892 178.362, 0.750 115.250 C 0.608 52.137, 0.491 103.775, 0.491 230 M 180.250 152.943 C 147.100 186.480, 129 205.495, 129 206.783 C 129 208.069, 138.562 218.142, 156 235.225 C 170.850 249.773, 182.993 262.311, 182.985 263.088 C 182.976 263.865, 182.061 268.100, 180.951 272.500 C 179.841 276.900, 177.347 287.475, 175.410 296 C 173.473 304.525, 169.420 322.006, 166.403 334.848 C 160.625 359.440, 160.564 361, 165.378 361 C 168.052 361, 270 258.036, 270 255.336 C 270 254.330, 258.172 241.691, 242.965 226.447 C 225.991 209.431, 216.116 198.816, 216.430 197.923 C 216.705 197.140, 220.121 182.550, 224.020 165.500 C 230.820 135.767, 233.192 125.508, 236.674 110.762 C 238.430 103.324, 237.688 100.957, 233.628 101.047 C 232.175 101.080, 215.243 117.541, 180.250 152.943" stroke="none" fill="#fbfbfb" fill-rule="evenodd"/><path d="M 172.478 15.824 C 106.131 54.538, 15.829 107.613, 11.409 110.492 C 2.175 116.508, 2.903 106.098, 2.975 231.143 C 3.038 339.994, 3.063 341.340, 5.073 344.916 C 6.191 346.906, 8.545 349.505, 10.303 350.692 C 12.061 351.878, 54 376.611, 103.500 405.652 L 193.500 458.456 199.500 458.478 C 205.459 458.500, 205.680 458.394, 232 442.888 C 263.481 424.341, 284.379 412.115, 344.500 377.070 C 370.455 361.941, 390.650 349.531, 392.217 347.747 C 393.756 345.995, 395.407 342.455, 396.026 339.577 C 396.789 336.032, 397.026 302.192, 396.809 227.427 L 396.500 120.353 393.828 116.316 C 391.461 112.739, 380.737 106.176, 299.828 58.785 C 249.598 29.363, 207.517 4.776, 206.316 4.146 C 205.114 3.515, 201.954 3, 199.293 3 C 194.903 3, 192.420 4.188, 172.478 15.824 M 180.250 152.943 C 147.100 186.480, 129 205.495, 129 206.783 C 129 208.069, 138.562 218.142, 156 235.225 C 170.850 249.773, 182.993 262.311, 182.985 263.088 C 182.976 263.865, 182.061 268.100, 180.951 272.500 C 179.841 276.900, 177.347 287.475, 175.410 296 C 173.473 304.525, 169.420 322.006, 166.403 334.848 C 160.625 359.440, 160.564 361, 165.378 361 C 168.052 361, 270 258.036, 270 255.336 C 270 254.330, 258.172 241.691, 242.965 226.447 C 225.991 209.431, 216.116 198.816, 216.430 197.923 C 216.705 197.140, 220.121 182.550, 224.020 165.500 C 230.820 135.767, 233.192 125.508, 236.674 110.762 C 238.430 103.324, 237.688 100.957, 233.628 101.047 C 232.175 101.080, 215.243 117.541, 180.250 152.943" stroke="none" fill="#6a4ed9" fill-rule="evenodd"/></svg>