<svg width="400" height="103" viewBox="0 0 400 103" fill="none" xmlns="http://www.w3.org/2000/svg">
<g clip-path="url(#clip0_414_4220)">
<path fill-rule="evenodd" clip-rule="evenodd" d="M85.4603 25.52C85.1365 24.9318 84.6641 24.4387 84.0903 24.09L44.8903 0.520022C44.3189 0.178999 43.6657 -0.000729785 43.0003 2.22713e-06C42.3382 0.000577931 41.6885 0.180277 41.1203 0.520022L1.88026 24.07C1.30642 24.4187 0.83405 24.9118 0.510264 25.5C0.168229 26.1106 -0.0076348 26.8002 0.000254195 27.5V74.6C-0.0076348 75.2998 0.168229 75.9895 0.510264 76.6C0.83405 77.1883 1.30642 77.6813 1.88026 78.03L41.1203 101.52C41.6859 101.867 42.3366 102.051 43.0003 102.05C43.6672 102.052 44.3215 101.868 44.8903 101.52L84.1303 77.98C84.6933 77.6177 85.1518 77.1143 85.4603 76.52C85.7988 75.9085 85.9712 75.2189 85.9603 74.52V27.52C85.9712 26.8211 85.7988 26.1316 85.4603 25.52ZM58.4603 56.52C58.4612 56.637 58.4373 56.7529 58.3903 56.8601C58.3486 56.9693 58.2838 57.0682 58.2003 57.15L36.2003 79.95C36.0669 80.0805 35.8951 80.1646 35.7103 80.19C35.5274 80.2174 35.3406 80.1822 35.1802 80.09C35.0178 79.9929 34.8914 79.8455 34.8203 79.67C34.7819 79.5811 34.7582 79.4865 34.7503 79.39C34.7303 79.2944 34.7303 79.1957 34.7503 79.1L39.4003 58.52C39.4351 58.3754 39.4351 58.2246 39.4003 58.08C39.3598 57.9318 39.2804 57.7971 39.1703 57.69L27.8603 46.26C27.7806 46.1751 27.7163 46.077 27.6703 45.97C27.6293 45.8614 27.6089 45.7461 27.6103 45.63C27.6089 45.5139 27.6293 45.3986 27.6703 45.29C27.7163 45.1831 27.7806 45.0849 27.8603 45L49.9403 22.21C50.0678 22.0699 50.242 21.9811 50.4302 21.96C50.6131 21.9326 50.7999 21.9679 50.9603 22.06C51.1211 22.1619 51.2494 22.3077 51.3303 22.48C51.3691 22.5683 51.3895 22.6636 51.3903 22.76C51.4054 22.8561 51.4054 22.954 51.3903 23.0501L46.7203 43.7C46.7099 43.773 46.7099 43.8471 46.7203 43.92C46.7112 43.9931 46.7112 44.067 46.7203 44.14C46.761 44.2852 46.8405 44.4166 46.9503 44.52L58.1703 55.89C58.2538 55.9718 58.3186 56.0707 58.3603 56.18C58.4073 56.2871 58.4311 56.403 58.4302 56.52H58.4603Z" fill="url(#paint0_linear_414_4220)" style=""/>
<path d="M373.792 44.3547H379.937L373.589 24.4219H363.743L357.395 44.3547H363.351L364.24 41.1407H372.903L373.792 44.3547ZM365.756 35.6558L367.347 29.9068H369.797L371.388 35.6558H365.756Z" fill="#FAFAFA" style="fill:#FAFAFA;fill:color(display-p3 0.9804 0.9804 0.9804);fill-opacity:1;"/>
<path d="M399.84 29.9068V24.4219H382.719V29.9068H388.531V38.8396H382.719V44.3547H399.84V38.8396H394.027V29.9068H399.84Z" fill="#FAFAFA" style="fill:#FAFAFA;fill:color(display-p3 0.9804 0.9804 0.9804);fill-opacity:1;"/>
<g clip-path="url(#clip1_414_4220)">
<path fill-rule="evenodd" clip-rule="evenodd" d="M174.497 40.0336C173.633 39.2969 172.671 38.6845 171.639 38.2141C170.246 37.5899 168.733 37.281 167.207 37.3094C165.363 37.2983 163.538 37.6821 161.853 38.4353C160.225 39.1499 158.751 40.174 157.512 41.4509C156.269 42.7519 155.289 44.281 154.624 45.9543C153.942 47.6919 153.602 49.5454 153.621 51.4126C153.606 53.3056 153.946 55.1846 154.624 56.9514C155.266 58.6326 156.219 60.1774 157.432 61.505C158.641 62.8256 160.113 63.877 161.753 64.5911C163.487 65.3437 165.358 65.7271 167.248 65.7169C168.764 65.736 170.269 65.4453 171.669 64.8625C172.703 64.428 173.669 63.8456 174.537 63.1335V64.762C174.601 65.6618 174.477 66.5652 174.171 67.4137C173.865 68.2622 173.385 69.0368 172.762 69.6875C171.523 70.8165 169.893 71.4153 168.22 71.3562C166.77 71.4093 165.329 71.0983 164.029 70.4515C162.927 69.8395 162.052 68.8877 161.532 67.7374L161.422 67.4962H154.403C154.448 69.5214 155.213 71.4642 156.559 72.9746L156.609 73.045C158.059 74.5506 159.827 75.7116 161.783 76.4426C163.754 77.1863 165.843 77.5677 167.949 77.5685C172.06 77.5685 175.309 76.4225 177.595 74.1708C178.75 72.9973 179.653 71.5989 180.248 70.0619C180.843 68.5249 181.117 66.8819 181.054 65.2344V37.802H174.376L174.497 40.0336ZM172.862 56.9816C172.208 57.7256 171.401 58.3188 170.496 58.7206C169.597 59.1177 168.621 59.3099 167.639 59.2835C166.656 59.314 165.679 59.1216 164.781 58.7206C163.88 58.3168 163.077 57.7237 162.425 56.9816C161.051 55.4617 160.309 53.4732 160.349 51.4227C160.316 50.4142 160.483 49.4092 160.839 48.4655C161.195 47.5219 161.734 46.6581 162.425 45.9241C163.097 45.2142 163.91 44.6527 164.811 44.2756C165.707 43.9042 166.67 43.7228 167.639 43.7428C168.602 43.7347 169.557 43.9228 170.446 44.2957C171.34 44.6724 172.148 45.2263 172.822 45.9241C173.534 46.6476 174.09 47.5097 174.457 48.4573C174.835 49.4161 175.012 50.4426 174.978 51.473C174.995 53.5116 174.239 55.4806 172.862 56.9816Z" fill="#FAFAFA" style="fill:#FAFAFA;fill:color(display-p3 0.9804 0.9804 0.9804);fill-opacity:1;"/>
<path fill-rule="evenodd" clip-rule="evenodd" d="M201.037 37.2996C199.437 37.2746 197.856 37.6586 196.445 38.4154C195.49 38.9299 194.613 39.5762 193.838 40.3354V25.6592H187.16V65.868H193.838V50.2468C193.747 48.5293 194.302 46.84 195.392 45.5123C195.925 44.9229 196.582 44.46 197.316 44.1574C198.049 43.8549 198.841 43.7202 199.633 43.7632C200.407 43.7083 201.182 43.8341 201.899 44.1306C202.616 44.4272 203.254 44.8863 203.764 45.4721C204.743 46.6803 205.262 48.198 205.228 49.7543V65.8378H211.896V48.9401C211.896 45.271 210.893 42.376 208.888 40.3354C207.857 39.3163 206.628 38.5209 205.277 37.9987C203.927 37.4764 202.483 37.2384 201.037 37.2996Z" fill="#FAFAFA" style="fill:#FAFAFA;fill:color(display-p3 0.9804 0.9804 0.9804);fill-opacity:1;"/>
<path d="M148.508 25.6592H141.83V32.5047H148.508V25.6592Z" fill="#FAFAFA" style="fill:#FAFAFA;fill:color(display-p3 0.9804 0.9804 0.9804);fill-opacity:1;"/>
<path d="M148.518 37.792H141.84V65.8477H148.518V37.792Z" fill="#FAFAFA" style="fill:#FAFAFA;fill:color(display-p3 0.9804 0.9804 0.9804);fill-opacity:1;"/>
<path fill-rule="evenodd" clip-rule="evenodd" d="M118.879 25.6592H111.961V65.8579H136.536V59.1933H118.879V25.6592Z" fill="#FAFAFA" style="fill:#FAFAFA;fill:color(display-p3 0.9804 0.9804 0.9804);fill-opacity:1;"/>
<path fill-rule="evenodd" clip-rule="evenodd" d="M226.846 28.4834L220.689 30.7753L220.76 37.8118H214.804V43.8432H220.178V56.529C220.178 59.5447 221.1 61.9572 222.925 63.5656C224.787 65.178 227.184 66.0317 229.643 65.958C230.325 65.958 230.947 65.958 231.528 65.958C232.11 65.958 232.531 65.958 232.942 65.8776H233.293V59.8965H230.545C230.054 59.9239 229.562 59.8486 229.102 59.6754C228.643 59.499 228.223 59.2324 227.868 58.8913C227.506 58.4833 227.23 58.0055 227.057 57.487C226.885 56.9685 226.82 56.4202 226.866 55.8756V43.813H234.175V37.7817H226.846V28.4834Z" fill="#FAFAFA" style="fill:#FAFAFA;fill:color(display-p3 0.9804 0.9804 0.9804);fill-opacity:1;"/>
<path d="M277.921 25.6289H271.243V32.4946H277.921V25.6289Z" fill="#FAFAFA" style="fill:#FAFAFA;fill:color(display-p3 0.9804 0.9804 0.9804);fill-opacity:1;"/>
<path d="M246.538 44.5977H239.86V66.0993H246.538V44.5977Z" fill="#FAFAFA" style="fill:#FAFAFA;fill:color(display-p3 0.9804 0.9804 0.9804);fill-opacity:1;"/>
<path fill-rule="evenodd" clip-rule="evenodd" d="M335.283 37.7618V40.0034C334.418 39.28 333.46 38.675 332.436 38.2041C331.039 37.5905 329.529 37.2789 328.004 37.2893C326.159 37.2838 324.334 37.671 322.65 38.4252C321.022 39.1392 319.547 40.1634 318.308 41.4409C317.067 42.7429 316.087 44.2717 315.421 45.9443C314.742 47.6865 314.402 49.5425 314.418 51.4126C314.404 53.3023 314.744 55.1777 315.421 56.9414C316.057 58.6263 317.006 60.1749 318.218 61.5051C319.429 62.8171 320.896 63.8643 322.53 64.581C324.242 65.3526 326.097 65.7533 327.974 65.7571C329.489 65.7747 330.993 65.4876 332.396 64.9127C333.43 64.4783 334.396 63.8959 335.263 63.1838V64.8122C335.36 65.6792 335.264 66.5568 334.985 67.3828C334.705 68.2088 334.248 68.9631 333.645 69.5923C333.042 70.2215 332.309 70.7101 331.497 71.0236C330.685 71.3371 329.814 71.4678 328.947 71.4065C327.494 71.4679 326.051 71.1528 324.755 70.4917C323.665 69.8664 322.807 68.9034 322.309 67.7475L322.199 67.5163H315.18C315.223 69.5195 315.972 71.4427 317.296 72.9444V73.0148C317.313 73.0374 317.333 73.0576 317.356 73.0751C318.81 74.5753 320.577 75.7354 322.53 76.4728C324.507 77.2045 326.598 77.5789 328.706 77.5785C332.807 77.5785 336.045 76.4527 338.341 74.1909C339.533 73.0431 340.475 71.6598 341.107 70.1286C341.738 68.5973 342.046 66.9514 342.011 65.2947V37.7618H335.283ZM333.659 56.9816C333.005 57.7234 332.197 58.3134 331.293 58.7105C330.394 59.1105 329.418 59.3029 328.435 59.2735C327.456 59.2991 326.484 59.1068 325.588 58.7105C324.682 58.3154 323.874 57.7251 323.221 56.9816C321.85 55.4643 321.108 53.4798 321.146 51.4328C321.08 49.3948 321.822 47.4137 323.211 45.9242C323.884 45.2142 324.696 44.6527 325.598 44.2756C326.492 43.8984 327.456 43.7168 328.425 43.7428C329.394 43.7272 330.356 43.913 331.25 44.2884C332.144 44.6638 332.95 45.2208 333.619 45.9242C334.333 46.6423 334.889 47.5015 335.253 48.4472C335.627 49.4071 335.801 50.4333 335.765 51.4629C335.787 53.5037 335.034 55.4765 333.659 56.9816Z" fill="#FAFAFA" style="fill:#FAFAFA;fill:color(display-p3 0.9804 0.9804 0.9804);fill-opacity:1;"/>
<path fill-rule="evenodd" clip-rule="evenodd" d="M298.355 37.752H291.678V44.5975H296.892C297.709 44.6007 298.518 44.7678 299.271 45.0889C300.023 45.4099 300.704 45.8786 301.273 46.4672C302.427 47.6722 303.067 49.2803 303.058 50.9505V66.0288H309.726V49.4125C309.735 46.334 308.54 43.3746 306.397 41.1697C305.352 40.0904 304.102 39.232 302.721 38.6449C301.34 38.0579 299.856 37.7543 298.355 37.752Z" fill="#FAFAFA" style="fill:#FAFAFA;fill:color(display-p3 0.9804 0.9804 0.9804);fill-opacity:1;"/>
<path d="M291.678 44.5977H285V66.0993H291.678V44.5977Z" fill="#FAFAFA" style="fill:#FAFAFA;fill:color(display-p3 0.9804 0.9804 0.9804);fill-opacity:1;"/>
<path d="M277.921 37.7617H271.243V65.8375H277.921V37.7617Z" fill="#FAFAFA" style="fill:#FAFAFA;fill:color(display-p3 0.9804 0.9804 0.9804);fill-opacity:1;"/>
<path fill-rule="evenodd" clip-rule="evenodd" d="M253.216 37.752H246.538V44.5975H251.712C252.531 44.6005 253.342 44.7674 254.096 45.0885C254.85 45.4095 255.532 45.8783 256.103 46.4672C257.265 47.6684 257.913 49.2772 257.908 50.9505V66.0288H264.586V49.4125C264.591 46.3348 263.396 43.377 261.257 41.1697C260.212 40.0913 258.962 39.2335 257.581 38.6465C256.2 38.0596 254.716 37.7554 253.216 37.752Z" fill="#FAFAFA" style="fill:#FAFAFA;fill:color(display-p3 0.9804 0.9804 0.9804);fill-opacity:1;"/>
</g>
</g>
<defs>
<linearGradient id="paint0_linear_414_4220" x1="48.9857" y1="40.8855" x2="-68.8914" y2="131.466" gradientUnits="userSpaceOnUse">
<stop stop-color="#BB8BFF" style="stop-color:#BB8BFF;stop-color:color(display-p3 0.7333 0.5451 1.0000);stop-opacity:1;"/>
<stop offset="1" stop-color="#75F6FF" style="stop-color:#75F6FF;stop-color:color(display-p3 0.4588 0.9647 1.0000);stop-opacity:1;"/>
</linearGradient>
<clipPath id="clip0_414_4220">
<rect width="399.84" height="102.05" fill="white" style="fill:white;fill-opacity:1;"/>
</clipPath>
<clipPath id="clip1_414_4220">
<rect width="230" height="52" fill="white" style="fill:white;fill-opacity:1;" transform="translate(111.961 25.6289)"/>
</clipPath>
</defs>
</svg>
